<svg width="24" height="25" viewBox="0 0 24 25" fill="none" xmlns="http://www.w3.org/2000/svg">
<path fill-rule="evenodd" clip-rule="evenodd" d="M11.2374 2.42507C11.4616 2.27036 11.7275 2.1875 11.9999 2.1875C12.2723 2.1875 12.5382 2.27036 12.7624 2.42507C12.9852 2.57885 13.1563 2.7964 13.2533 3.04911L15.3186 8.25027C15.3342 8.29031 15.3608 8.32512 15.3953 8.35063C15.4295 8.37589 15.4702 8.39101 15.5125 8.39428C15.513 8.39431 15.5134 8.39434 15.5138 8.39437L21.0474 8.75349C22.2969 8.83459 22.7444 10.4101 21.817 11.1819L17.5797 14.7087C17.5793 14.709 17.579 14.7093 17.5787 14.7096C17.542 14.7408 17.5147 14.7817 17.5 14.8277C17.4852 14.874 17.4838 14.9236 17.4959 14.9708L17.4963 14.9722L18.8624 20.3462C19.1562 21.502 17.912 22.5307 16.8407 21.852L12.1124 18.8563L12.4134 18.3812L12.1114 18.8557C12.0781 18.8345 12.0394 18.8232 11.9999 18.8232C11.9604 18.8232 11.9217 18.8345 11.8884 18.8557L7.49338 21.6402C6.30123 22.3955 4.90694 21.2529 5.23663 19.956L6.50355 14.9722L6.50392 14.9708C6.51603 14.9236 6.51459 14.874 6.49978 14.8277C6.48509 14.7817 6.45785 14.7408 6.42114 14.7096L2.18278 11.1819C1.25546 10.4101 1.70287 8.83459 2.95242 8.75349L8.48728 8.39428C8.52966 8.39101 8.57029 8.37589 8.6045 8.35063C8.63906 8.32512 8.66566 8.29032 8.6812 8.25027L8.68278 8.24622L10.7466 3.04911C10.8435 2.7964 11.0146 2.57885 11.2374 2.42507ZM12.7155 17.9067C12.7155 17.9067 12.7155 17.9066 12.7155 17.9067L17.4428 20.9017C17.5262 20.9546 17.6097 20.9468 17.6833 20.8909C17.7586 20.8338 17.8017 20.7399 17.7721 20.6233L16.4063 15.2508C16.4062 15.2504 16.4061 15.2501 16.406 15.2497C16.3415 14.9978 16.3493 14.7328 16.4285 14.4851C16.5078 14.2371 16.6555 14.0164 16.8546 13.8486L16.8573 13.8463L21.0973 10.3172C21.1807 10.2479 21.2067 10.1469 21.1743 10.0428C21.1422 9.93958 21.0695 9.88229 20.9745 9.87613L15.4336 9.51652C15.1782 9.49827 14.9332 9.40782 14.7272 9.25572C14.5218 9.1041 14.3635 8.89744 14.2707 8.65966C14.2704 8.6589 14.2702 8.65814 14.2699 8.65737L12.2031 3.4528C12.1875 3.41156 12.1597 3.37603 12.1234 3.35097C12.0871 3.32592 12.044 3.3125 11.9999 3.3125C11.9558 3.3125 11.9127 3.32592 11.8764 3.35097C11.8401 3.37603 11.8123 3.41153 11.7967 3.45277L11.7936 3.46085L9.72907 8.65966C9.63627 8.89744 9.47804 9.1041 9.27266 9.25572C9.06662 9.40782 8.82162 9.49826 8.56617 9.51651L8.56252 9.51677L3.02528 9.87613C2.93031 9.88229 2.85761 9.93958 2.82552 10.0428C2.79315 10.1468 2.81911 10.2479 2.90247 10.3172L7.14253 13.8463L7.14522 13.8486C7.34434 14.0164 7.49205 14.2371 7.57135 14.4851C7.65057 14.7329 7.65832 14.9981 7.59369 15.2501C7.59363 15.2503 7.59375 15.2498 7.59369 15.2501L6.32695 20.2331C6.2262 20.6294 6.63288 20.8536 6.89129 20.6899L11.2843 17.9067C11.2843 17.9066 11.2843 17.9067 11.2843 17.9067C11.4981 17.7706 11.7464 17.6982 11.9999 17.6982C12.2534 17.6982 12.5017 17.7706 12.7155 17.9067Z" fill="#FEF100"/>
</svg>
