<svg width="49" height="48" viewBox="0 0 49 48" fill="none" xmlns="http://www.w3.org/2000/svg">
<path fill-rule="evenodd" clip-rule="evenodd" d="M24.75 2.8457C24.2992 2.8457 23.856 2.9618 23.4631 3.18282L15.2176 7.82088C15.204 7.82817 15.1905 7.83575 15.1772 7.84361L6.96306 12.4641C6.56814 12.6862 6.23764 13.0067 6.00348 13.3941C5.99352 13.4101 5.98391 13.4263 5.97465 13.443L5.97445 13.4433C5.74555 13.8414 5.625 14.2926 5.625 14.752V33.2474C5.625 33.7132 5.74893 34.1706 5.98408 34.5726C6.21922 34.9747 6.55711 35.3069 6.96306 35.5353L23.4631 44.8165C23.8534 45.0361 24.2934 45.1521 24.7411 45.1536C24.7441 45.1537 24.747 45.1537 24.75 45.1537M25.8919 42.3166L26.0471 24.6576L32.8165 20.8119V28.5955C32.8165 29.2168 33.3201 29.7205 33.9415 29.7205C34.5628 29.7205 35.0665 29.2168 35.0665 28.5955V19.5336L41.625 15.8076V33.2474C41.625 33.3139 41.6073 33.3793 41.5737 33.4367C41.5401 33.4942 41.4918 33.5416 41.4338 33.5742L25.8919 42.3166ZM23.797 24.6577L23.6417 42.3355L8.06615 33.5742C8.00816 33.5416 7.95989 33.4942 7.9263 33.4367C7.8927 33.3793 7.875 33.3139 7.875 33.2474V15.7892L23.797 24.6577ZM24.7661 45.1536C25.2114 45.1509 25.6487 45.0349 26.0369 44.8165L42.5369 35.5353C42.9429 35.3069 43.2808 34.9747 43.5159 34.5726C43.7511 34.1706 43.875 33.7132 43.875 33.2474V14.752C43.875 14.2862 43.7511 13.8288 43.5159 13.4267C43.2808 13.0247 42.9429 12.6924 42.5369 12.4641L26.0369 3.18282C25.644 2.9618 25.2008 2.8457 24.75 2.8457M24.9222 22.7089L31.6682 18.8765L15.7553 10.1L9.05315 13.8699L24.9222 22.7089ZM40.4639 13.8795L33.9631 17.5727L18.0618 8.80255L24.5662 5.14386C24.6223 5.11229 24.6856 5.0957 24.75 5.0957C24.8144 5.0957 24.8777 5.11229 24.9338 5.14386L40.4639 13.8795Z" fill="#EE008F"/>
</svg>
