<svg width="49" height="48" viewBox="0 0 49 48" fill="none" xmlns="http://www.w3.org/2000/svg">
<path fill-rule="evenodd" clip-rule="evenodd" d="M37.8334 7.125C38.0405 7.125 38.2084 7.29289 38.2084 7.5V40.5C38.2084 40.7071 38.0405 40.875 37.8334 40.875H10.8334C10.6263 40.875 10.4584 40.7071 10.4584 40.5V7.5C10.4584 7.29289 10.6263 7.125 10.8334 7.125H37.8334ZM40.4584 7.5C40.4584 6.05025 39.2831 4.875 37.8334 4.875H10.8334C9.38363 4.875 8.20837 6.05025 8.20837 7.5V40.5C8.20837 41.9497 9.38363 43.125 10.8334 43.125H37.8334C39.2831 43.125 40.4584 41.9497 40.4584 40.5V7.5ZM15.3334 10.875C14.7121 10.875 14.2084 11.3787 14.2084 12V21C14.2084 21.6213 14.7121 22.125 15.3334 22.125H33.3334C33.9547 22.125 34.4584 21.6213 34.4584 21V12C34.4584 11.3787 33.9547 10.875 33.3334 10.875H15.3334ZM16.4584 19.875V13.125H32.2084V19.875H16.4584ZM16.8334 29.625C17.8689 29.625 18.7084 28.7855 18.7084 27.75C18.7084 26.7145 17.8689 25.875 16.8334 25.875C15.7978 25.875 14.9584 26.7145 14.9584 27.75C14.9584 28.7855 15.7978 29.625 16.8334 29.625ZM26.2084 27.75C26.2084 28.7855 25.3689 29.625 24.3334 29.625C23.2978 29.625 22.4584 28.7855 22.4584 27.75C22.4584 26.7145 23.2978 25.875 24.3334 25.875C25.3689 25.875 26.2084 26.7145 26.2084 27.75ZM31.8334 29.625C32.8689 29.625 33.7084 28.7855 33.7084 27.75C33.7084 26.7145 32.8689 25.875 31.8334 25.875C30.7978 25.875 29.9584 26.7145 29.9584 27.75C29.9584 28.7855 30.7978 29.625 31.8334 29.625ZM18.7084 35.25C18.7084 36.2855 17.8689 37.125 16.8334 37.125C15.7978 37.125 14.9584 36.2855 14.9584 35.25C14.9584 34.2145 15.7978 33.375 16.8334 33.375C17.8689 33.375 18.7084 34.2145 18.7084 35.25ZM24.3334 37.125C25.3689 37.125 26.2084 36.2855 26.2084 35.25C26.2084 34.2145 25.3689 33.375 24.3334 33.375C23.2978 33.375 22.4584 34.2145 22.4584 35.25C22.4584 36.2855 23.2978 37.125 24.3334 37.125ZM33.7084 35.25C33.7084 36.2855 32.8689 37.125 31.8334 37.125C30.7978 37.125 29.9584 36.2855 29.9584 35.25C29.9584 34.2145 30.7978 33.375 31.8334 33.375C32.8689 33.375 33.7084 34.2145 33.7084 35.25Z" fill="#EE008F"/>
</svg>
