<svg width="24" height="24" viewBox="0 0 24 24" fill="none" xmlns="http://www.w3.org/2000/svg">
<path fill-rule="evenodd" clip-rule="evenodd" d="M12 1.42297C11.7746 1.42297 11.553 1.48102 11.3565 1.59153L3.10653 6.23216C2.90908 6.34322 2.74384 6.50345 2.62676 6.69714C2.62177 6.70513 2.61696 6.71329 2.61233 6.7216L12 1.42297ZM12 1.42297L2.61221 6.72181C2.49777 6.92082 2.4375 7.14642 2.4375 7.3761V16.6238C2.4375 16.8567 2.49946 17.0854 2.61704 17.2864C2.73461 17.4875 2.90355 17.6536 3.10653 17.7678L11.3565 22.4084C11.5518 22.5182 11.772 22.5763 11.996 22.5769L12 22.577L12.0074 22.5769C12.2302 22.5757 12.4492 22.5177 12.6435 22.4084L20.8935 17.7678C21.0964 17.6536 21.2654 17.4875 21.383 17.2864C21.5005 17.0854 21.5625 16.8567 21.5625 16.6238V7.3761C21.5625 7.14321 21.5005 6.91452 21.383 6.71349C21.2654 6.51246 21.0964 6.34633 20.8935 6.23216L12.6435 1.59153C12.447 1.48102 12.2254 1.42297 12 1.42297ZM19.9195 17.0249L12.571 21.1584L12.6416 13.12C12.6481 13.0858 12.6515 13.0506 12.6515 13.0145L12.6515 12.9817C12.8685 13.0052 13.0888 12.9004 13.2026 12.6981C13.3227 12.4847 13.2884 12.2264 13.136 12.052L20.4375 7.90385V16.1915C20.2323 16.1825 20.0297 16.2866 19.9221 16.4778C19.8231 16.6537 19.829 16.8601 19.9195 17.0249ZM10.8402 12.6981C10.9764 12.9401 11.2649 13.0426 11.518 12.9527L11.4458 21.1679L4.11289 17.0431C4.21327 16.8755 4.2234 16.6603 4.12077 16.4778C4.00571 16.2733 3.78185 16.1684 3.5625 16.195V7.89472L10.9489 12.0089C10.7615 12.1816 10.7099 12.4663 10.8402 12.6981ZM19.8569 6.93984L12.0861 11.3546L4.15157 6.93509L11.584 2.75433C11.548 2.82853 11.5277 2.91185 11.5277 2.9999L11.5277 3.33372C11.5276 3.64438 11.7794 3.89625 12.0901 3.89629C12.4008 3.89632 12.6526 3.64451 12.6527 3.33385L12.6527 3.00004C12.6527 2.95896 12.6483 2.9189 12.64 2.88032L19.8569 6.93984ZM9.40628 14.1501C9.67704 13.9978 9.77307 13.6548 9.62077 13.384C9.46846 13.1133 9.1255 13.0173 8.85473 13.1696L8.30474 13.4789C8.03397 13.6312 7.93794 13.9742 8.09025 14.245C8.24255 14.5157 8.58552 14.6118 8.85628 14.4595L9.40628 14.1501ZM6.65628 15.697C6.92704 15.5447 7.02307 15.2017 6.87077 14.9309C6.71846 14.6602 6.3755 14.5641 6.10474 14.7164L5.55474 15.0258C5.28397 15.1781 5.18794 15.5211 5.34025 15.7918C5.49255 16.0626 5.83552 16.1586 6.10628 16.0063L6.65628 15.697ZM14.4221 13.384C14.5744 13.1133 14.9174 13.0173 15.1881 13.1696L15.7381 13.4789C16.0089 13.6312 16.1049 13.9742 15.9526 14.245C15.8003 14.5157 15.4573 14.6118 15.1866 14.4595L14.6366 14.1501C14.3658 13.9978 14.2698 13.6548 14.4221 13.384ZM17.1721 14.9309C17.3244 14.6602 17.6674 14.5641 17.9381 14.7164L18.4881 15.0258C18.7589 15.1781 18.8549 15.5211 18.7026 15.7918C18.5503 16.0626 18.2073 16.1586 17.9366 16.0063L17.3866 15.697C17.1158 15.5447 17.0198 15.2017 17.1721 14.9309ZM12.6523 6.00439C12.6524 5.69373 12.4006 5.44186 12.0899 5.44182C11.7793 5.44178 11.5274 5.69359 11.5273 6.00425L11.5273 6.67188C11.5272 6.98254 11.779 7.23441 12.0897 7.23445C12.4004 7.23449 12.6522 6.98268 12.6523 6.67202L12.6523 6.00439ZM12.6519 9.34255C12.652 9.03189 12.4002 8.78002 12.0895 8.77998C11.7788 8.77995 11.527 9.03176 11.5269 9.34242L11.5269 10.01C11.5268 10.3207 11.7786 10.5726 12.0893 10.5726C12.3999 10.5727 12.6518 10.3208 12.6519 10.0102L12.6519 9.34255Z" fill="#5C6B70"/>
</svg>
