<svg width="24" height="24" viewBox="0 0 24 24" fill="none" xmlns="http://www.w3.org/2000/svg">
<path fill-rule="evenodd" clip-rule="evenodd" d="M12.0272 1.90544C11.8204 1.84282 11.6014 1.83223 11.3895 1.87461L3.82814 3.38688C3.60547 3.43142 3.43142 3.60547 3.38688 3.82814L1.87461 11.3895C1.83223 11.6014 1.84282 11.8204 1.90544 12.0272C1.96805 12.234 2.08076 12.4222 2.23354 12.575L12.026 22.3674C12.1479 22.4893 12.2926 22.586 12.4518 22.6519C12.611 22.7179 12.7817 22.7519 12.9541 22.7519C13.1264 22.7519 13.2971 22.7179 13.4563 22.6519C13.6156 22.586 13.7603 22.4893 13.8821 22.3674L22.3674 13.8821C22.4893 13.7603 22.586 13.6156 22.6519 13.4563C22.7179 13.2971 22.7519 13.1264 22.7519 12.9541C22.7519 12.7817 22.7179 12.611 22.6519 12.4518C22.586 12.2926 22.4893 12.1479 22.3674 12.026L12.575 2.23354C12.4222 2.08076 12.234 1.96805 12.0272 1.90544ZM11.6101 2.97776C11.6404 2.97171 11.6717 2.97322 11.7012 2.98217C11.7308 2.99111 11.7577 3.00721 11.7795 3.02904L12.1736 2.63494L11.7795 3.02904L21.5719 12.8215C21.5893 12.8389 21.6032 12.8596 21.6126 12.8823C21.622 12.9051 21.6269 12.9294 21.6269 12.9541C21.6269 12.9787 21.622 13.0031 21.6126 13.0258C21.6032 13.0486 21.5893 13.0692 21.5719 13.0867L13.0867 21.5719C13.0692 21.5893 13.0486 21.6032 13.0258 21.6126C13.0031 21.622 12.9787 21.6269 12.9541 21.6269C12.9294 21.6269 12.9051 21.622 12.8823 21.6126C12.8596 21.6032 12.8389 21.5893 12.8215 21.5719L3.02904 11.7795L2.63494 12.1736L3.02904 11.7795C3.00721 11.7577 2.99111 11.7308 2.98217 11.7012C2.97322 11.6717 2.97171 11.6404 2.97776 11.6101L4.41649 4.41649L11.6101 2.97776ZM8.81244 7.87501C8.81244 8.39277 8.39271 8.81251 7.87494 8.81251C7.35717 8.81251 6.93744 8.39277 6.93744 7.87501C6.93744 7.35724 7.35717 6.93751 7.87494 6.93751C8.39271 6.93751 8.81244 7.35724 8.81244 7.87501Z" fill="#5C6B70"/>
</svg>
