<svg width="49" height="48" viewBox="0 0 49 48" fill="none" xmlns="http://www.w3.org/2000/svg">
<path fill-rule="evenodd" clip-rule="evenodd" d="M13.4583 18C13.4583 11.9939 18.3272 7.125 24.3333 7.125C30.3394 7.125 35.2083 11.9939 35.2083 18C35.2083 24.0061 30.3395 28.875 24.3334 28.875C24.3334 28.875 24.3334 28.875 24.3333 28.875C18.3272 28.875 13.4583 24.0061 13.4583 18ZM30.2988 29.6941C34.5488 27.5218 37.4583 23.1007 37.4583 18C37.4583 10.7513 31.5821 4.875 24.3333 4.875C17.0846 4.875 11.2083 10.7513 11.2083 18C11.2083 23.1007 14.1179 27.5218 18.3679 29.6941C16.5932 30.1908 14.88 30.9094 13.2702 31.8385C9.90629 33.7799 7.11256 36.5724 5.16963 39.9355C4.85881 40.4735 5.04297 41.1615 5.58096 41.4724C6.11895 41.7832 6.80704 41.599 7.11786 41.061C8.86327 38.0399 11.373 35.5313 14.3949 33.7872C17.4167 32.0431 20.8443 31.125 24.3333 31.125C24.3334 31.125 24.3335 31.125 24.3335 31.125C27.8226 31.125 31.2502 32.0432 34.2721 33.7874C37.2939 35.5316 39.8036 38.0402 41.5489 41.0614C41.8598 41.5994 42.5478 41.7836 43.0858 41.4728C43.6238 41.1619 43.808 40.4739 43.4972 39.9359C41.5543 36.5728 38.7607 33.7802 35.3968 31.8387C33.7869 30.9095 32.0736 30.1909 30.2988 29.6941Z" fill="#EE008F"/>
</svg>
