<svg width="24" height="24" viewBox="0 0 24 24" fill="none" xmlns="http://www.w3.org/2000/svg">
<path fill-rule="evenodd" clip-rule="evenodd" d="M12 1.42383C11.7746 1.42383 11.553 1.48188 11.3565 1.59239L7.23381 3.91142C7.227 3.91506 7.22027 3.91885 7.2136 3.92278L3.10653 6.23301C2.90907 6.34408 2.74382 6.50432 2.62674 6.69803C2.62176 6.70601 2.61695 6.71415 2.61233 6.72246L2.61223 6.72264C2.49778 6.92165 2.4375 7.14726 2.4375 7.37695V16.6247C2.4375 16.8576 2.49947 17.0863 2.61704 17.2873C2.73461 17.4883 2.90355 17.6544 3.10653 17.7686L11.3565 22.4092C11.5517 22.519 11.7717 22.577 11.9956 22.5778C11.997 22.5778 11.9985 22.5778 12 22.5778C12.0027 22.5778 12.0054 22.5778 12.008 22.5778C12.2307 22.5764 12.4493 22.5184 12.6435 22.4092L20.8935 17.7686C21.0964 17.6544 21.2654 17.4883 21.383 17.2873C21.5005 17.0863 21.5625 16.8576 21.5625 16.6247V7.37695C21.5625 7.14406 21.5005 6.91537 21.383 6.71434C21.2654 6.51331 21.0964 6.34719 20.8935 6.23301L12.6435 1.59239C12.447 1.48188 12.2254 1.42383 12 1.42383ZM12.571 21.1593L20.3419 16.7881C20.3709 16.7718 20.3951 16.7481 20.4118 16.7193C20.4286 16.6906 20.4375 16.6579 20.4375 16.6247V7.90479L17.1582 9.76778V14.2987C17.1582 14.6094 16.9064 14.8612 16.5957 14.8612C16.2851 14.8612 16.0332 14.6094 16.0332 14.2987V10.4069L12.6486 12.3298L12.571 21.1593ZM11.5235 12.3298L3.5625 7.89557V16.6247C3.5625 16.6579 3.57135 16.6906 3.58815 16.7193C3.60494 16.7481 3.62908 16.7718 3.65808 16.7881L11.4458 21.1687L11.5235 12.3298ZM12.0861 11.3554L15.4591 9.43921L7.50266 5.05095L4.15157 6.93594L12.0861 11.3554ZM19.8569 6.94073L16.6066 8.78731L8.65591 4.40225L11.9081 2.57291C11.9361 2.55712 11.9678 2.54883 12 2.54883C12.0322 2.54883 12.0639 2.55712 12.0919 2.57291L19.8569 6.94073Z" fill="#FEF100"/>
</svg>
