<svg width="24" height="24" viewBox="0 0 24 24" fill="none" xmlns="http://www.w3.org/2000/svg">
<path fill-rule="evenodd" clip-rule="evenodd" d="M5.99951 3.1875C5.68885 3.1875 5.43701 3.43934 5.43701 3.75V6.9375H4.24951C3.08463 6.9375 2.06201 7.81937 2.06201 9V16.5C2.06201 16.8107 2.31385 17.0625 2.62451 17.0625H5.43701V20.625C5.43701 20.9357 5.68885 21.1875 5.99951 21.1875H17.9995C18.3102 21.1875 18.562 20.9357 18.562 20.625V17.0625H21.3745C21.6852 17.0625 21.937 16.8107 21.937 16.5V9C21.937 7.81937 20.9144 6.9375 19.7495 6.9375H18.562V3.75C18.562 3.43934 18.3102 3.1875 17.9995 3.1875H5.99951ZM4.24951 8.0625H5.99951H17.9995H19.7495C20.3796 8.0625 20.812 8.52378 20.812 9V15.9375H18.562V14.25C18.562 13.9393 18.3102 13.6875 17.9995 13.6875H5.99951C5.68885 13.6875 5.43701 13.9393 5.43701 14.25V15.9375H3.18701V9C3.18701 8.52378 3.61947 8.0625 4.24951 8.0625ZM6.56201 6.9375H17.437V4.3125H6.56201V6.9375ZM17.437 14.8125V16.5V20.0625H6.56201V16.5V14.8125H17.437ZM18.5626 10.875C18.5626 11.3928 18.1428 11.8125 17.6251 11.8125C17.1073 11.8125 16.6876 11.3928 16.6876 10.875C16.6876 10.3572 17.1073 9.9375 17.6251 9.9375C18.1428 9.9375 18.5626 10.3572 18.5626 10.875Z" fill="#FEF100"/>
</svg>
