<svg width="49" height="48" viewBox="0 0 49 48" fill="none" xmlns="http://www.w3.org/2000/svg">
<path fill-rule="evenodd" clip-rule="evenodd" d="M12.0952 6.53093L2.84034 11.8194C2.25776 12.1523 1.82478 12.6957 1.63034 13.3379C1.4359 13.9801 1.49476 14.6723 1.79483 15.2725L5.24566 22.1741C5.46367 22.6102 5.7988 22.9769 6.21348 23.2332C6.62817 23.4894 7.10603 23.6252 7.59353 23.6252H11.5416V39.0002C11.5416 39.6964 11.8182 40.3641 12.3105 40.8563C12.8028 41.3486 13.4704 41.6252 14.1666 41.6252H35.1666C35.8628 41.6252 36.5305 41.3486 37.0228 40.8563C37.5151 40.3641 37.7916 39.6964 37.7916 39.0002V23.6252H41.7398C42.2273 23.6252 42.7051 23.4894 43.1198 23.2332C43.5345 22.9769 43.8696 22.6102 44.0876 22.1741L47.5385 15.2725C47.8385 14.6723 47.8974 13.9801 47.703 13.3379C47.5085 12.6957 47.0755 12.1523 46.493 11.8194L37.2367 6.53011C37.1622 6.48627 37.0823 6.45075 36.9982 6.42484C36.8828 6.38917 36.7643 6.37302 36.6471 6.37519H30.6666C30.0453 6.37519 29.5416 6.87887 29.5416 7.50019C29.5416 8.79312 29.028 10.0331 28.1138 10.9473C27.1995 11.8616 25.9596 12.3752 24.6666 12.3752C23.3737 12.3752 22.1337 11.8616 21.2195 10.9473C20.3052 10.0331 19.7916 8.79312 19.7916 7.50019C19.7916 6.87887 19.2879 6.37519 18.6666 6.37519H12.6862C12.5728 6.37309 12.4583 6.38814 12.3465 6.4214C12.2576 6.44773 12.1734 6.48473 12.0952 6.53093ZM37.7916 9.43866V21.3752H41.7398C41.8094 21.3752 41.8777 21.3558 41.9369 21.3192C41.9962 21.2826 42.044 21.2302 42.0752 21.1679L45.526 14.2663C45.5689 14.1805 45.5773 14.0816 45.5495 13.9899C45.5217 13.8981 45.4599 13.8205 45.3766 13.773L37.7916 9.43866ZM11.5416 21.3752V9.43868L3.95665 13.773L3.3985 12.7962L3.95665 13.773C3.87342 13.8205 3.81157 13.8981 3.78379 13.9899C3.75602 14.0816 3.76443 14.1805 3.80729 14.2663L7.25812 21.1679C7.28926 21.2302 7.33714 21.2826 7.39638 21.3192C7.45562 21.3558 7.52389 21.3752 7.59353 21.3752H11.5416ZM13.7916 39.0002V8.62519H17.631C17.8665 10.098 18.5604 11.4703 19.6285 12.5383C20.9647 13.8745 22.777 14.6252 24.6666 14.6252C26.5563 14.6252 28.3686 13.8745 29.7048 12.5383C30.7728 11.4703 31.4668 10.098 31.7023 8.62519H35.5416V39.0002C35.5416 39.0997 35.5021 39.195 35.4318 39.2654C35.3615 39.3357 35.2661 39.3752 35.1666 39.3752H14.1666C14.0672 39.3752 13.9718 39.3357 13.9015 39.2654C13.8311 39.195 13.7916 39.0997 13.7916 39.0002Z" fill="#EE008F"/>
</svg>
