<svg width="24" height="24" viewBox="0 0 24 24" fill="none" xmlns="http://www.w3.org/2000/svg">
<path fill-rule="evenodd" clip-rule="evenodd" d="M7.09445 4.84445C8.39548 3.54341 10.1601 2.8125 12 2.8125C13.8399 2.8125 15.6045 3.54341 16.9056 4.84445C18.2066 6.14548 18.9375 7.91006 18.9375 9.75C18.9375 12.9225 17.1683 15.7929 15.3255 17.9121C14.411 18.9639 13.495 19.8113 12.8076 20.3956C12.4752 20.6781 12.1973 20.8983 12 21.0495C11.8027 20.8983 11.5248 20.6781 11.1924 20.3956C10.505 19.8113 9.589 18.9639 8.67447 17.9121C6.83166 15.7929 5.0625 12.9225 5.0625 9.75C5.0625 7.91006 5.79341 6.14548 7.09445 4.84445ZM11.6771 22.2106C11.6773 22.2107 11.6774 22.2108 12 21.75L12.3226 22.2108C12.1289 22.3464 11.8707 22.3461 11.6771 22.2106ZM11.6771 22.2106L12 21.75C12.3226 22.2108 12.3233 22.2103 12.3235 22.2102L12.325 22.2091L12.3302 22.2054L12.3485 22.1924C12.3642 22.1812 12.3868 22.1649 12.4159 22.1437C12.474 22.1013 12.5579 22.0392 12.6638 21.9581C12.8758 21.7962 13.1764 21.5586 13.5362 21.2528C14.255 20.6418 15.214 19.7549 16.1745 18.6504C18.0817 16.4571 20.0625 13.3275 20.0625 9.75C20.0625 7.61169 19.2131 5.56096 17.701 4.04895C16.189 2.53694 14.1383 1.6875 12 1.6875C9.86169 1.6875 7.81096 2.53694 6.29895 4.04895C4.78694 5.56096 3.9375 7.61169 3.9375 9.75C3.9375 13.3275 5.91834 16.4571 7.82553 18.6504C8.786 19.7549 9.74503 20.6418 10.4638 21.2528C10.8236 21.5586 11.1242 21.7962 11.3362 21.9581C11.4421 22.0392 11.526 22.1013 11.5841 22.1437C11.6132 22.1649 11.6358 22.1812 11.6515 22.1924L11.6698 22.2054L11.675 22.2091L11.6771 22.2106ZM9.5625 9.75C9.5625 8.40381 10.6538 7.3125 12 7.3125C13.3462 7.3125 14.4375 8.40381 14.4375 9.75C14.4375 11.0962 13.3462 12.1875 12 12.1875C10.6538 12.1875 9.5625 11.0962 9.5625 9.75ZM12 6.1875C10.0325 6.1875 8.4375 7.78249 8.4375 9.75C8.4375 11.7175 10.0325 13.3125 12 13.3125C13.9675 13.3125 15.5625 11.7175 15.5625 9.75C15.5625 7.78249 13.9675 6.1875 12 6.1875Z" fill="#00B0F1"/>
</svg>
