<svg width="24" height="24" viewBox="0 0 24 24" fill="none" xmlns="http://www.w3.org/2000/svg">
<path fill-rule="evenodd" clip-rule="evenodd" d="M12 1.42297C11.7746 1.42297 11.553 1.48102 11.3565 1.59153L7.23381 3.91056C7.227 3.91421 7.22027 3.918 7.2136 3.92193L3.10653 6.23215C2.90907 6.34323 2.74382 6.50347 2.62674 6.69717C2.62176 6.70515 2.61695 6.7133 2.61233 6.7216L2.61223 6.72178C2.49778 6.9208 2.4375 7.14641 2.4375 7.3761V16.6238C2.4375 16.8567 2.49947 17.0854 2.61704 17.2864C2.73461 17.4875 2.90355 17.6536 3.10653 17.7678L11.3565 22.4084C11.5517 22.5182 11.7717 22.5762 11.9956 22.5769C11.997 22.5769 11.9985 22.577 12 22.577C12.0027 22.577 12.0054 22.5769 12.008 22.5769C12.2307 22.5756 12.4493 22.5176 12.6435 22.4084L20.8935 17.7678C21.0964 17.6536 21.2654 17.4875 21.383 17.2864C21.5005 17.0854 21.5625 16.8567 21.5625 16.6238V7.3761C21.5625 7.14321 21.5005 6.91452 21.383 6.71349C21.2654 6.51246 21.0964 6.34633 20.8935 6.23215L12.6435 1.59153C12.447 1.48102 12.2254 1.42297 12 1.42297ZM12.571 21.1584L20.3419 16.7872C20.3709 16.7709 20.3951 16.7472 20.4118 16.7185C20.4286 16.6898 20.4375 16.6571 20.4375 16.6238V7.90393L17.1582 9.76692V14.2979C17.1582 14.6085 16.9064 14.8604 16.5957 14.8604C16.2851 14.8604 16.0332 14.6085 16.0332 14.2979V10.406L12.6486 12.3289L12.571 21.1584ZM11.5235 12.329L3.5625 7.89472V16.6238C3.5625 16.6571 3.57135 16.6898 3.58815 16.7185C3.60494 16.7472 3.62908 16.7709 3.65808 16.7872L11.4458 21.1679L11.5235 12.329ZM12.0861 11.3546L15.4591 9.43835L7.50266 5.0501L4.15157 6.93509L12.0861 11.3546ZM19.8569 6.93988L16.6066 8.78646L8.65591 4.4014L11.9081 2.57205C11.9361 2.55627 11.9678 2.54797 12 2.54797C12.0322 2.54797 12.0639 2.55627 12.0919 2.57205L19.8569 6.93988Z" fill="#5C6B70"/>
</svg>
