<svg width="24" height="24" viewBox="0 0 24 24" fill="none" xmlns="http://www.w3.org/2000/svg">
<path fill-rule="evenodd" clip-rule="evenodd" d="M11.3565 1.59239C11.553 1.48188 11.7746 1.42383 12 1.42383C12.2254 1.42383 12.447 1.48188 12.6435 1.59239L20.8935 6.23301C21.0964 6.34719 21.2654 6.51331 21.383 6.71434C21.5005 6.91537 21.5625 7.14406 21.5625 7.37695V16.6247C21.5625 16.8576 21.5005 17.0863 21.383 17.2873C21.2654 17.4883 21.0964 17.6544 20.8935 17.7686L12.6435 22.4093C12.447 22.5198 12.2254 22.5778 12 22.5778C11.7746 22.5778 11.553 22.5198 11.3565 22.4093L3.10653 17.7686C2.90355 17.6544 2.73461 17.4883 2.61704 17.2873C2.49946 17.0863 2.4375 16.8576 2.4375 16.6247V7.37695C2.4375 7.14406 2.49947 6.91537 2.61704 6.71434C2.73461 6.51331 2.90355 6.34719 3.10653 6.23301L11.3565 1.59239ZM12 2.54883C11.9678 2.54883 11.9361 2.55712 11.9081 2.57291L3.65808 7.21353C3.62908 7.22984 3.60494 7.25358 3.58815 7.28229C3.57135 7.31101 3.5625 7.34368 3.5625 7.37695V16.6247C3.5625 16.658 3.57135 16.6906 3.58815 16.7193C3.60494 16.7481 3.62908 16.7718 3.65808 16.7881L11.9081 21.4287C11.9361 21.4445 11.9678 21.4528 12 21.4528C12.0322 21.4528 12.0639 21.4445 12.0919 21.4287L20.3419 16.7881C20.3709 16.7718 20.3951 16.7481 20.4118 16.7193C20.4286 16.6906 20.4375 16.6579 20.4375 16.6247V7.37695C20.4375 7.34368 20.4286 7.31102 20.4118 7.28229C20.3951 7.25358 20.3709 7.22984 20.3419 7.21353L12.0919 2.57291C12.0639 2.55712 12.0322 2.54883 12 2.54883Z" fill="#FEF100"/>
<path fill-rule="evenodd" clip-rule="evenodd" d="M12.0958 11.9919C12.2481 12.2627 12.1521 12.6056 11.8813 12.7579L11.6063 12.9126C11.3356 13.0649 10.9926 12.9689 10.8403 12.6981C10.688 12.4274 10.784 12.0844 11.0548 11.9321L11.3298 11.7774C11.6006 11.6251 11.9435 11.7211 12.0958 11.9919ZM9.62083 13.3841C9.77313 13.6549 9.6771 13.9978 9.40634 14.1501L8.85634 14.4595C8.58558 14.6118 8.24261 14.5158 8.09031 14.245C7.938 13.9742 8.03403 13.6313 8.3048 13.479L8.8548 13.1696C9.12556 13.0173 9.46852 13.1133 9.62083 13.3841ZM6.87083 14.931C7.02313 15.2017 6.9271 15.5447 6.65634 15.697L6.10634 16.0064C5.83558 16.1587 5.49261 16.0627 5.34031 15.7919C5.188 15.5211 5.28403 15.1782 5.5548 15.0259L6.1048 14.7165C6.37556 14.5642 6.71852 14.6602 6.87083 14.931ZM4.12083 16.4778C4.27313 16.7486 4.1771 17.0916 3.90634 17.2439L3.63134 17.3986C3.36058 17.5509 3.01761 17.4548 2.86531 17.1841C2.713 16.9133 2.80903 16.5703 3.0798 16.418L3.3548 16.2634C3.62556 16.111 3.96853 16.2071 4.12083 16.4778Z" fill="#FEF100"/>
<path fill-rule="evenodd" clip-rule="evenodd" d="M11.9473 11.9919C12.0996 11.7211 12.4426 11.6251 12.7134 11.7774L12.9884 11.9321C13.2591 12.0844 13.3552 12.4274 13.2029 12.6981C13.0506 12.9689 12.7076 13.0649 12.4368 12.9126L12.1618 12.7579C11.8911 12.6056 11.795 12.2627 11.9473 11.9919ZM14.4223 13.3841C14.5746 13.1133 14.9176 13.0173 15.1884 13.1696L15.7384 13.479C16.0091 13.6313 16.1052 13.9742 15.9529 14.245C15.8006 14.5158 15.4576 14.6118 15.1868 14.4595L14.6368 14.1501C14.3661 13.9978 14.27 13.6549 14.4223 13.3841ZM17.1723 14.931C17.3246 14.6602 17.6676 14.5642 17.9384 14.7165L18.4884 15.0259C18.7591 15.1782 18.8552 15.5211 18.7029 15.7919C18.5506 16.0627 18.2076 16.1587 17.9368 16.0064L17.3868 15.697C17.1161 15.5447 17.02 15.2017 17.1723 14.931ZM19.9223 16.4778C20.0746 16.2071 20.4176 16.111 20.6884 16.2634L20.9634 16.418C21.2341 16.5703 21.3302 16.9133 21.1779 17.1841C21.0256 17.4548 20.6826 17.5509 20.4118 17.3986L20.1368 17.2439C19.8661 17.0916 19.77 16.7486 19.9223 16.4778Z" fill="#FEF100"/>
<path fill-rule="evenodd" clip-rule="evenodd" d="M2.6122 6.72248C2.76337 6.45108 3.10593 6.35361 3.37733 6.50478L12.086 11.3555L20.6185 6.50796C20.8886 6.3545 21.232 6.44907 21.3854 6.71918C21.5389 6.98929 21.4443 7.33266 21.1742 7.48612L12.3666 12.4899C12.1957 12.587 11.9866 12.5879 11.815 12.4923L2.8299 7.48761C2.5585 7.33644 2.46104 6.99388 2.6122 6.72248Z" fill="#FEF100"/>
<path fill-rule="evenodd" clip-rule="evenodd" d="M12.0939 11.4375C12.4046 11.4403 12.6542 11.6943 12.6515 12.0049L12.5635 22.0194C12.5607 22.3301 12.3067 22.5797 11.996 22.577C11.6854 22.5742 11.4358 22.3202 11.4385 22.0096L11.5265 11.9951C11.5292 11.6844 11.7833 11.4348 12.0939 11.4375Z" fill="#FEF100"/>
<path fill-rule="evenodd" clip-rule="evenodd" d="M12.0902 2.4375C12.4008 2.43754 12.6526 2.68941 12.6526 3.00007L12.6525 3.33388C12.6525 3.64454 12.4006 3.89635 12.09 3.89632C11.7793 3.89628 11.5275 3.64441 11.5275 3.33375L11.5276 2.99993C11.5276 2.68927 11.7795 2.43746 12.0902 2.4375ZM12.0898 5.44185C12.4004 5.44189 12.6523 5.69376 12.6522 6.00442L12.6521 6.67205C12.6521 6.98271 12.4002 7.23452 12.0896 7.23448C11.7789 7.23444 11.5271 6.98257 11.5271 6.67191L11.5272 6.00428C11.5273 5.69362 11.7791 5.44181 12.0898 5.44185ZM12.0894 8.78001C12.4 8.78005 12.6519 9.03192 12.6518 9.34258L12.6517 10.0102C12.6517 10.3209 12.3998 10.5727 12.0892 10.5726C11.7785 10.5726 11.5267 10.3207 11.5267 10.0101L11.5268 9.34245C11.5269 9.03179 11.7787 8.77998 12.0894 8.78001ZM12.089 12.1182C12.3996 12.1182 12.6514 12.3701 12.6514 12.6807L12.6514 13.0146C12.6513 13.3252 12.3995 13.577 12.0888 13.577C11.7781 13.577 11.5263 13.3251 11.5264 13.0144L11.5264 12.6806C11.5264 12.37 11.7783 12.1181 12.089 12.1182Z" fill="#FEF100"/>
</svg>
