<svg width="24" height="24" viewBox="0 0 24 24" fill="none" xmlns="http://www.w3.org/2000/svg">
<path fill-rule="evenodd" clip-rule="evenodd" d="M11.9023 5.87605C11.8615 5.8576 11.8154 5.85434 11.7725 5.86687L7.12789 7.22093L4.4653 12.3199L9.221 16.0387C9.24169 16.0549 9.26555 16.0665 9.29103 16.0729L14.7245 17.4313C14.7559 17.4391 14.7888 17.4387 14.82 17.4301C14.8512 17.4214 14.8797 17.4048 14.9025 17.382L17.8868 14.3977L14.6302 12.0292L13.7625 12.68C13.1459 13.1425 12.3959 13.3925 11.625 13.3925C10.8542 13.3925 10.1042 13.1425 9.48754 12.68L8.97935 12.2988C8.82891 12.186 8.70447 12.0422 8.61447 11.8771C8.52446 11.712 8.47098 11.5294 8.45765 11.3419C8.44432 11.1543 8.47145 10.9661 8.5372 10.7899C8.60296 10.6137 8.7058 10.4537 8.83877 10.3207L12.5076 6.65189C12.6295 6.53002 12.7742 6.43334 12.9334 6.36738C12.9431 6.36339 12.9527 6.35952 12.9624 6.35576L11.9023 5.87605ZM11.4576 4.78683L6.82408 6.13766L4.66062 5.05593L4.40986 5.55746L4.66062 5.05593C4.35285 4.90204 3.99695 4.87518 3.66956 4.98112C3.34218 5.08706 3.06949 5.31733 2.91022 5.62235L2.91022 5.62236L0.604632 10.0377C0.523953 10.1922 0.474857 10.3612 0.460209 10.5349C0.445562 10.7086 0.465656 10.8835 0.519319 11.0493C0.572982 11.2151 0.659139 11.3686 0.772763 11.5008C0.886387 11.633 1.0252 11.7412 1.1811 11.8192L3.44812 12.9527L8.52801 16.9249C8.67283 17.0382 8.83983 17.1197 9.01818 17.1643L14.4516 18.5227C14.6715 18.5777 14.9019 18.5747 15.1203 18.5142C15.3387 18.4538 15.5378 18.3377 15.698 18.1775L19.1401 14.7354C19.1546 14.7214 19.1684 14.7066 19.1815 14.6909L20.6036 13.0273L22.8188 11.9196C22.9747 11.8417 23.1135 11.7335 23.2272 11.6013C23.3408 11.4691 23.427 11.3156 23.4806 11.1498C23.5343 10.9839 23.5544 10.8091 23.5397 10.6354C23.5251 10.4617 23.476 10.2927 23.3953 10.1382L21.0897 5.72283C20.9304 5.41781 20.6578 5.18754 20.3304 5.0816C20.003 4.97566 19.6471 5.00252 19.3393 5.15641L17.1172 6.26747H15.4963L12.366 4.85109C12.0806 4.72194 11.7584 4.69915 11.4576 4.78683ZM15.3872 7.39247C15.3788 7.39266 15.3704 7.39266 15.3621 7.39247H13.4357C13.4111 7.39247 13.3867 7.39732 13.3639 7.40674C13.3412 7.41617 13.3205 7.42998 13.3031 7.44739L9.63426 11.1162C9.61527 11.1352 9.60058 11.1581 9.59118 11.1833C9.58179 11.2084 9.57791 11.2353 9.57982 11.2621C9.58172 11.2889 9.58936 11.315 9.60222 11.3386C9.61508 11.3622 9.63286 11.3827 9.65435 11.3988L10.1625 11.78C10.5845 12.0964 11.0976 12.2675 11.625 12.2675C12.1524 12.2675 12.6656 12.0964 13.0875 11.78L14.2875 10.88C14.4851 10.7318 14.7562 10.7298 14.9559 10.8751L18.6603 13.5692L19.5755 12.4986L16.9092 7.39247H15.3872ZM4.01593 6.05147C4.0627 6.03634 4.11354 6.04018 4.15751 6.06216L5.98634 6.97658L3.50715 11.7244L1.68421 10.8129C1.66194 10.8018 1.64211 10.7863 1.62588 10.7674C1.60965 10.7486 1.59734 10.7266 1.58967 10.7029C1.58201 10.6793 1.57914 10.6543 1.58123 10.6295C1.58332 10.6046 1.59034 10.5805 1.60186 10.5584L3.90745 6.14308L3.90745 6.14308C3.9302 6.09951 3.96916 6.06661 4.01593 6.05147ZM19.8424 6.16264C19.8864 6.14066 19.9372 6.13682 19.984 6.15195C20.0308 6.16709 20.0697 6.19998 20.0925 6.24356L22.3981 10.6589C22.4096 10.681 22.4166 10.7051 22.4187 10.7299C22.4208 10.7548 22.4179 10.7797 22.4103 10.8034C22.4026 10.8271 22.3903 10.849 22.3741 10.8679C22.3578 10.8868 22.338 10.9023 22.3157 10.9134L20.4928 11.8249L18.0136 7.07706L19.8424 6.16264ZM5.61903 16.8247C5.38456 16.6209 5.02928 16.6457 4.82547 16.8802C4.62167 17.1147 4.64652 17.4699 4.88099 17.6737L6.99529 19.5116C7.15139 19.6472 7.33735 19.7441 7.53801 19.7943L10.3636 20.5007C10.665 20.576 10.9704 20.3928 11.0457 20.0914C11.1211 19.79 10.9378 19.4846 10.6364 19.4093L7.81086 18.7029L7.67444 19.2486L7.81086 18.7029C7.7822 18.6957 7.75563 18.6819 7.73333 18.6625L5.61903 16.8247Z" fill="#FEF100"/>
</svg>
