<svg width="49" height="48" viewBox="0 0 49 48" fill="none" xmlns="http://www.w3.org/2000/svg">
<path fill-rule="evenodd" clip-rule="evenodd" d="M10.3815 8.625C10.3 8.625 10.2207 8.65155 10.1556 8.70062C10.0906 8.74969 10.0433 8.81862 10.0209 8.89698L7.74146 16.875H18.25H30.25H40.7586L38.4791 8.89698C38.4567 8.81862 38.4094 8.74969 38.3444 8.70062C38.2793 8.65155 38.2 8.625 38.1186 8.625H10.3815ZM31.375 19.125V21C31.375 22.2929 31.8886 23.5329 32.8029 24.4471C33.7171 25.3614 34.9571 25.875 36.25 25.875C37.053 25.875 37.8355 25.6769 38.5323 25.3078C38.628 25.2283 38.7372 25.1645 38.8559 25.1201C39.158 24.929 39.4404 24.7039 39.6971 24.4471C40.6114 23.5329 41.125 22.2929 41.125 21V19.125H31.375ZM43.3247 17.6664L40.6426 8.27886C40.4858 7.73037 40.1547 7.24785 39.6993 6.90434C39.2439 6.56082 38.689 6.375 38.1186 6.375H10.3815C9.81102 6.375 9.25611 6.56082 8.8007 6.90434C8.34529 7.24785 8.01417 7.73037 7.85746 8.27886L5.17555 17.6656C5.143 17.7702 5.12533 17.8815 5.125 17.9968L5.125 18V21C5.125 22.8897 5.87567 24.7019 7.21186 26.0381C7.49599 26.3223 7.80165 26.5799 8.125 26.8095V39.001C8.125 39.6972 8.40156 40.3649 8.89385 40.8572C9.38613 41.3495 10.0538 41.626 10.75 41.626H37.75C38.4462 41.626 39.1139 41.3495 39.6062 40.8572C40.0984 40.3649 40.375 39.6972 40.375 39.001V26.8095C40.6983 26.5799 41.004 26.3223 41.2881 26.0381C42.6243 24.7019 43.375 22.8897 43.375 21V18.0064M43.375 18C43.375 17.9829 43.3746 17.9658 43.3738 17.9487C43.3695 17.8508 43.3526 17.7562 43.3247 17.6664M38.125 27.8739C37.5191 28.0392 36.889 28.125 36.25 28.125C34.3603 28.125 32.5481 27.3743 31.2119 26.0381C30.8463 25.6726 30.5245 25.2713 30.25 24.8427C29.9755 25.2713 29.6537 25.6726 29.2881 26.0381C27.9519 27.3743 26.1397 28.125 24.25 28.125C22.3603 28.125 20.5481 27.3743 19.2119 26.0381C18.8463 25.6726 18.5245 25.2713 18.25 24.8427C17.9755 25.2713 17.6537 25.6726 17.2881 26.0381C15.9519 27.3743 14.1397 28.125 12.25 28.125C11.611 28.125 10.9809 28.0392 10.375 27.8739V39.001C10.375 39.1005 10.4145 39.1959 10.4848 39.2662C10.5552 39.3365 10.6505 39.376 10.75 39.376H37.75C37.8495 39.376 37.9448 39.3365 38.0152 39.2662C38.0855 39.1959 38.125 39.1005 38.125 39.001V27.8739ZM29.125 21V19.125H19.375V21C19.375 22.2929 19.8886 23.5329 20.8029 24.4471C21.7171 25.3614 22.9571 25.875 24.25 25.875C25.5429 25.875 26.7829 25.3614 27.6971 24.4471C28.6114 23.5329 29.125 22.2929 29.125 21ZM17.125 19.125V21C17.125 22.2929 16.6114 23.5329 15.6971 24.4471C14.7829 25.3614 13.5429 25.875 12.25 25.875C11.4474 25.875 10.6652 25.6771 9.96871 25.3083C9.87239 25.2282 9.7625 25.1639 9.64299 25.1194C9.34134 24.9285 9.05928 24.7036 8.80285 24.4471C7.88861 23.5329 7.375 22.2929 7.375 21V19.125H17.125Z" fill="#EE008F"/>
</svg>
