<svg width="24" height="24" viewBox="0 0 24 24" fill="none" xmlns="http://www.w3.org/2000/svg">
<path fill-rule="evenodd" clip-rule="evenodd" d="M11.9023 5.8769C11.8615 5.85845 11.8154 5.8552 11.7725 5.86772L7.12789 7.22178L4.4653 12.3208L9.221 16.0396C9.24169 16.0557 9.26555 16.0674 9.29103 16.0738L14.7245 17.4321C14.7559 17.44 14.7888 17.4396 14.82 17.4309C14.8512 17.4223 14.8797 17.4057 14.9025 17.3828L17.8868 14.3986L14.6302 12.0301L13.7625 12.6808C13.1459 13.1433 12.3959 13.3933 11.625 13.3933C10.8542 13.3933 10.1042 13.1433 9.48754 12.6808L8.97935 12.2997C8.82891 12.1869 8.70447 12.043 8.61447 11.8779C8.52446 11.7128 8.47098 11.5303 8.45765 11.3427C8.44432 11.1552 8.47145 10.9669 8.5372 10.7907C8.60296 10.6146 8.7058 10.4546 8.83877 10.3216L12.5076 6.65275C12.6295 6.53087 12.7742 6.43419 12.9334 6.36823C12.9431 6.36425 12.9527 6.36037 12.9624 6.35662L11.9023 5.8769ZM11.4576 4.78768L6.82408 6.13852L4.66062 5.05679L4.40986 5.55831L4.66062 5.05678C4.35285 4.9029 3.99695 4.87603 3.66956 4.98198C3.34218 5.08792 3.06949 5.31819 2.91022 5.62321L2.91022 5.62321L0.604632 10.0386C0.523953 10.1931 0.474857 10.3621 0.460209 10.5358C0.445562 10.7095 0.465656 10.8843 0.519319 11.0502C0.572982 11.216 0.659139 11.3695 0.772763 11.5017C0.886387 11.6338 1.0252 11.7421 1.1811 11.82L3.44812 12.9535L8.52801 16.9258C8.67283 17.039 8.83983 17.1206 9.01818 17.1652L14.4516 18.5235C14.6715 18.5785 14.9019 18.5756 15.1203 18.5151C15.3387 18.4546 15.5378 18.3386 15.698 18.1783L19.1401 14.7362C19.1546 14.7223 19.1684 14.7075 19.1815 14.6917L20.6036 13.0281L22.8188 11.9205C22.9747 11.8425 23.1135 11.7343 23.2272 11.6021C23.3408 11.47 23.427 11.3165 23.4806 11.1506C23.5343 10.9848 23.5544 10.8099 23.5397 10.6362C23.5251 10.4626 23.476 10.2935 23.3953 10.139L21.0897 5.72368C20.9304 5.41867 20.6578 5.18839 20.3304 5.08245C20.003 4.97651 19.6471 5.00338 19.3393 5.15727L17.1172 6.26833H15.4963L12.366 4.85195C12.0806 4.72279 11.7584 4.7 11.4576 4.78768ZM15.3872 7.39333C15.3788 7.39351 15.3704 7.39351 15.3621 7.39333H13.4357C13.4111 7.39333 13.3867 7.39818 13.3639 7.4076C13.3412 7.41702 13.3205 7.43083 13.3031 7.44824L9.63426 11.1171C9.61527 11.1361 9.60058 11.1589 9.59118 11.1841C9.58179 11.2093 9.57791 11.2362 9.57982 11.263C9.58172 11.2898 9.58936 11.3158 9.60222 11.3394C9.61508 11.363 9.63286 11.3836 9.65435 11.3997L10.1625 11.7808C10.5845 12.0973 11.0976 12.2683 11.625 12.2683C12.1524 12.2683 12.6656 12.0973 13.0875 11.7808L14.2875 10.8808C14.4851 10.7327 14.7562 10.7307 14.9559 10.8759L18.6603 13.5701L19.5755 12.4995L16.9092 7.39333H15.3872ZM4.01593 6.05233C4.0627 6.03719 4.11354 6.04103 4.15751 6.06302L5.98634 6.97743L3.50715 11.7252L1.68421 10.8138C1.66194 10.8026 1.64211 10.7872 1.62588 10.7683C1.60965 10.7494 1.59734 10.7275 1.58967 10.7038C1.58201 10.6801 1.57914 10.6551 1.58123 10.6303C1.58332 10.6055 1.59034 10.5814 1.60186 10.5593L3.90745 6.14394L3.90745 6.14393C3.9302 6.10036 3.96916 6.06746 4.01593 6.05233ZM19.8424 6.1635C19.8864 6.14151 19.9372 6.13767 19.984 6.15281C20.0308 6.16794 20.0697 6.20084 20.0925 6.24441L22.3981 10.6598C22.4096 10.6818 22.4166 10.706 22.4187 10.7308C22.4208 10.7556 22.4179 10.7806 22.4103 10.8043C22.4026 10.828 22.3903 10.8499 22.3741 10.8688C22.3578 10.8877 22.338 10.9031 22.3157 10.9142L20.4928 11.8257L18.0136 7.07791L19.8424 6.1635ZM5.61903 16.8255C5.38456 16.6217 5.02928 16.6466 4.82547 16.881C4.62167 17.1155 4.64652 17.4708 4.88099 17.6746L6.99529 19.5124C7.15139 19.6481 7.33735 19.745 7.53801 19.7951L10.3636 20.5015C10.665 20.5769 10.9704 20.3936 11.0457 20.0923C11.1211 19.7909 10.9378 19.4855 10.6364 19.4101L7.81086 18.7037L7.67444 19.2494L7.81086 18.7037C7.7822 18.6966 7.75563 18.6827 7.73333 18.6633L5.61903 16.8255Z" fill="#5C6B70"/>
</svg>
