<svg width="49" height="48" viewBox="0 0 49 48" fill="none" xmlns="http://www.w3.org/2000/svg">
<path fill-rule="evenodd" clip-rule="evenodd" d="M7.375 10.5C7.375 10.2929 7.54289 10.125 7.75 10.125H40.75C40.9571 10.125 41.125 10.2929 41.125 10.5V37.5C41.125 37.7071 40.9571 37.875 40.75 37.875H7.75C7.54289 37.875 7.375 37.7071 7.375 37.5V10.5ZM7.75 7.875C6.30025 7.875 5.125 9.05025 5.125 10.5V37.5C5.125 38.9497 6.30025 40.125 7.75 40.125H40.75C42.1997 40.125 43.375 38.9497 43.375 37.5V10.5C43.375 9.05025 42.1997 7.875 40.75 7.875H7.75ZM17.875 16.5C17.875 15.8787 17.3713 15.375 16.75 15.375C16.1287 15.375 15.625 15.8787 15.625 16.5C15.625 18.7875 16.5337 20.9813 18.1512 22.5988C19.7687 24.2163 21.9625 25.125 24.25 25.125C26.5375 25.125 28.7313 24.2163 30.3488 22.5988C31.9663 20.9813 32.875 18.7875 32.875 16.5C32.875 15.8787 32.3713 15.375 31.75 15.375C31.1287 15.375 30.625 15.8787 30.625 16.5C30.625 18.1908 29.9534 19.8123 28.7578 21.0078C27.5623 22.2034 25.9408 22.875 24.25 22.875C22.5592 22.875 20.9377 22.2034 19.7422 21.0078C18.5466 19.8123 17.875 18.1908 17.875 16.5Z" fill="#EE008F"/>
</svg>
