<svg width="24" height="24" viewBox="0 0 24 24" fill="none" xmlns="http://www.w3.org/2000/svg">
<path fill-rule="evenodd" clip-rule="evenodd" d="M10.7782 11.6199C10.9881 11.8489 10.9727 12.2047 10.7437 12.4147L3.6113 18.9527C3.3823 19.1626 3.02648 19.1471 2.81656 18.9181C2.60663 18.6891 2.6221 18.3333 2.85111 18.1234L9.98348 11.5854C10.2125 11.3754 10.5683 11.3909 10.7782 11.6199Z" fill="#00B0F1"/>
<path fill-rule="evenodd" clip-rule="evenodd" d="M13.2216 11.6199C13.4315 11.3909 13.7873 11.3754 14.0163 11.5854L21.1488 18.1234C21.3778 18.3334 21.3933 18.6892 21.1834 18.9182C20.9735 19.1472 20.6176 19.1627 20.3886 18.9527L13.2561 12.4147C13.0271 12.2047 13.0117 11.8489 13.2216 11.6199Z" fill="#00B0F1"/>
<path fill-rule="evenodd" clip-rule="evenodd" d="M2.58535 4.86991C2.79527 4.6409 3.15109 4.62543 3.3801 4.83535L12 12.7369L20.6199 4.83535C20.8489 4.62543 21.2047 4.6409 21.4147 4.86991C21.6246 5.09891 21.6091 5.45473 21.3801 5.66465L12.3801 13.9147C12.165 14.1118 11.835 14.1118 11.6199 13.9147L2.61991 5.66465C2.3909 5.45473 2.37543 5.09891 2.58535 4.86991Z" fill="#00B0F1"/>
<path fill-rule="evenodd" clip-rule="evenodd" d="M2.4375 5.25C2.4375 4.93934 2.68934 4.6875 3 4.6875H21C21.3107 4.6875 21.5625 4.93934 21.5625 5.25V18C21.5625 18.3481 21.4242 18.6819 21.1781 18.9281C20.9319 19.1742 20.5981 19.3125 20.25 19.3125H3.75C3.4019 19.3125 3.06806 19.1742 2.82192 18.9281C2.57578 18.6819 2.4375 18.3481 2.4375 18V5.25ZM3.5625 5.8125V18C3.5625 18.0497 3.58225 18.0974 3.61742 18.1326C3.65258 18.1677 3.70027 18.1875 3.75 18.1875H20.25C20.2997 18.1875 20.3474 18.1677 20.3826 18.1326C20.4177 18.0974 20.4375 18.0497 20.4375 18V5.8125H3.5625Z" fill="#00B0F1"/>
</svg>
