<svg width="49" height="48" viewBox="0 0 49 48" fill="none" xmlns="http://www.w3.org/2000/svg">
<path fill-rule="evenodd" clip-rule="evenodd" d="M23.4631 3.18282C23.856 2.9618 24.2992 2.8457 24.75 2.8457C25.2008 2.8457 25.644 2.9618 26.0369 3.18282L42.5369 12.4641C42.9429 12.6924 43.2808 13.0247 43.5159 13.4267C43.7511 13.8288 43.875 14.2862 43.875 14.752V33.2474C43.875 33.7132 43.7511 34.1706 43.5159 34.5726C43.2808 34.9747 42.9429 35.3069 42.5369 35.5353L26.0369 44.8165C25.644 45.0376 25.2008 45.1537 24.75 45.1537C24.2992 45.1537 23.856 45.0376 23.4631 44.8165L6.96306 35.5353C6.55711 35.3069 6.21922 34.9747 5.98407 34.5726C5.74893 34.1706 5.625 33.7132 5.625 33.2474V14.752C5.625 14.2862 5.74893 13.8288 5.98408 13.4267C6.21922 13.0247 6.55711 12.6924 6.96306 12.4641L23.4631 3.18282ZM24.75 5.0957C24.6856 5.0957 24.6223 5.11229 24.5662 5.14386L8.06615 14.4251C8.00816 14.4577 7.95989 14.5052 7.9263 14.5626C7.8927 14.6201 7.875 14.6854 7.875 14.752V33.2474C7.875 33.3139 7.89271 33.3793 7.9263 33.4367C7.95989 33.4942 8.00816 33.5416 8.06615 33.5743L24.5662 42.8555C24.6223 42.8871 24.6856 42.9037 24.75 42.9037C24.8144 42.9037 24.8777 42.8871 24.9338 42.8555L41.4338 33.5743C41.4918 33.5416 41.5401 33.4942 41.5737 33.4367C41.6073 33.3793 41.625 33.3139 41.625 33.2474V14.752C41.625 14.6854 41.6073 14.6201 41.5737 14.5626C41.5401 14.5052 41.4918 14.4577 41.4338 14.4251L24.9338 5.14386C24.8777 5.11229 24.8144 5.0957 24.75 5.0957Z" fill="#EE008F"/>
<path fill-rule="evenodd" clip-rule="evenodd" d="M24.9415 23.9838C25.2461 24.5253 25.0541 25.2113 24.5126 25.5159L23.9626 25.8253C23.421 26.1299 22.7351 25.9378 22.4305 25.3963C22.1259 24.8547 22.3179 24.1688 22.8595 23.8642L23.4095 23.5548C23.951 23.2502 24.6369 23.4423 24.9415 23.9838ZM19.9915 26.7682C20.2961 27.3097 20.1041 27.9956 19.5626 28.3003L18.4626 28.919C17.921 29.2236 17.2351 29.0316 16.9305 28.49C16.6259 27.9485 16.8179 27.2626 17.3595 26.958L18.4595 26.3392C19.001 26.0346 19.6869 26.2267 19.9915 26.7682ZM14.4915 29.8619C14.7961 30.4035 14.6041 31.0894 14.0626 31.394L12.9626 32.0128C12.421 32.3174 11.7351 32.1253 11.4305 31.5838C11.1259 31.0422 11.3179 30.3563 11.8595 30.0517L12.9595 29.433C13.501 29.1283 14.1869 29.3204 14.4915 29.8619ZM8.99154 32.9557C9.29615 33.4972 9.10409 34.1831 8.56256 34.4878L8.01256 34.7971C7.47103 35.1017 6.7851 34.9097 6.48049 34.3681C6.17588 33.8266 6.36794 33.1407 6.90947 32.8361L7.45947 32.5267C8.001 32.2221 8.68693 32.4142 8.99154 32.9557Z" fill="#EE008F"/>
<path fill-rule="evenodd" clip-rule="evenodd" d="M24.6442 23.9838C24.9488 23.4423 25.6347 23.2502 26.1763 23.5548L26.7263 23.8642C27.2678 24.1688 27.4598 24.8547 27.1552 25.3963C26.8506 25.9378 26.1647 26.1299 25.6232 25.8253L25.0732 25.5159C24.5316 25.2113 24.3396 24.5253 24.6442 23.9838ZM29.5942 26.7682C29.8988 26.2267 30.5847 26.0346 31.1263 26.3392L32.2263 26.958C32.7678 27.2626 32.9598 27.9485 32.6552 28.49C32.3506 29.0316 31.6647 29.2236 31.1232 28.919L30.0232 28.3003C29.4816 27.9956 29.2896 27.3097 29.5942 26.7682ZM35.0942 29.8619C35.3988 29.3204 36.0847 29.1283 36.6263 29.433L37.7263 30.0517C38.2678 30.3563 38.4598 31.0422 38.1552 31.5838C37.8506 32.1253 37.1647 32.3174 36.6232 32.0128L35.5232 31.394C34.9816 31.0894 34.7896 30.4035 35.0942 29.8619ZM40.5942 32.9557C40.8988 32.4142 41.5847 32.2221 42.1262 32.5267L42.6763 32.8361C43.2178 33.1407 43.4098 33.8266 43.1052 34.3681C42.8006 34.9097 42.1147 35.1017 41.5732 34.7971L41.0232 34.4878C40.4816 34.1831 40.2896 33.4972 40.5942 32.9557Z" fill="#EE008F"/>
<path fill-rule="evenodd" clip-rule="evenodd" d="M5.97465 13.443C6.27699 12.9002 6.96211 12.7053 7.50491 13.0076L24.9222 22.709L41.9872 13.014C42.5274 12.707 43.2142 12.8962 43.5211 13.4364C43.828 13.9766 43.6389 14.6634 43.0986 14.9703L25.4834 24.9779C25.1417 25.172 24.7235 25.1738 24.3802 24.9826L6.41005 14.9733C5.86725 14.6709 5.67232 13.9858 5.97465 13.443Z" fill="#EE008F"/>
<path fill-rule="evenodd" clip-rule="evenodd" d="M24.9377 22.875C25.559 22.8805 26.0583 23.3886 26.0528 24.0099L25.8768 44.0389C25.8713 44.6602 25.3632 45.1594 24.7419 45.154C24.1206 45.1485 23.6214 44.6404 23.6269 44.0191L23.8029 23.9901C23.8084 23.3688 24.3164 22.8696 24.9377 22.875Z" fill="#EE008F"/>
<path fill-rule="evenodd" clip-rule="evenodd" d="M24.9306 4.875C25.5519 4.87508 26.0555 5.37882 26.0554 6.00014L26.0553 6.66777C26.0553 7.28909 25.5515 7.79271 24.9302 7.79263C24.3089 7.79256 23.8053 7.28882 23.8053 6.6675L23.8054 5.99986C23.8055 5.37854 24.3092 4.87492 24.9306 4.875ZM24.9298 10.8837C25.5511 10.8838 26.0548 11.3875 26.0547 12.0088L26.0545 13.3441C26.0544 13.9654 25.5507 14.469 24.9294 14.469C24.3081 14.4689 23.8044 13.9651 23.8045 13.3438L23.8047 12.0086C23.8048 11.3872 24.3085 10.8836 24.9298 10.8837ZM24.929 17.56C25.5503 17.5601 26.0539 18.0638 26.0539 18.6852L26.0537 20.0204C26.0536 20.6418 25.5499 21.1454 24.9286 21.1453C24.3073 21.1452 23.8036 20.6415 23.8037 20.0202L23.8039 18.6849C23.8039 18.0636 24.3077 17.56 24.929 17.56ZM24.9282 24.2364C25.5495 24.2364 26.0531 24.7402 26.0531 25.3615L26.053 26.0291C26.0529 26.6505 25.5492 27.1541 24.9278 27.154C24.3065 27.1539 23.8029 26.6502 23.803 26.0289L23.8031 25.3612C23.8031 24.7399 24.3069 24.2363 24.9282 24.2364Z" fill="#EE008F"/>
</svg>
