<svg width="24" height="24" viewBox="0 0 24 24" fill="none" xmlns="http://www.w3.org/2000/svg">
<path fill-rule="evenodd" clip-rule="evenodd" d="M12.0272 1.90593C11.8204 1.84331 11.6014 1.83272 11.3895 1.8751L3.82814 3.38737C3.60547 3.4319 3.43142 3.60596 3.38688 3.82863L1.87461 11.39C1.83223 11.6019 1.84282 11.8209 1.90544 12.0277C1.96805 12.2345 2.08076 12.4227 2.23354 12.5755L12.026 22.3679C12.1479 22.4898 12.2926 22.5865 12.4518 22.6524C12.611 22.7184 12.7817 22.7523 12.9541 22.7523C13.1264 22.7523 13.2971 22.7184 13.4563 22.6524C13.6156 22.5865 13.7603 22.4898 13.8821 22.3679L22.3674 13.8826C22.4893 13.7608 22.586 13.6161 22.6519 13.4568C22.7179 13.2976 22.7519 13.1269 22.7519 12.9546C22.7519 12.7822 22.7179 12.6115 22.6519 12.4523C22.586 12.293 22.4893 12.1484 22.3674 12.0265L12.575 2.23403C12.4222 2.08125 12.234 1.96854 12.0272 1.90593ZM11.6101 2.97825C11.6404 2.9722 11.6717 2.97371 11.7012 2.98265C11.7308 2.9916 11.7577 3.0077 11.7795 3.02953L12.1736 2.63543L11.7795 3.02953L21.5719 12.822C21.5893 12.8394 21.6032 12.8601 21.6126 12.8828C21.622 12.9056 21.6269 12.9299 21.6269 12.9546C21.6269 12.9792 21.622 13.0036 21.6126 13.0263C21.6032 13.0491 21.5893 13.0697 21.5719 13.0871L13.0867 21.5724C13.0692 21.5898 13.0486 21.6036 13.0258 21.6131C13.0031 21.6225 12.9787 21.6273 12.9541 21.6273C12.9294 21.6273 12.9051 21.6225 12.8823 21.6131C12.8596 21.6036 12.8389 21.5898 12.8215 21.5724L3.02904 11.78L2.63494 12.1741L3.02904 11.78C3.00721 11.7581 2.99111 11.7313 2.98217 11.7017C2.97322 11.6722 2.97171 11.6409 2.97776 11.6106L4.41649 4.41698L11.6101 2.97825ZM8.81244 7.8755C8.81244 8.39326 8.39271 8.813 7.87494 8.813C7.35717 8.813 6.93744 8.39326 6.93744 7.8755C6.93744 7.35773 7.35717 6.938 7.87494 6.938C8.39271 6.938 8.81244 7.35773 8.81244 7.8755Z" fill="#FEF100"/>
</svg>
