<svg width="221" height="55" viewBox="0 0 221 55" fill="none" xmlns="http://www.w3.org/2000/svg">
<g clip-path="url(#clip0_82:4566)">
<path d="M57.6976 1.05859C61.3517 1.06 65.0058 1.05859 68.66 1.06C70.5362 1.07546 72.4294 1.74866 73.8025 3.04448C74.9423 4.10137 75.6675 5.63189 75.6183 7.20036C75.6633 8.62266 75.2163 10.0759 74.2972 11.1735C73.5649 12.0744 72.539 12.6914 71.454 13.0737C72.5882 13.3969 73.6802 14.0238 74.3506 15.0188C74.879 15.7665 75.0786 16.6927 75.087 17.5964C75.0884 19.2632 75.0898 20.9301 75.0856 22.5969C73.5411 22.5941 71.9965 22.5969 70.4519 22.5955C70.4491 21.2575 70.4547 19.9196 70.4505 18.5816C70.4182 17.6259 70.2003 16.607 69.5089 15.9042C68.7766 15.172 67.6987 14.9513 66.7008 14.9064C65.6551 14.8937 64.6109 14.905 63.5653 14.9022C63.5695 13.6583 63.554 12.4159 63.5737 11.1721C65.0803 11.1862 66.587 11.1735 68.0936 11.1792C69.1463 11.1777 70.1624 10.527 70.6093 9.57274C71.2207 8.31628 71.0366 6.5918 69.9277 5.66421C69.2994 5.14982 68.4688 4.95306 67.6705 4.95728C65.8083 4.96149 63.9475 4.95587 62.0867 4.96009C62.0881 9.55025 62.0867 14.1404 62.0867 18.732C60.6237 18.732 59.1592 18.732 57.6962 18.732C57.6962 12.8404 57.6947 6.95019 57.6976 1.05859Z" fill="#A5B1B6"/>
<path d="M113.212 1.05859C114.722 1.06 116.231 1.06 117.742 1.05859C117.742 5.69654 117.743 10.3345 117.742 14.9724C118.901 14.9738 120.061 14.9724 121.222 14.9738C122.705 14.9949 124.04 13.7272 124.182 12.267C124.426 10.728 123.368 9.04851 121.799 8.77304C120.969 8.65499 120.126 8.74493 119.291 8.71823C119.289 7.46458 119.291 6.21233 119.289 4.96009C120.262 4.95587 121.234 4.96149 122.207 4.95728C124.246 4.91512 126.239 5.98184 127.434 7.61918C128.634 9.24386 129.035 11.3928 128.643 13.3604C128.089 15.8185 125.982 17.6877 123.625 18.4017C122.44 18.7882 121.18 18.7727 119.948 18.7657C117.703 18.7657 115.457 18.7657 113.211 18.7657C113.211 12.8629 113.209 6.96143 113.212 1.05859Z" fill="#A5B1B6"/>
<path d="M148.804 1.05965C150.326 1.05824 151.848 1.05824 153.371 1.05965C153.371 3.86912 153.37 6.67999 153.371 9.49087C154.324 9.45714 155.291 9.5752 156.236 9.40092C157.121 9.21821 157.838 8.53658 158.144 7.69753C158.51 6.81913 158.483 5.84938 158.514 4.91757C160.009 4.93303 161.505 4.91898 163.001 4.9246C162.963 6.38064 162.976 7.93505 162.216 9.23227C161.565 10.3651 160.337 10.9919 159.136 11.3784C160.557 11.7775 161.94 12.6348 162.576 14.0164C163.315 15.4808 163.06 17.1547 163.104 18.7316C161.593 18.7316 160.082 18.7316 158.573 18.7316C158.486 17.426 158.841 15.998 158.139 14.809C157.596 13.8266 156.462 13.3319 155.381 13.2617C154.712 13.2336 154.04 13.2588 153.371 13.2504C153.37 15.0775 153.37 16.9046 153.371 18.7302C151.848 18.7316 150.326 18.7316 148.804 18.7302C148.805 12.84 148.804 6.94984 148.804 1.05965Z" fill="#A5B1B6"/>
<path d="M136.621 4.91166C138.86 4.51813 141.273 4.71489 143.303 5.79568C144.852 6.61926 146.063 8.05843 146.561 9.74496C147.173 11.8292 146.925 14.2199 145.657 16.0174C144.589 17.562 142.866 18.5627 141.054 18.9688C138.942 19.4369 136.659 19.2893 134.688 18.3631C132.796 17.4847 131.253 15.7926 130.737 13.7505C130.207 11.6465 130.605 9.27133 131.969 7.55669C133.112 6.12174 134.835 5.23631 136.621 4.91166ZM137.737 8.41541C136.107 8.82299 134.896 10.4631 135.012 12.144C135.078 13.3415 135.767 14.4911 136.804 15.0983C137.833 15.7406 139.181 15.7996 140.269 15.2655C141.942 14.4925 142.818 12.3689 142.115 10.6515C141.5 8.93543 139.49 7.89962 137.737 8.41541Z" fill="#A5B1B6"/>
<path d="M78.2071 8.16776C79.3961 6.25355 81.5703 4.9985 83.8275 4.96196C86.7592 4.95212 89.6896 4.96055 92.6199 4.95774C92.5988 6.30274 92.6635 7.65759 92.589 8.99416C91.6347 10.512 90.6579 12.0173 89.6966 13.5309C88.2405 13.5267 86.7859 13.5379 85.3313 13.5253C86.294 11.9245 87.261 10.3251 88.211 8.71729C87.0361 8.71448 85.8611 8.7201 84.6848 8.71447C83.6223 8.67934 82.5921 9.29492 82.044 10.193C81.3862 11.2358 81.4256 12.6736 82.1564 13.6715C82.7453 14.5288 83.7811 15.0263 84.8141 15.008C87.4156 15.008 90.0184 15.0066 92.6199 15.008C92.6199 16.2603 92.6213 17.5125 92.6199 18.7648C90.114 18.7662 87.6081 18.7648 85.1022 18.7662C84.0734 18.7676 83.0208 18.7774 82.0285 18.4654C80.0651 17.892 78.4151 16.3713 77.659 14.474C76.827 12.4445 77.0266 10.0215 78.2071 8.16776Z" fill="#A5B1B6"/>
<path d="M97.5402 6.29337C98.687 5.43043 100.115 4.97507 101.546 4.95961C104.427 4.9582 107.308 4.95961 110.188 4.95961C110.191 6.30321 110.183 7.64681 110.192 8.9904C109.224 10.5041 108.258 12.0205 107.287 13.5328C105.834 13.5314 104.382 13.5328 102.929 13.5328C103.877 11.9221 104.851 10.327 105.807 8.71915C104.524 8.72197 103.241 8.70932 101.957 8.72337C100.253 8.8611 98.9105 10.6053 99.1944 12.289C99.3813 13.7464 100.694 14.9621 102.17 15.0015C104.854 15.0197 107.538 15.0057 110.221 15.0085C110.226 16.2607 110.221 17.513 110.224 18.7666C107.337 18.7596 104.451 18.7835 101.564 18.7554C99.7875 18.754 98.0166 18.033 96.7742 16.7583C95.2957 15.3233 94.555 13.187 94.7799 11.1449C94.9612 9.23495 95.99 7.42334 97.5402 6.29337Z" fill="#A5B1B6"/>
<path d="M133.444 28.1518C143.324 27.0598 153.238 26.2812 163.156 25.6445C157.793 27.0106 152.411 28.3261 147.099 29.8904C139.639 32.0196 132.364 34.7349 125.18 37.6442C121.42 35.425 117.646 33.2311 113.89 31.0077C120.356 29.74 126.898 28.8981 133.444 28.1518Z" fill="#A5B1B6"/>
<path d="M61.9966 26.25C74.3602 26.2655 86.7253 26.2317 99.0861 26.2669C101.787 27.6259 104.392 29.1761 107.027 30.6589C117.236 36.5238 127.39 42.4856 137.494 48.529C139.922 49.985 142.352 51.4368 144.756 52.935C145.283 53.2808 145.839 53.5858 146.328 53.9863C135.411 49.399 124.591 44.5685 113.521 40.355C104.084 36.743 94.4481 33.6482 84.6536 31.1634C79.2469 29.7762 73.7952 28.5704 68.3211 27.4798C66.2185 27.0455 64.0921 26.711 61.9966 26.25Z" fill="#A5B1B6"/>
<path d="M75.5605 44.3279C80.696 40.9604 86.3669 38.4939 92.1376 36.4434C95.5767 37.3709 98.9568 38.5164 102.345 39.614C97.8395 41.4003 93.5093 43.6715 89.6092 46.5611C87.116 48.436 84.7141 50.4949 82.8168 52.9868C77.2203 52.9896 71.6239 52.9924 66.0288 52.9854C68.6865 49.5856 71.9598 46.6946 75.5605 44.3279Z" fill="#A5B1B6"/>
<path d="M92.6478 49.2006C96.5141 45.6856 101.017 42.9127 105.78 40.7891C108.47 41.7293 111.141 42.7286 113.8 43.7545C111.499 45.3919 109.208 47.0826 107.295 49.1753C106.193 50.3559 105.219 51.6489 104.319 52.9869C99.2561 52.9925 94.1937 52.9855 89.1313 52.9911C90.1517 51.5955 91.3843 50.3727 92.6478 49.2006Z" fill="#A5B1B6"/>
</g>
<defs>
<clipPath id="clip0_82:4566">
<rect width="106.251" height="53.9232" fill="white" transform="translate(57.2744 0.695312)"/>
</clipPath>
</defs>
</svg>
