<svg width="222" height="37" viewBox="0 0 222 37" fill="none" xmlns="http://www.w3.org/2000/svg">
<g clip-path="url(#clip0_82:4619)">
<path d="M70.8674 36.9021C67.8142 36.7808 65.3161 35.9454 63.3629 34.3937C62.9901 34.0972 62.1019 33.2084 61.8039 32.8336C61.0118 31.8376 60.4733 30.8683 60.1141 29.7929C59.0089 26.4824 59.5777 22.1383 61.7411 17.3708C63.5935 13.2891 66.4517 9.24096 71.4383 3.63428C72.1729 2.80928 74.3603 0.396484 74.3745 0.396484C74.3797 0.396484 74.2605 0.602991 74.1104 0.854478C72.8139 3.02625 71.7044 5.58438 71.1001 7.79903C70.1292 11.3526 70.2463 14.4022 71.443 16.7669C72.2685 18.396 73.6838 19.8071 75.2753 20.5871C78.0614 21.9522 82.1404 22.0651 87.1218 20.9175C87.4647 20.8381 104.459 16.3267 124.888 10.892C145.316 5.45682 162.033 1.01341 162.036 1.01706C162.042 1.02177 114.575 21.3332 89.934 31.8705C86.0317 33.5388 84.9881 33.9602 83.1536 34.6043C78.4639 36.2512 74.2631 37.037 70.8674 36.9021Z" fill="#A5B1B6"/>
</g>
<defs>
<clipPath id="clip0_82:4619">
<rect width="102.472" height="36.5205" fill="white" transform="translate(59.564 0.396484)"/>
</clipPath>
</defs>
</svg>
