<svg width="222" height="64" viewBox="0 0 222 64" fill="none" xmlns="http://www.w3.org/2000/svg">
<g clip-path="url(#clip0_82:4612)">
<path d="M120.489 0L117.606 1.49051L105.747 15.0893L107.832 17.5527L105.568 18.7586L95.8528 10.1382L95.8495 10.1441L92.9615 11.7105L92.4065 12.7629L92.4557 10.4021L76.6613 15.4479L76.6617 15.4563L73.7505 17.0183L74.1642 25.465L76.8886 24.7761L77.0586 26.6514C74.7577 26.3245 72.3002 26.6527 69.9668 27.6384C68.9526 28.0805 68.0069 28.6236 67.1355 29.2554C67.7276 26.6354 67.5872 24.0526 66.5889 21.7492C65.4099 19.0274 63.3354 16.7781 60.7917 15.3589C59.0086 14.1709 56.883 13.4309 54.659 13.1791C49.1936 12.2237 42.6308 13.2045 36.1716 15.9564C33.797 16.9694 31.5821 18.1188 29.5843 19.3913L27.0592 20.9928L27.0609 20.9961L24.6719 23.4234L32.3774 36.4306L35.2761 35.1863L47.6781 63.3132L59.4602 59.5124L62.2811 57.6165L62.3603 57.5913L61.6249 54.7529L59.8858 48.0769C60.8113 49.8829 62.1958 51.2097 62.1958 51.2097C63.4478 52.4335 64.9823 53.3241 66.6943 53.8238C69.987 54.7715 73.7033 54.1538 76.8935 52.1195C77.6018 51.6713 78.5222 50.9953 79.2106 50.393L79.6055 54.7472L90.7054 53.1052L93.6699 51.5513L93.6752 51.5506L93.663 44.534L114.057 54.6365L116.955 53.0718L116.94 53.064V43.4745L116.945 43.4981C119.329 43.1431 121.376 42.2606 123.389 41.0509C123.424 41.0302 123.459 41.0067 123.494 40.9855L122.618 46.3119L135.187 48.3234L137.6 47.0231L139.139 49.8655L141.413 48.6154L141.866 52.3623L156.145 54.8945L158.997 53.3254L158.883 53.292L159.007 53.3139L158.456 49.825C159.441 49.7135 160.466 49.5809 161.348 49.2669C161.7 49.1465 162.192 48.9497 162.72 48.7176L162.154 53.7412L171.62 55.1042L171.711 58.9593L181.532 62.0894L184.455 60.5402L184.447 60.5337L184.469 60.5404L197.329 21.7796L183.937 18.5247L183.932 18.5453L181.834 19.6635L181.49 17.9619L165.754 14.4983V14.4976L162.848 16.066L162.945 24.0352C161.309 23.9971 159.622 24.2803 157.984 24.8992C156.833 25.3394 155.765 25.9179 154.796 26.6214L152.422 11.636H142.009L142.007 11.6252L141.987 11.636H141.957L141.954 11.6535L139.078 13.2003L139.051 13.3592H130.654L130.638 13.4543L130.639 13.345L127.781 14.9178L127.185 18.5433C124.627 16.1465 121.292 14.8351 117.657 14.7591L127.009 9.73245L120.488 0.00059383L120.481 0.00868559L120.489 0ZM119.986 4.3225L123.434 9.00683L113.575 13.8942L112.894 12.8596L119.986 4.3225ZM144.714 14.5369H150.044L152.256 28.9136C149.441 32.1199 148.074 36.43 149.015 40.3731C149.742 43.43 151.62 45.8918 154.313 47.3296C154.584 47.4661 154.865 47.6011 155.155 47.7177L155.437 49.5816L147.577 48.3811L145.484 34.5186L142.525 42.1658L138.093 32.6079H138.043L136.292 43.6765L128.906 42.3913L129.945 36.2148C130.224 35.9528 130.498 35.69 130.768 35.4126L133.162 32.9475L130.835 30.8641L133.307 16.1546H140.759L142.624 26.3373L144.714 14.5369ZM96.8901 14.7328L103.801 21.315L94.136 31.4978L103.217 35.0895C104.231 37.0117 105.778 38.6451 107.72 39.8484C109.596 41.0068 111.747 41.6916 114.021 41.9165L114.023 48.4289L90.9209 36.8748L90.9414 42.9758L90.7735 43.1026L90.9421 43.1862L90.9617 48.9806L84.9858 49.7957L84.5693 44.8055C86.4146 41.6416 87.0893 37.9133 86.1263 34.4943C85.5977 32.6151 84.6212 30.9839 83.2943 29.6768L82.4371 19.5025L79.7535 20.1985L79.6351 17.6259L89.2317 14.7683L89.4462 18.3769L89.433 18.4018L89.4475 18.3972L89.8202 24.6661L96.8901 14.7328ZM50.389 15.9145C51.697 15.9171 52.9457 16.0239 54.1207 16.2315C55.7834 16.4185 57.5433 16.9088 59.0849 17.9321C61.2 19.1232 62.8178 20.8186 63.7507 22.9779C66.0259 28.2357 62.2252 35.8022 54.7024 40.4449L58.6357 55.5372L52.2693 57.571L39.2057 28.396C38.4952 28.7696 37.1827 29.3959 35.9775 29.9867L31.247 21.9956C33.1282 20.7942 35.1913 19.7292 37.3858 18.8021C42.0048 16.8376 46.4649 15.9068 50.389 15.9145ZM117.187 17.7506C120.884 17.7066 124.063 19.2187 126.193 21.8317L116.573 32.071C117.225 32.1941 118.262 32.023 119.028 31.8397C120.407 31.5033 121.42 30.9278 122.254 30.2345C122.246 30.2458 122.237 30.2567 122.229 30.2683C122.273 30.2279 122.316 30.1925 122.362 30.1553L122.357 30.1501C122.866 29.7142 123.309 29.2349 123.731 28.7402L127.575 32.1987L128.74 33.2508C128.235 33.773 127.705 34.266 127.168 34.7164C124.951 36.5502 122.424 37.7456 119.085 38.5523C118.355 38.7195 117.64 38.8411 116.94 38.9026C111.641 39.4236 107.195 36.9903 105.508 33.0434C105.298 32.5654 105.136 32.0815 105.013 31.5651C104.233 28.2409 104.899 25.2701 106.541 22.9423C107.014 22.2631 107.575 21.644 108.206 21.0866C109.753 19.7065 111.727 18.7031 113.972 18.1636C115.077 17.8973 116.153 17.7631 117.188 17.7508L117.187 17.7506ZM168.545 18.1435L178.81 20.2066L182.262 36.575L185.802 21.9001L193.611 23.6257L182.612 56.9303L178.037 55.5672L177.14 54.8726L176.674 35.1677L173.927 50.7011L167.969 49.7502L168.396 45.278C172.287 41.9904 174.349 36.8042 173.219 32.1044C172.722 30.0233 171.652 28.2112 170.144 26.8337L170.647 21.5592L168.394 20.9596L168.545 18.1435ZM162.609 26.6479C164.544 26.6169 166.328 27.1615 167.741 28.1775C168.573 28.767 169.263 29.5173 169.807 30.3893C170.22 31.0781 170.54 31.8371 170.734 32.6662C171.427 35.5354 170.602 38.6085 168.792 41.0843C168.017 42.1396 167.072 43.0878 165.982 43.8643C165.167 44.4442 164.271 44.9369 163.307 45.2925C161.405 46.0171 159.513 46.1678 157.827 45.8327C156.652 45.6007 155.581 45.1426 154.649 44.4794C153.166 43.4068 152.074 41.823 151.593 39.8342C151.032 37.4449 151.549 34.8937 152.834 32.6588C153.475 31.5664 154.297 30.5397 155.269 29.6549C156.354 28.6822 157.612 27.8858 159.011 27.3476C160.232 26.892 161.448 26.6664 162.609 26.6479ZM101.809 27.5378C101.681 28.8744 101.747 30.272 102.027 31.6893L98.8139 30.4494L98.8142 30.449L101.809 27.5378ZM75.518 28.8924C77.3402 28.91 79.0299 29.4292 80.4118 30.3681C81.929 31.3971 83.086 32.9443 83.6261 34.8831C83.6941 35.0888 83.7388 35.305 83.7843 35.5164C83.9387 36.2552 84.0009 37.0125 83.9715 37.7589C83.8984 40.006 83.0733 42.2575 81.6919 44.1624C80.3777 46.0045 78.5419 47.5249 76.382 48.4546C70.8589 50.7945 65.3359 48.4545 63.8603 43.2108C62.4308 38.1407 65.7568 32.1052 71.1082 29.7999C72.6034 29.1686 74.1008 28.8787 75.518 28.8924ZM79.1964 50.2348L79.1975 50.2446C79.1824 50.2498 79.1671 50.2553 79.1516 50.2607C79.1664 50.2519 79.1816 50.2436 79.1964 50.2348L79.1964 50.2348Z" fill="#A5B1B6"/>
<path d="M58.7186 28.4855C58.1426 25.3947 54.1009 23.691 50.0938 25.8765L51.1266 29.414L52.7515 34.6417L53.4928 37.0226C56.4991 35.0896 59.5208 32.7669 58.7186 28.4855ZM54.7384 33.2385C54.3008 31.8103 53.341 28.7265 53.341 28.7265C53.3455 28.7406 53.152 28.0665 52.9226 27.2951C53.7722 27.1432 54.5885 27.2047 55.26 27.5277C55.6354 27.7064 56.2954 28.1235 56.4395 28.9142C56.7714 30.6916 56.1724 31.9602 54.7384 33.2385Z" fill="#A5B1B6"/>
<path d="M119.354 23.5826C117.114 21.5278 113.632 21.6873 111.589 23.9254C109.534 26.1596 109.695 29.6433 111.938 31.6898C112.121 31.866 112.318 32.0102 112.517 32.1517L119.742 23.969C119.615 23.8357 119.487 23.7031 119.354 23.5826ZM112.532 29.3383C111.825 28.0408 111.968 26.3935 113.024 25.2389C114.041 24.1317 115.597 23.8165 116.925 24.3284L112.532 29.3383Z" fill="#A5B1B6"/>
<path d="M166.112 30.9442C166.173 31.187 166.204 31.4273 166.197 31.683C166.13 33.2117 164.693 34.392 162.979 34.3119C161.267 34.253 159.923 32.9535 159.99 31.4286C160.048 29.9991 161.321 28.8676 162.894 28.7952C162.596 28.7279 162.284 28.6927 161.958 28.6811C159.092 28.5575 156.75 30.5873 156.651 33.1144C156.541 35.817 158.707 38.0204 161.528 38.1428C164.397 38.2575 166.739 36.2206 166.853 33.5308C166.886 32.5986 166.611 31.7048 166.112 30.9442Z" fill="#A5B1B6"/>
<path d="M79.1681 34.0306C79.1681 35.5658 77.7719 36.796 76.0618 36.796C74.3472 36.796 72.9562 35.5651 72.9562 34.0306C72.9562 32.5998 74.18 31.4202 75.7485 31.2831C75.448 31.2286 75.1353 31.1973 74.8124 31.1973C71.947 31.1973 69.6865 33.3226 69.6865 35.8535C69.6865 38.5541 71.9477 40.6724 74.7662 40.6724C77.6341 40.6724 79.8927 38.5529 79.8927 35.8535C79.8927 34.9186 79.5839 34.0376 79.0527 33.3123C79.1245 33.5308 79.1681 33.773 79.1681 34.0306Z" fill="#A5B1B6"/>
</g>
<defs>
<clipPath id="clip0_82:4612">
<rect width="172.657" height="63.3132" fill="white" transform="translate(24.6719)"/>
</clipPath>
</defs>
</svg>
