<svg width="222" height="57" viewBox="0 0 222 57" fill="none" xmlns="http://www.w3.org/2000/svg">
<g clip-path="url(#clip0_82:4579)">
<path d="M146.052 56.5176C142.202 56.5176 139.918 54.5471 139.743 51.7089H143.425C143.425 52.6549 143.949 53.9144 146.227 53.9927C147.806 53.9927 148.68 53.0466 148.68 52.3356C148.505 51.2328 147.101 51.1545 145.703 50.9134C144.124 50.6844 142.901 50.3651 142.021 49.9734C140.798 49.3407 140.093 47.9969 140.093 46.5808C140.093 44.0559 142.202 42.0854 145.878 42.0854C149.385 42.0854 151.663 43.8992 151.831 46.6591H148.33C148.33 45.9541 148.155 44.7669 146.052 44.7669C144.648 44.7669 143.775 45.002 143.6 46.0264C143.6 47.4485 146.577 47.3702 148.854 47.9185C150.957 48.4729 152.362 49.8107 152.362 51.7089C152.362 55.1798 149.559 56.5176 146.052 56.5176Z" fill="#A5B1B6"/>
<path d="M78.9604 33.2303L91.0485 26.2101L97.5325 37.334H81.2383" fill="#A5B1B6"/>
<path d="M104.379 56.0996V42.0591V56.0996Z" fill="#A5B1B6"/>
<path d="M104.379 56.0996V42.0591" stroke="#A5B1B6" stroke-width="3.53722"/>
<path d="M73.3498 49.2877C73.3498 51.4932 75.2781 53.307 77.3751 53.307C79.659 53.307 81.4065 51.4932 81.4065 49.2877C81.4065 47.1605 79.659 45.2684 77.3751 45.2684C75.2781 45.2684 73.3498 47.1605 73.3498 49.2877ZM77.2004 56.543C73.3498 56.543 70.0234 53.307 70.0234 49.2877C70.0234 45.2684 73.3498 42.1108 77.2004 42.1108C78.7792 42.1108 80.1832 42.5085 81.4065 43.3702V42.2675H84.9136V56.2236H81.4065V55.3559C80.358 56.1453 78.7792 56.543 77.2004 56.543Z" fill="#A5B1B6"/>
<path d="M123.987 37.332L107.169 7.99786L119.257 0.899323L140.281 37.332" fill="#A5B1B6"/>
<path d="M89.4689 49.2877C89.4689 51.4932 91.2225 53.307 93.5003 53.307C95.5973 53.307 97.5317 51.4932 97.5317 49.2877C97.5317 47.1605 95.5973 45.2684 93.5003 45.2684C91.2225 45.2684 89.4689 47.1605 89.4689 49.2877ZM93.3255 56.543C89.2942 56.543 86.1426 53.307 86.1426 49.2877C86.1426 45.2684 89.2942 42.1108 93.3255 42.1108C94.8983 42.1108 96.3024 42.5085 97.5317 43.3702V37.4587H101.033V56.2236H97.5317V55.3559C96.3024 56.1453 94.8983 56.543 93.3255 56.543Z" fill="#A5B1B6"/>
<path d="M93.1528 20.6921L105.416 13.7563L118.908 37.3298H106.115V40.8008H102.614V37.3298" fill="#A5B1B6"/>
<path d="M150.089 40.9121C149.21 40.9121 148.336 40.1227 148.336 39.1766C148.336 38.2306 149.21 37.4412 150.089 37.4412C151.138 37.4412 151.843 38.2306 151.843 39.1766C151.843 40.1227 151.138 40.9121 150.089 40.9121ZM150.089 37.6822C149.21 37.6822 148.685 38.3872 148.685 39.1766C148.685 39.966 149.21 40.6771 150.089 40.6771C150.963 40.6771 151.488 39.966 151.488 39.1766C151.488 38.3872 150.963 37.6822 150.089 37.6822Z" fill="#A5B1B6"/>
<path d="M150.451 40.1289L150.101 39.3395H149.752V40.1289H149.487V38.2368H150.276C150.451 38.2368 150.8 38.4778 150.8 38.7911C150.8 39.1045 150.626 39.2612 150.451 39.3395L150.8 40.1289H150.451ZM150.101 38.4778H149.752V39.1045H150.101C150.451 39.1045 150.451 39.0262 150.451 38.7911C150.451 38.6284 150.451 38.4778 150.101 38.4778Z" fill="#A5B1B6"/>
<path d="M126.95 49.2877C126.95 51.4932 128.704 53.307 130.982 53.307C133.085 53.307 135.007 51.4932 135.007 49.2877C135.007 47.1605 133.085 45.2684 130.982 45.2684C128.704 45.2684 126.95 47.1605 126.95 49.2877ZM130.801 56.543C126.776 56.543 123.624 53.307 123.624 49.2877C123.624 45.2684 126.776 42.1108 130.801 42.1108C132.38 42.1108 133.784 42.5085 135.007 43.3702V42.2675H138.339V56.2236H135.007V55.3559C133.784 56.1453 132.38 56.543 130.801 56.543Z" fill="#A5B1B6"/>
<path d="M110.843 49.2877C110.843 51.4932 112.771 53.307 114.874 53.307C117.152 53.307 118.906 51.4932 118.906 49.2877C118.906 47.1605 117.152 45.2684 114.874 45.2684C112.771 45.2684 110.843 47.1605 110.843 49.2877ZM118.906 37.4587H122.407V56.2236H118.906V55.3559C117.851 56.1453 116.447 56.543 114.874 56.543C110.843 56.543 107.517 53.307 107.517 49.2877C107.517 45.2684 110.843 42.1108 114.874 42.1108C116.447 42.1108 117.851 42.5085 118.906 43.3702V37.4587Z" fill="#A5B1B6"/>
</g>
<defs>
<clipPath id="clip0_82:4579">
<rect width="82.8896" height="56.0658" fill="white" transform="translate(69.7549 0.623047)"/>
</clipPath>
</defs>
</svg>
