<svg width="221" height="36" viewBox="0 0 221 36" fill="none" xmlns="http://www.w3.org/2000/svg">
<g clip-path="url(#clip0_82:4622)">
<path fill-rule="evenodd" clip-rule="evenodd" d="M196.625 28.6021C193.878 28.5749 186.404 27.9143 182.312 27.8718C180.054 27.8485 177.797 27.9792 175.557 28.2631C175.891 28.71 176.244 29.1406 176.619 29.5516C177.944 29.5646 181.681 29.7216 188.621 30.9011C194.391 31.8799 197.603 32.0358 199.16 32.0205C200.734 30.905 202.109 29.5323 203.228 27.9601C201.654 28.2424 198.727 28.6239 196.625 28.6021ZM188.432 31.3447C182.247 30.2437 178.611 29.9734 176.957 29.9146C178.552 31.575 180.466 32.8957 182.584 33.797C184.702 34.6982 186.981 35.1615 189.283 35.1588C192.625 35.1588 195.742 34.2007 198.378 32.5427C196.657 32.5002 193.549 32.256 188.432 31.3447Z" fill="#A5B1B6"/>
<path fill-rule="evenodd" clip-rule="evenodd" d="M190.778 27.8462L190.778 27.8462L190.778 27.8462C193.193 27.9762 195.39 28.0945 196.627 28.0945C198.955 28.0945 202.284 27.592 203.677 27.2966C205.452 24.54 206.394 21.3295 206.389 18.0507C206.389 16.5181 206.186 15.0323 205.808 13.6185L196.643 15.9578L197.628 14.0949C199.795 13.7548 202.559 13.0615 205.154 11.6608C204.955 11.1692 204.735 10.6869 204.492 10.2154C202.267 11.3207 200.288 11.8286 198.716 12.039L200.146 9.33349L203.845 9.07515C203.521 8.55192 203.172 8.04722 202.795 7.56324H198.522L200.204 4.88606C199.855 4.59719 199.495 4.3214 199.125 4.05979L195.689 8.84406L194.688 6.86124L194.854 6.16034L198.111 3.39812C197.756 3.18338 197.392 2.98172 197.021 2.79205L193.57 4.64515L191.796 1.12972C191.283 1.0541 190.767 1.00172 190.248 0.972744L192.133 5.81696L191.582 6.31512L188.792 0.953125C188.629 0.957485 188.466 0.965112 188.303 0.974923L186.165 5.47687L183.947 1.79683C183.227 2.03338 182.527 2.3146 181.852 2.64053L181.749 5.60767L178.59 4.70074C177.936 5.22397 177.324 5.79516 176.752 6.40778L180.57 11.0907L179.505 11.1681L176.077 7.17736C175.661 7.68206 175.274 8.21074 174.917 8.76122L177.046 11.3457L173.433 11.6084C172.6 13.6546 172.173 15.8435 172.175 18.0529C172.17 21.6215 173.285 25.1017 175.365 28.0018C176.171 27.8776 178.892 27.5113 182.307 27.5113C184.557 27.5113 187.83 27.6875 190.778 27.8462ZM197.282 9.53198L198.213 9.46657L196.589 12.1667C196.279 12.1617 195.969 12.1435 195.66 12.1121L197.282 9.53198ZM195.267 14.3631L193.883 16.661L192.594 16.9902L194.212 14.4144C194.479 14.4078 194.834 14.3936 195.267 14.3631ZM193.653 9.72492L194.145 10.9916L191.347 14.8863L191.233 11.4091L193.653 9.72492ZM191.036 19.0166L196.634 17.6246L197.426 18.7822L198.908 18.7059L198.521 17.1548L200.707 16.6097C201.089 17.1548 202.079 18.4672 203.115 19.0166L204.284 18.4715C204.284 18.4715 203.2 17.133 202.879 16.0691L204.757 15.6025C204.887 16.4157 204.955 17.2496 204.955 18.0987C204.955 21.2599 204.017 24.2053 202.4 26.6633C198.753 26.5718 195.094 26.1248 191.438 25.6027C190.668 22.338 191.036 19.0166 191.036 19.0166ZM189.357 12.4326L189.388 14.0743L188.62 14.0296L188.352 12.8839L189.357 12.4326ZM179.754 12.7575L182.229 12.6757L183.087 13.406L180.67 15.354L178.364 14.4819L179.754 12.7575ZM177.04 12.8468L176.383 13.7331L174.281 12.9384L177.04 12.8468ZM174.547 14.6117L175.42 15.0291L174.214 16.6566C174.279 15.9611 174.391 15.2788 174.547 14.6117ZM174.147 17.9712L174.962 18.0028H175.529L177.229 15.8947L179.192 16.8343L178.255 18.1325L180.461 18.2176L184.646 14.7294L185.705 15.9099L181.49 18.2579L185.001 18.3942L187.181 17.5559L187.99 18.4596L187.784 25.0675C183.579 24.4483 179.387 23.863 175.231 23.7409C174.512 21.946 174.143 20.0301 174.145 18.0966C174.144 18.0725 174.145 18.0477 174.146 18.0225C174.146 18.0055 174.147 17.9884 174.147 17.9712ZM183.563 7.94594L185.035 8.41794L183.71 10.6787L183.563 7.94594ZM185.135 12.5831L185.926 10.7572L186.361 13.7952L185.135 12.5831ZM189.484 9.97781L188.043 11.0264L187.217 7.78134L188.698 4.36619L189.991 7.09133L189.484 9.97781ZM183.399 4.91122L184.204 6.32721L183.47 6.23564L183.399 4.91122ZM178.956 6.47L181.518 7.29081L181.648 9.13193L178.956 6.47Z" fill="#A5B1B6"/>
<path fill-rule="evenodd" clip-rule="evenodd" d="M115.606 31.4079C114.826 30.9392 114.669 30.3941 114.669 29.8491V3.28656C114.669 1.88365 114.048 1.41602 113.658 1.41602C112.721 1.41602 108.358 3.28656 107.344 3.83159C106.331 4.37662 107.11 5.07862 107.577 5.31189C108.045 5.54516 108.435 5.77952 108.435 7.02655V12.9685C108.027 12.4049 107.336 12.0408 106.248 12.0408C102.563 12.0408 103.159 14.7093 101.115 15.2837V13.7936C101.115 12.3907 100.492 11.9231 100.102 11.9231C99.1674 11.9231 94.8028 13.7936 93.7891 14.3387C92.7753 14.8837 93.5558 15.5857 94.0224 15.819C94.49 16.0533 94.8802 16.2866 94.8802 17.5336V29.8469C94.8802 30.392 94.7244 30.937 93.945 31.4057C93.1656 31.8744 93.8665 33.0255 94.7244 33.0255H101.27C102.127 33.0255 102.829 31.8733 102.05 31.4057C101.27 30.9381 101.114 30.392 101.114 29.8469V21.8437C101.599 20.2664 102.798 17.1052 104.611 17.1052C105.391 17.1052 105.156 19.2101 106.949 19.2101C107.362 19.2101 107.998 18.3163 108.435 17.1608V29.8469C108.435 30.392 108.279 30.937 107.5 31.4057C106.72 31.8744 107.421 33.0255 108.279 33.0255H114.826C115.682 33.0288 116.385 31.8766 115.606 31.4079Z" fill="#A5B1B6"/>
<path fill-rule="evenodd" clip-rule="evenodd" d="M163.615 29.8483C163.615 30.3933 163.77 30.9383 164.549 31.4071C165.328 31.8758 164.627 33.028 163.771 33.0269H152.227C152.095 33.0269 151.968 33.0311 151.845 33.0352C151.032 33.0623 150.431 33.0824 149.889 31.7962C149.265 30.317 148.251 27.9003 148.251 24.5495C148.251 16.5223 152.382 12.7038 154.408 12.7038C155.918 12.7038 156.95 13.4821 157.381 13.8789V7.7288C157.381 6.48178 156.992 6.24742 156.523 6.01414C156.054 5.78087 155.275 5.07887 156.288 4.53384C156.42 4.46284 156.642 4.43807 156.911 4.40805C157.274 4.36756 157.722 4.31753 158.149 4.13161C158.791 3.85228 159.496 3.49361 160.158 3.15652C161.234 2.60831 162.199 2.11719 162.601 2.11719C162.991 2.11719 163.615 2.58482 163.615 3.98772V29.8483ZM155.344 16.2892C156.201 16.2892 157.682 18.7822 157.682 23.2253C157.682 27.6662 156.592 29.6141 155.889 29.6141C155.188 29.6141 153.63 27.821 153.63 23.3016C153.63 18.7822 154.798 16.2892 155.344 16.2892Z" fill="#A5B1B6"/>
<path fill-rule="evenodd" clip-rule="evenodd" d="M89.9846 28.3673C90.7285 28.3706 91.441 28.3737 91.441 26.8082C91.441 25.4849 94.4027 26.0299 94.4016 28.367C94.4016 30.3934 93.6222 33.5894 88.5567 33.5894C83.4923 33.5894 80.6865 29.0701 80.6865 23.1467C80.6865 17.2244 82.6344 11.7686 87.7 11.7686C92.7654 11.7686 94.0899 18.3166 94.0899 19.1723C94.0899 20.0302 94.0125 21.1203 93.389 21.4331C92.7654 21.7438 87.3882 23.8476 87.3882 23.8476C86.2622 24.0983 86.2404 25.0499 86.2763 25.4184C87.4828 28.3795 89.1858 28.3706 89.8245 28.3672C89.8449 28.3671 89.8641 28.367 89.8822 28.367C89.9164 28.367 89.9506 28.3671 89.9846 28.3673ZM38.0598 29.8484C38.0598 30.3934 38.2156 30.9384 38.995 31.4071C39.7744 31.8759 39.0724 33.028 38.2146 33.027H31.6688C31.1641 33.027 30.7139 32.6291 30.5874 32.2051C30.3999 32.676 29.5726 33.027 28.4149 33.027H22.7063C20.8358 33.027 19.8231 32.107 20.9916 31.2513C22.0309 30.489 22.0237 30.0959 22.0091 29.3074C22.0073 29.2085 22.0054 29.1033 22.0054 28.9905V6.85902C22.0054 6.73814 22.0062 6.61977 22.007 6.50469C22.0141 5.50627 22.0194 4.75521 21.4604 4.75521C20.1586 4.75521 19.3464 6.81994 18.6143 8.68106C18.4698 9.04854 18.3284 9.40808 18.1869 9.74222C17.3301 11.7686 14.5243 10.6775 14.8361 9.2746C14.9919 8.57314 15.2258 7.22883 15.4596 5.88451C15.6934 4.5402 15.9272 3.19588 16.0831 2.49443C16.3949 1.09152 16.941 0.15625 17.486 0.15625C18.031 0.15625 18.9663 1.01304 18.9663 1.01304L25.5612 1.12968L32.156 1.01304C32.156 1.01304 33.0902 0.15625 33.6363 0.15625C34.1824 0.15625 34.7275 1.09152 35.0392 2.49443C35.1963 3.19869 35.4316 4.55097 35.6665 5.90065C35.8995 7.23958 36.1321 8.57595 36.2873 9.2746C36.5991 10.6775 33.7933 11.7676 32.9365 9.74222C32.795 9.40808 32.6536 9.04854 32.5091 8.68106C31.777 6.81994 30.9648 4.75521 29.663 4.75521C29.104 4.75521 29.1093 5.50717 29.1164 6.50501C29.1172 6.62001 29.118 6.73827 29.118 6.85902V28.9905C29.118 29.1034 29.1161 29.2086 29.1143 29.3076C29.0997 30.096 29.0925 30.4891 30.1307 31.2513C30.3694 31.4257 30.5166 31.6023 30.5841 31.7745C30.6369 31.6179 30.7461 31.4865 30.8905 31.406C31.6698 30.9373 31.8257 30.3923 31.8257 29.8473V17.534C31.8257 16.2869 31.4355 16.0537 30.9678 15.8193C30.5013 15.586 29.7219 14.884 30.7346 14.339C31.7483 13.794 36.1118 11.9234 37.0471 11.9234C37.4363 11.9234 38.0598 12.3911 38.0598 13.794V29.8484ZM86.5314 14.6531C87.2334 14.6531 88.7911 16.8354 88.7911 18.9381C88.7911 21.0441 86.9991 21.6676 86.1412 21.6676C85.7891 21.6676 85.3291 21.6251 85.2833 21.2762C84.505 15.3147 85.8305 14.6531 86.5314 14.6531Z" fill="#A5B1B6"/>
<path fill-rule="evenodd" clip-rule="evenodd" d="M150.747 3.66992C149.873 3.66992 149.131 4.34249 149.131 5.25596C149.131 6.17815 149.871 6.85071 150.747 6.85071C151.613 6.85071 152.355 6.17706 152.355 5.25596C152.355 4.34249 151.613 3.66992 150.747 3.66992ZM152.033 5.25579C152.033 6.02101 151.466 6.58566 150.747 6.58566C150.019 6.58566 149.451 6.0221 149.451 5.25579C149.451 4.50256 150.019 3.93464 150.747 3.93464C151.466 3.93464 152.033 4.50256 152.033 5.25579Z" fill="#A5B1B6"/>
<path fill-rule="evenodd" clip-rule="evenodd" d="M150.131 6.17832H150.408H150.409V5.38476H150.73L151.213 6.17941H151.524L151.002 5.37168C151.272 5.33788 151.477 5.19508 151.477 4.86588C151.477 4.50398 151.263 4.34375 150.83 4.34375H150.131V6.17832ZM151.187 4.84859C151.187 5.12983 150.977 5.14727 150.742 5.14727H150.408V4.57934H150.787C150.981 4.57934 151.187 4.62186 151.187 4.84859Z" fill="#A5B1B6"/>
<path fill-rule="evenodd" clip-rule="evenodd" d="M148.808 31.4063C148.028 30.9376 147.874 30.3925 147.874 29.8475C147.874 29.81 147.874 29.7543 147.874 29.6817C147.889 27.636 147.999 12.157 142.053 12.157C140.729 12.157 140.152 12.7493 139.611 13.3055C139.355 13.5679 139.108 13.8222 138.793 14.0024V13.7931C138.793 12.3902 138.172 11.9226 137.782 11.9226C136.845 11.9226 132.483 13.7931 131.469 14.3382C130.455 14.8832 131.235 15.5852 131.704 15.8185C132.17 16.0528 132.559 16.2861 132.559 17.5331V29.8464C132.559 30.3697 132.414 30.894 131.712 31.3496C131.608 30.6858 131.048 29.9249 130.486 29.9249C129.862 29.9249 129.707 29.3777 129.707 28.6768C129.707 27.9737 129.707 27.663 129.083 19.9476C128.477 12.4537 125.372 12.4597 122.05 12.4662C121.953 12.4663 121.855 12.4665 121.757 12.4665C118.329 12.4665 115.368 14.1027 115.368 16.7537C115.368 19.4026 117.082 19.6369 118.406 19.6369C119.73 19.6369 120.744 19.3263 120.744 17.6105C120.744 15.897 119.654 15.3508 119.654 15.3508C119.654 15.3508 120.199 15.195 121.447 15.195C122.693 15.195 123.395 17.1429 123.395 18.8576C123.395 19.8572 122.128 20.1833 121.062 20.4577C120.632 20.5685 120.234 20.6708 119.966 20.8055C116.723 22.4275 115.135 25.0142 115.135 28.2081C115.135 31.4041 117.004 33.024 117.628 33.024H123.082C123.883 33.024 124.395 32.7416 124.761 32.5393C124.966 32.4263 125.125 32.3383 125.265 32.3383C125.45 32.3383 125.601 32.4942 125.758 32.6572C125.931 32.8362 126.112 33.024 126.357 33.024H129.785C130.835 33.024 131.329 32.8604 131.559 32.613C131.767 32.8517 132.074 33.024 132.406 33.024H138.952C139.808 33.024 140.511 31.8718 139.732 31.4041C138.952 30.9365 138.796 30.3904 138.796 29.8453V17.7163C138.796 17.2355 139.412 16.5194 140.107 16.5194C141.744 16.5194 142.296 28.1318 142.296 29.8453C142.296 30.3904 142.14 30.9354 141.362 31.4041C140.583 31.8728 141.283 33.024 142.141 33.024H148.032C148.886 33.0272 149.587 31.875 148.808 31.4063ZM74.2183 11.6119C73.2176 11.6119 72.9054 11.874 72.5673 12.1579C72.3297 12.3574 72.0793 12.5676 71.5683 12.7053V2.72796C71.5683 1.32505 70.9448 0.857422 70.5557 0.857422C69.6204 0.857422 65.6602 2.72796 64.6476 3.27299C63.6349 3.81802 64.4143 4.90917 64.8808 5.14353C65.3348 5.36998 65.3347 5.59746 65.3343 6.75035L65.3343 6.8571V30.1571C65.3343 30.8155 65.3735 31.3191 65.4368 31.7115C65.377 31.5821 65.2778 31.4749 65.1533 31.4052C64.374 30.9365 64.2192 30.3915 64.2192 29.8464C64.2192 29.809 64.2196 29.7535 64.2201 29.6811C64.2345 27.6373 64.3442 12.1559 58.3982 12.1559C57.0747 12.1559 56.4973 12.7482 55.9554 13.3041C55.5814 13.6877 55.2243 14.054 54.6506 14.1965C54.0522 12.9462 52.9828 11.9215 51.1505 11.9215C49.2856 11.9215 48.7109 12.5894 48.1863 13.199C47.8563 13.5824 47.5462 13.9429 46.9472 14.0994V13.7921C46.9472 12.3891 46.3237 11.9215 45.9334 11.9215C44.9982 11.9215 40.6347 13.7921 39.6209 14.3371C38.6071 14.8821 39.3865 15.5841 39.8542 15.8174C40.3218 16.0517 40.7121 16.285 40.7121 17.532V29.8453C40.7121 30.3904 40.5562 30.9354 39.7768 31.4041C38.9974 31.8728 39.6994 33.024 40.5562 33.024H47.102C47.9588 33.024 48.6608 31.8718 47.8814 31.4041C47.102 30.9365 46.9461 30.3904 46.9461 29.8453V18.197C46.9461 16.9859 47.8192 16.2065 48.4994 16.2065C49.2003 16.2065 49.7563 16.6742 49.7563 18.0771V29.8443C49.7563 30.3893 49.6004 30.9343 48.821 31.403C48.0416 31.8718 48.7425 33.0229 49.6004 33.0229H55.4911C56.3478 33.0229 57.0498 31.8707 56.2705 31.403C55.4911 30.9354 55.3352 30.3893 55.3352 29.8443L55.3341 17.314C55.3341 16.8987 55.9293 16.5183 56.4481 16.5183C58.0843 16.5183 58.6381 28.1307 58.6381 29.8443C58.6381 30.3893 58.4811 30.9343 57.7028 31.403C56.9245 31.8718 57.6254 33.0229 58.4822 33.0229H64.3729C64.9626 33.0229 65.4782 32.48 65.4891 31.9862C65.7343 33.0523 66.2163 33.0364 66.5598 33.025C66.5935 33.0239 66.6259 33.0229 66.6565 33.0229C66.7034 33.0229 66.7499 33.0256 66.7971 33.0283C67.2207 33.053 67.6922 33.0804 68.8388 31.1687C69.0732 30.7795 69.6182 31.0128 70.3191 31.7922C70.4005 31.8826 70.4776 31.9752 70.5551 32.0681L70.5551 32.0681C71.1452 32.7758 71.7539 33.5058 74.3709 33.5058C77.3326 33.5058 80.5275 33.0392 80.5275 22.3621C80.5308 13.9501 75.934 11.6119 74.2183 11.6119ZM123.703 28.7564V22.5223C122.068 22.5223 120.742 23.7715 120.742 26.888C120.742 30.0045 121.677 30.3173 122.613 30.3173C123.548 30.3173 123.703 29.4595 123.703 28.7564ZM73.4398 14.8854C74.8427 14.8854 75.4662 19.5606 75.4662 21.8988C75.4662 24.237 74.8427 28.2898 73.2839 28.2898C71.7251 28.2898 71.4918 23.5361 71.4918 21.8988C71.4918 20.2637 72.0369 14.8854 73.4398 14.8854Z" fill="#A5B1B6"/>
</g>
<defs>
<clipPath id="clip0_82:4622">
<rect width="191.577" height="35.0018" fill="white" transform="translate(14.812 0.15625)"/>
</clipPath>
</defs>
</svg>
