<svg width="24" height="24" viewBox="0 0 24 24" fill="none" xmlns="http://www.w3.org/2000/svg">
<path fill-rule="evenodd" clip-rule="evenodd" d="M7.875 3.9375C5.70038 3.9375 3.9375 5.70038 3.9375 7.875V16.125C3.9375 18.2996 5.70038 20.0625 7.875 20.0625H16.125C18.2996 20.0625 20.0625 18.2996 20.0625 16.125V7.875C20.0625 5.70038 18.2996 3.9375 16.125 3.9375H7.875ZM2.8125 7.875C2.8125 5.07906 5.07906 2.8125 7.875 2.8125H16.125C18.9209 2.8125 21.1875 5.07906 21.1875 7.875V16.125C21.1875 18.9209 18.9209 21.1875 16.125 21.1875H7.875C5.07906 21.1875 2.8125 18.9209 2.8125 16.125V7.875ZM12 8.8125C10.2396 8.8125 8.8125 10.2396 8.8125 12C8.8125 13.7604 10.2396 15.1875 12 15.1875C13.7604 15.1875 15.1875 13.7604 15.1875 12C15.1875 10.2396 13.7604 8.8125 12 8.8125ZM7.6875 12C7.6875 9.61827 9.61827 7.6875 12 7.6875C14.3817 7.6875 16.3125 9.61827 16.3125 12C16.3125 14.3817 14.3817 16.3125 12 16.3125C9.61827 16.3125 7.6875 14.3817 7.6875 12ZM17.8125 7.125C17.8125 7.64277 17.3928 8.0625 16.875 8.0625C16.3572 8.0625 15.9375 7.64277 15.9375 7.125C15.9375 6.60723 16.3572 6.1875 16.875 6.1875C17.3928 6.1875 17.8125 6.60723 17.8125 7.125Z" fill="white"/>
</svg>
