<svg width="24" height="24" viewBox="0 0 24 24" fill="none" xmlns="http://www.w3.org/2000/svg">
<path fill-rule="evenodd" clip-rule="evenodd" d="M19.1477 5.64775C19.3674 5.42808 19.3674 5.07192 19.1477 4.85225C18.9281 4.63258 18.5719 4.63258 18.3523 4.85225L12 11.2045L5.64775 4.85225C5.42808 4.63258 5.07192 4.63258 4.85225 4.85225C4.63258 5.07192 4.63258 5.42808 4.85225 5.64775L11.2045 12L4.85225 18.3523C4.63258 18.5719 4.63258 18.9281 4.85225 19.1477C5.07192 19.3674 5.42808 19.3674 5.64775 19.1477L12 12.7955L18.3523 19.1477C18.5719 19.3674 18.9281 19.3674 19.1477 19.1477C19.3674 18.9281 19.3674 18.5719 19.1477 18.3523L12.7955 12L19.1477 5.64775Z" fill="#121516"/>
</svg>
