<svg width="24" height="25" viewBox="0 0 24 25" fill="none" xmlns="http://www.w3.org/2000/svg">
<path fill-rule="evenodd" clip-rule="evenodd" d="M10.7785 11.9324C10.9884 12.1614 10.9729 12.5172 10.7439 12.7272L3.61154 19.2652C3.38254 19.4751 3.02672 19.4596 2.8168 19.2306C2.60688 19.0016 2.62235 18.6458 2.85135 18.4359L9.98372 11.8979C10.2127 11.6879 10.5685 11.7034 10.7785 11.9324Z" fill="#EE008F"/>
<path fill-rule="evenodd" clip-rule="evenodd" d="M13.2216 11.9324C13.4315 11.7034 13.7873 11.6879 14.0163 11.8979L21.1488 18.4359C21.3778 18.6459 21.3933 19.0017 21.1834 19.2307C20.9735 19.4597 20.6176 19.4752 20.3886 19.2652L13.2561 12.7272C13.0271 12.5172 13.0117 12.1614 13.2216 11.9324Z" fill="#EE008F"/>
<path fill-rule="evenodd" clip-rule="evenodd" d="M2.58535 5.18241C2.79527 4.9534 3.15109 4.93793 3.3801 5.14785L12 13.0494L20.6199 5.14785C20.8489 4.93793 21.2047 4.9534 21.4147 5.18241C21.6246 5.41141 21.6091 5.76723 21.3801 5.97715L12.3801 14.2272C12.165 14.4243 11.835 14.4243 11.6199 14.2272L2.61991 5.97715C2.3909 5.76723 2.37543 5.41141 2.58535 5.18241Z" fill="#EE008F"/>
<path fill-rule="evenodd" clip-rule="evenodd" d="M2.4375 5.5625C2.4375 5.25184 2.68934 5 3 5H21C21.3107 5 21.5625 5.25184 21.5625 5.5625V18.3125C21.5625 18.6606 21.4242 18.9944 21.1781 19.2406C20.9319 19.4867 20.5981 19.625 20.25 19.625H3.75C3.4019 19.625 3.06806 19.4867 2.82192 19.2406C2.57578 18.9944 2.4375 18.6606 2.4375 18.3125V5.5625ZM3.5625 6.125V18.3125C3.5625 18.3622 3.58225 18.4099 3.61742 18.4451C3.65258 18.4802 3.70027 18.5 3.75 18.5H20.25C20.2997 18.5 20.3474 18.4802 20.3826 18.4451C20.4177 18.4099 20.4375 18.3622 20.4375 18.3125V6.125H3.5625Z" fill="#EE008F"/>
</svg>
