<svg width="24" height="24" viewBox="0 0 24 24" fill="none" xmlns="http://www.w3.org/2000/svg">
<path fill-rule="evenodd" clip-rule="evenodd" d="M12 3.5625C7.3401 3.5625 3.5625 7.3401 3.5625 12C3.5625 16.4709 7.03986 20.1296 11.4375 20.419V14.0626H9C8.68934 14.0626 8.4375 13.8108 8.4375 13.5001C8.4375 13.1894 8.68934 12.9376 9 12.9376H11.4375V10.5001C11.4375 9.75417 11.7338 9.0388 12.2613 8.51135C12.7887 7.98391 13.5041 7.68759 14.25 7.68759H15.75C16.0607 7.68759 16.3125 7.93943 16.3125 8.25009C16.3125 8.56075 16.0607 8.81259 15.75 8.81259H14.25C13.8024 8.81259 13.3732 8.99038 13.0568 9.30685C12.7403 9.62332 12.5625 10.0525 12.5625 10.5001V12.9376H15C15.3107 12.9376 15.5625 13.1894 15.5625 13.5001C15.5625 13.8108 15.3107 14.0626 15 14.0626H12.5625V20.419C16.9601 20.1296 20.4375 16.4709 20.4375 12C20.4375 7.3401 16.6599 3.5625 12 3.5625ZM2.4375 12C2.4375 17.2777 6.71307 21.5568 11.9894 21.5625L12 21.5626L12.0106 21.5625C17.2869 21.5568 21.5625 17.2777 21.5625 12C21.5625 6.71878 17.2812 2.4375 12 2.4375C6.71878 2.4375 2.4375 6.71878 2.4375 12Z" fill="white"/>
</svg>
