<svg width="24" height="25" viewBox="0 0 24 25" fill="none" xmlns="http://www.w3.org/2000/svg">
<path fill-rule="evenodd" clip-rule="evenodd" d="M7.09445 5.15695C8.39548 3.85591 10.1601 3.125 12 3.125C13.8399 3.125 15.6045 3.85591 16.9056 5.15695C18.2066 6.45798 18.9375 8.22256 18.9375 10.0625C18.9375 13.235 17.1683 16.1054 15.3255 18.2246C14.411 19.2764 13.495 20.1238 12.8076 20.7081C12.4752 20.9906 12.1973 21.2108 12 21.362C11.8027 21.2108 11.5248 20.9906 11.1924 20.7081C10.505 20.1238 9.589 19.2764 8.67447 18.2246C6.83166 16.1054 5.0625 13.235 5.0625 10.0625C5.0625 8.22256 5.79341 6.45798 7.09445 5.15695ZM11.6771 22.5231C11.6773 22.5232 11.6774 22.5233 12 22.0625L12.3226 22.5233C12.1289 22.6589 11.8707 22.6586 11.6771 22.5231ZM11.6771 22.5231L12 22.0625C12.3226 22.5233 12.3233 22.5228 12.3235 22.5227L12.325 22.5216L12.3302 22.5179L12.3485 22.5049C12.3642 22.4937 12.3868 22.4774 12.4159 22.4562C12.474 22.4138 12.5579 22.3517 12.6638 22.2706C12.8758 22.1087 13.1764 21.8711 13.5362 21.5653C14.255 20.9543 15.214 20.0674 16.1745 18.9629C18.0817 16.7696 20.0625 13.64 20.0625 10.0625C20.0625 7.92419 19.2131 5.87346 17.701 4.36145C16.189 2.84944 14.1383 2 12 2C9.86169 2 7.81096 2.84944 6.29895 4.36145C4.78694 5.87346 3.9375 7.92419 3.9375 10.0625C3.9375 13.64 5.91834 16.7696 7.82553 18.9629C8.786 20.0674 9.74503 20.9543 10.4638 21.5653C10.8236 21.8711 11.1242 22.1087 11.3362 22.2706C11.4421 22.3517 11.526 22.4138 11.5841 22.4562C11.6132 22.4774 11.6358 22.4937 11.6515 22.5049L11.6698 22.5179L11.675 22.5216L11.6771 22.5231ZM9.5625 10.0625C9.5625 8.71631 10.6538 7.625 12 7.625C13.3462 7.625 14.4375 8.71631 14.4375 10.0625C14.4375 11.4087 13.3462 12.5 12 12.5C10.6538 12.5 9.5625 11.4087 9.5625 10.0625ZM12 6.5C10.0325 6.5 8.4375 8.09499 8.4375 10.0625C8.4375 12.03 10.0325 13.625 12 13.625C13.9675 13.625 15.5625 12.03 15.5625 10.0625C15.5625 8.09499 13.9675 6.5 12 6.5Z" fill="#EE008F"/>
</svg>
