<svg width="24" height="25" viewBox="0 0 24 25" fill="none" xmlns="http://www.w3.org/2000/svg">
<path fill-rule="evenodd" clip-rule="evenodd" d="M3.94866 5.8735C5.06082 5.39408 7.74524 4.93082 10.2224 4.79086C11.6546 4.70986 12.2374 4.70849 13.5943 4.78267C16.0663 4.91795 18.0954 5.23477 19.5959 5.71984C20.3085 5.95016 20.3926 5.99654 20.7504 6.35623C21.2662 6.87474 21.4131 7.3724 21.6572 9.42793C21.7949 10.5876 21.7753 14.3357 21.6252 15.5523C21.4171 17.2384 21.1942 17.9519 20.7397 18.3872C20.1573 18.9449 18.3489 19.4283 15.5899 19.764C14.1647 19.9374 9.86787 19.9387 8.43324 19.7661C7.0432 19.5989 6.27339 19.463 5.2173 19.1981C3.1381 18.6767 2.80594 18.3085 2.48644 16.1717C2.03667 13.1633 2.25901 8.10265 2.89622 6.84308C3.09296 6.45415 3.52504 6.05613 3.94866 5.8735ZM18.308 6.50005C17.3431 6.26767 15.9229 6.0573 14.6609 5.95986C12.8004 5.81618 11.3608 5.81466 9.46544 5.95436C7.42553 6.10471 5.1487 6.53714 4.32479 6.93062C3.89732 7.13479 3.80112 7.3404 3.62289 8.43013C3.25054 10.7064 3.24834 14.0108 3.61752 16.2297C3.84729 17.6103 3.90709 17.6832 5.09076 18.0263C7.10183 18.609 9.57685 18.861 12.6997 18.8008C15.2439 18.7517 16.8504 18.5678 18.5273 18.1333C19.4727 17.8885 19.9549 17.6866 20.0912 17.4784C20.2208 17.2807 20.4407 16.2064 20.5561 15.2083C20.6743 14.1852 20.673 10.4965 20.5541 9.46234C20.4257 8.34618 20.2248 7.41905 20.0614 7.18963C19.8916 6.95119 19.4337 6.77111 18.308 6.50005ZM10.812 8.84362C10.6394 8.72855 10.4175 8.71782 10.2346 8.8157C10.0517 8.91359 9.9375 9.1042 9.9375 9.31165V15.3116C9.9375 15.5191 10.0517 15.7097 10.2346 15.8076C10.4175 15.9055 10.6394 15.8947 10.812 15.7797L15.312 12.7797C15.4685 12.6754 15.5625 12.4997 15.5625 12.3116C15.5625 12.1236 15.4685 11.9479 15.312 11.8436L10.812 8.84362ZM13.9859 12.3116L11.0625 14.2606V10.3627L13.9859 12.3116Z" fill="white"/>
</svg>
