<svg width="24" height="25" viewBox="0 0 24 25" fill="none" xmlns="http://www.w3.org/2000/svg">
<path fill-rule="evenodd" clip-rule="evenodd" d="M7.74916 3.90745C6.79982 4.02937 5.92734 4.49285 5.29483 5.21129C4.66179 5.93034 4.31255 6.85548 4.3125 7.81349C4.3125 11.0458 5.59654 14.1457 7.88214 16.4313C10.1677 18.7169 13.2677 20.0009 16.5 20.001M7.74916 3.90745C7.78855 3.90296 7.82836 3.91125 7.86271 3.93112C7.89743 3.9512 7.92469 3.98202 7.94037 4.01894L9.82456 8.41539C9.83674 8.44381 9.8417 8.4748 9.83901 8.5056C9.83631 8.5364 9.82604 8.56606 9.80911 8.59193L8.25111 10.9725C8.2508 10.973 8.2505 10.9734 8.2502 10.9739C8.12604 11.1619 8.05264 11.3788 8.03715 11.6036C8.02161 11.829 8.06479 12.0545 8.16247 12.2581L8.66965 12.0149L8.16436 12.262C8.99767 13.9657 10.3786 15.3404 12.0861 16.1659L12.09 16.1678C12.2949 16.2649 12.5216 16.307 12.7477 16.2899C12.9732 16.2728 13.1904 16.1975 13.3781 16.0712C13.3785 16.0709 13.379 16.0706 13.3795 16.0703L15.724 14.5069C15.75 14.4896 15.7798 14.479 15.8109 14.4762C15.8419 14.4733 15.8732 14.4782 15.9019 14.4905L20.2929 16.3724L20.2945 16.3731C20.3314 16.3888 20.3623 16.416 20.3823 16.4507C20.4022 16.4851 20.4105 16.5249 20.406 16.5643C20.2841 17.5136 19.8206 18.3861 19.1022 19.0186C18.3831 19.6517 17.458 20.0009 16.5 20.001M9.17621 11.7703C9.89855 13.2456 11.0946 14.4362 12.5731 15.1518C12.6011 15.1648 12.632 15.1704 12.6628 15.1681C12.6941 15.1657 12.7242 15.1552 12.7502 15.1377L12.7528 15.136L15.0999 13.5709C15.2815 13.4498 15.4905 13.3759 15.708 13.3559C15.9254 13.3359 16.1444 13.3705 16.345 13.4565L20.7344 15.3376C20.7347 15.3378 20.735 15.3379 20.7353 15.338C20.9963 15.4491 21.2142 15.6419 21.3562 15.8875C21.4984 16.1334 21.5568 16.4188 21.5227 16.7008L21.5222 16.7045C21.3661 17.9262 20.77 19.0491 19.8456 19.863C18.9211 20.6769 17.7317 21.1259 16.5 21.126C12.9693 21.126 9.58322 19.7234 7.08664 17.2268C4.59006 14.7302 3.1875 11.3442 3.1875 7.81346C3.18756 6.58179 3.63657 5.39235 4.45044 4.4679C5.26432 3.54345 6.38725 2.94735 7.60898 2.79121L7.6127 2.79074C7.89466 2.75662 8.18007 2.81507 8.42593 2.95725C8.6715 3.09927 8.86433 3.31717 8.97543 3.57817C8.97556 3.57847 8.97569 3.57878 8.97582 3.57908L10.8586 7.97223C10.9439 8.17116 10.9786 8.38809 10.9597 8.6037C10.9409 8.81931 10.869 9.0269 10.7504 9.20799L9.18912 11.5936C9.17185 11.6197 9.16163 11.6498 9.15948 11.681C9.15736 11.7117 9.16313 11.7425 9.17621 11.7703Z" fill="#EE008F"/>
</svg>
