<svg width="151" height="44" viewBox="0 0 151 44" fill="none" xmlns="http://www.w3.org/2000/svg">
<path d="M148.122 12.3006C148.122 12.2661 148.137 12.2481 148.17 12.2481H148.85C148.921 12.2475 148.992 12.2618 149.058 12.2901C149.121 12.3172 149.178 12.3559 149.226 12.4041C149.275 12.4521 149.314 12.5092 149.34 12.5721C149.368 12.6376 149.382 12.708 149.382 12.7792C149.383 12.8299 149.375 12.8805 149.361 12.9292C149.346 12.9742 149.327 13.0174 149.303 13.0582C149.277 13.0974 149.247 13.1332 149.213 13.1648C149.179 13.1974 149.141 13.2247 149.099 13.2458L149.385 13.8114C149.386 13.8193 149.389 13.8269 149.393 13.8339C149.394 13.8413 149.394 13.849 149.393 13.8564C149.393 13.8789 149.379 13.8894 149.354 13.8894H149.097C149.085 13.8897 149.073 13.8859 149.064 13.8785C149.054 13.8711 149.047 13.8607 149.045 13.8489L148.778 13.3193H148.44V13.8414C148.44 13.8729 148.424 13.8879 148.391 13.8879H148.168C148.156 13.8888 148.143 13.8851 148.132 13.8774C148.128 13.8727 148.124 13.867 148.122 13.8608C148.12 13.8545 148.12 13.8479 148.12 13.8414L148.122 12.3006ZM149.051 12.7807C149.051 12.7488 149.045 12.7172 149.033 12.6877C149.02 12.6587 149.004 12.6319 148.983 12.6081C148.962 12.5851 148.936 12.5658 148.908 12.5511C148.878 12.5365 148.845 12.5279 148.812 12.5256H148.442V13.0372H148.775H148.817C148.849 13.0356 148.882 13.0275 148.911 13.0132C148.94 13.0001 148.965 12.9812 148.986 12.9577C149.006 12.9341 149.023 12.9072 149.034 12.8782C149.046 12.847 149.051 12.8139 149.051 12.7807Z" fill="white"/>
<path d="M148.758 11.6378C149.041 11.6378 149.317 11.7216 149.552 11.8787C149.787 12.0359 149.971 12.2592 150.079 12.5204C150.187 12.7817 150.215 13.0692 150.16 13.3465C150.105 13.6239 149.969 13.8786 149.769 14.0786C149.569 14.2786 149.314 14.4147 149.037 14.4699C148.76 14.5251 148.472 14.4968 148.211 14.3885C147.95 14.2803 147.726 14.0971 147.569 13.8619C147.412 13.6268 147.328 13.3504 147.328 13.0676C147.329 12.6885 147.479 12.3251 147.747 12.057C148.015 11.7889 148.379 11.6382 148.758 11.6378ZM148.758 11.3242C148.296 11.3242 147.852 11.5079 147.525 11.8348C147.198 12.1618 147.015 12.6052 147.015 13.0676C147.015 13.2964 147.06 13.5231 147.147 13.7345C147.235 13.9459 147.363 14.138 147.525 14.2998C147.687 14.4616 147.879 14.5898 148.091 14.6773C148.302 14.7647 148.529 14.8096 148.758 14.8094C148.987 14.8094 149.213 14.7644 149.425 14.6768C149.636 14.5893 149.828 14.461 149.99 14.2993C150.151 14.1375 150.28 13.9455 150.367 13.7342C150.455 13.5228 150.5 13.2963 150.5 13.0676C150.5 12.8387 150.455 12.612 150.368 12.4005C150.28 12.189 150.152 11.9968 149.99 11.8349C149.828 11.673 149.636 11.5446 149.425 11.457C149.214 11.3693 148.987 11.3242 148.758 11.3242Z" fill="white"/>
<path d="M28.3665 8.06775C28.3665 9.91524 27.6326 11.6871 26.3262 12.9934C25.0198 14.2998 23.248 15.0337 21.4005 15.0337C19.5526 15.0337 17.7804 15.7678 16.4737 17.0745C15.1671 18.3811 14.433 20.1533 14.433 22.0012C14.433 23.3793 14.0243 24.7265 13.2587 25.8723C12.493 27.0181 11.4047 27.9112 10.1315 28.4385C8.85829 28.9658 7.45729 29.1037 6.10569 28.8347C4.75409 28.5657 3.51261 27.902 2.53825 26.9274C1.56389 25.9529 0.900418 24.7112 0.631745 23.3596C0.363073 22.0079 0.501266 20.6069 1.02885 19.3338C1.55643 18.0607 2.4497 16.9727 3.5957 16.2072C4.74169 15.4418 6.08893 15.0334 7.46703 15.0337C9.31452 15.0337 11.0863 14.2998 12.3927 12.9934C13.6991 11.6871 14.433 9.91524 14.433 8.06775C14.4195 7.14426 14.5896 6.2273 14.9337 5.37018C15.2777 4.51307 15.7887 3.7329 16.437 3.07505C17.0852 2.4172 17.8578 1.89481 18.7098 1.53824C19.5618 1.18167 20.4762 0.998047 21.3997 0.998047C22.3233 0.998047 23.2377 1.18167 24.0897 1.53824C24.9417 1.89481 25.7142 2.4172 26.3625 3.07505C27.0108 3.7329 27.5218 4.51307 27.8658 5.37018C28.2098 6.2273 28.38 7.14426 28.3665 8.06775Z" fill="url(#paint0_linear_208:700)"/>
<path d="M42.3001 22.0021C42.3136 22.9255 42.1434 23.8425 41.7994 24.6996C41.4554 25.5567 40.9444 26.3369 40.2961 26.9948C39.6478 27.6526 38.8752 28.175 38.0233 28.5316C37.1713 28.8881 36.2569 29.0718 35.3333 29.0718C34.4097 29.0718 33.4954 28.8881 32.6434 28.5316C31.7914 28.175 31.0188 27.6526 30.3706 26.9948C29.7223 26.3369 29.2113 25.5567 28.8673 24.6996C28.5232 23.8425 28.3531 22.9255 28.3666 22.0021C28.3666 20.1544 27.6327 18.3824 26.3264 17.0758C25.0201 15.7692 23.2483 15.035 21.4006 15.0346C20.0225 15.0349 18.6752 14.6264 17.5291 13.861C16.3831 13.0955 15.4898 12.0073 14.9623 10.7341C14.4348 9.46093 14.2967 8.05987 14.5654 6.70817C14.8342 5.35647 15.4979 4.11485 16.4724 3.14034C17.4469 2.16583 18.6885 1.50221 20.0402 1.23342C21.3919 0.964623 22.793 1.10273 24.0662 1.63027C25.3394 2.15781 26.4275 3.05108 27.193 4.1971C27.9585 5.34313 28.3669 6.69043 28.3666 8.06859C28.3666 9.91608 29.1005 11.6879 30.4069 12.9943C31.7133 14.3007 33.4851 15.0346 35.3326 15.0346C37.1805 15.0346 38.9527 15.7686 40.2593 17.0753C41.566 18.382 42.3001 20.1542 42.3001 22.0021Z" fill="url(#paint1_linear_208:700)"/>
<path d="M21.4001 42.9018C25.2481 42.9018 28.3676 39.7823 28.3676 35.9343C28.3676 32.0862 25.2481 28.9668 21.4001 28.9668C17.5521 28.9668 14.4326 32.0862 14.4326 35.9343C14.4326 39.7823 17.5521 42.9018 21.4001 42.9018Z" fill="url(#paint2_linear_208:700)"/>
<path d="M115.229 15.0352C113.851 15.0349 112.503 15.4433 111.357 16.2088C110.211 16.9742 109.318 18.0624 108.79 19.3356C108.263 20.6088 108.125 22.0099 108.394 23.3616C108.662 24.7133 109.326 25.9549 110.3 26.9294C111.275 27.9039 112.517 28.5675 113.868 28.8363C115.22 29.1051 116.621 28.967 117.894 28.4395C119.167 27.9119 120.256 27.0186 121.021 25.8726C121.787 24.7266 122.195 23.3793 122.195 22.0011C122.194 20.1538 121.46 18.3822 120.154 17.0759C118.848 15.7696 117.076 15.0356 115.229 15.0352ZM115.229 25.4841C114.54 25.4841 113.866 25.2798 113.294 24.8971C112.721 24.5144 112.275 23.9704 112.011 23.334C111.747 22.6976 111.678 21.9973 111.813 21.3216C111.947 20.646 112.279 20.0254 112.766 19.5383C113.253 19.0512 113.874 18.7195 114.549 18.5851C115.225 18.4507 115.925 18.5197 116.562 18.7833C117.198 19.0469 117.742 19.4933 118.125 20.0661C118.507 20.6389 118.712 21.3123 118.712 22.0011C118.712 22.4586 118.622 22.9116 118.447 23.3342C118.272 23.7569 118.015 24.141 117.692 24.4644C117.369 24.7879 116.985 25.0444 116.562 25.2194C116.139 25.3944 115.686 25.4843 115.229 25.4841Z" fill="white"/>
<path d="M80.7495 25.9957C81.0763 26.3221 81.2601 26.765 81.2603 27.2269C81.2606 27.6888 81.0774 28.1319 80.751 28.4587C80.4246 28.7855 79.9817 28.9692 79.5198 28.9695C79.0579 28.9698 78.6148 28.7866 78.288 28.4602L74.2995 24.4657L70.3065 28.4512C70.0631 28.6952 69.7528 28.8615 69.4149 28.929C69.0769 28.9966 68.7265 28.9623 68.408 28.8307C68.0896 28.699 67.8173 28.4757 67.6258 28.1892C67.4342 27.9027 67.332 27.5658 67.332 27.2212V13.0657C67.332 12.6038 67.5155 12.1609 67.8421 11.8343C68.1687 11.5077 68.6117 11.3242 69.0735 11.3242C69.5354 11.3242 69.9784 11.5077 70.3049 11.8343C70.6315 12.1609 70.815 12.6038 70.815 13.0657V23.0212L78.291 15.5512C78.6154 15.2224 79.0572 15.0359 79.5191 15.0329C79.981 15.0298 80.4252 15.2103 80.754 15.5347C81.0828 15.8591 81.2693 16.3009 81.2723 16.7628C81.2754 17.2247 81.0949 17.6689 80.7705 17.9977C80.7649 18.0041 80.7589 18.0101 80.7525 18.0157L76.764 22.0012L80.7495 25.9957Z" fill="white"/>
<path d="M106.518 16.7766C106.516 16.4337 106.412 16.0991 106.221 15.8148C106.029 15.5305 105.758 15.3091 105.441 15.1784C105.124 15.0477 104.775 15.0134 104.439 15.08C104.102 15.1466 103.793 15.311 103.55 15.5526C103.402 15.7017 103.281 15.8759 103.194 16.0671C103.094 16.2927 103.043 16.5371 103.044 16.7841V21.9126C103.044 21.9426 103.044 21.9726 103.044 22.0026C103.044 22.0326 103.044 22.0626 103.044 22.0926C103.038 22.3558 103.002 22.6176 102.936 22.8726C102.744 23.6215 102.308 24.2853 101.697 24.7592C101.086 25.2332 100.335 25.4904 99.5612 25.4904C98.7879 25.4904 98.0366 25.2332 97.4256 24.7592C96.8146 24.2853 96.3786 23.6215 96.1862 22.8726C96.1206 22.6216 96.0838 22.3639 96.0767 22.1046C96.0767 22.0716 96.0767 22.0371 96.0767 22.0026C96.0767 21.9681 96.0767 21.9336 96.0767 21.9006V16.8516C96.0767 16.3897 95.8933 15.9467 95.5667 15.6202C95.2401 15.2936 94.7971 15.1101 94.3352 15.1101C93.8734 15.1101 93.4304 15.2936 93.1038 15.6202C92.7772 15.9467 92.5938 16.3897 92.5938 16.8516V22.1526C92.6171 23.3243 92.9371 24.471 93.5237 25.4855C94.137 26.5432 95.0161 27.4223 96.0737 28.0355L96.1832 28.097C97.2164 28.6683 98.3777 28.9679 99.5582 28.9679C100.739 28.9679 101.9 28.6683 102.933 28.097L103.041 28.0355V28.877C103.041 28.907 103.041 28.9355 103.041 28.967C103.041 29.8907 102.674 30.7763 102.021 31.4294C101.368 32.0825 100.482 32.4496 99.5582 32.45C99.3295 32.4471 99.1025 32.4892 98.8901 32.574C98.6776 32.6588 98.484 32.7846 98.3202 32.9442C98.1564 33.1038 98.0257 33.2941 97.9354 33.5043C97.8452 33.7145 97.7972 33.9403 97.7942 34.169C97.7913 34.3977 97.8334 34.6248 97.9182 34.8372C98.003 35.0496 98.1288 35.2432 98.2884 35.407C98.448 35.5708 98.6383 35.7016 98.8485 35.7918C99.0587 35.8821 99.2845 35.9301 99.5132 35.933H99.6032C101.443 35.9211 103.203 35.182 104.5 33.8769C105.797 32.5718 106.524 30.8068 106.524 28.967C106.524 28.9265 106.524 28.886 106.524 28.847L106.518 16.7766Z" fill="white"/>
<path d="M62.1073 19.1122C62.4268 19.2247 62.7388 19.3537 63.0463 19.4977L63.0988 19.5217C63.3195 19.6268 63.5595 19.685 63.8038 19.6927H63.9493H64.0348L64.1173 19.6822L64.1893 19.6687H64.2013L64.2658 19.6537H64.2838L64.3543 19.6342C64.3787 19.6281 64.4028 19.6205 64.4263 19.6117L64.4803 19.5922L64.5193 19.5757L64.5568 19.5607L64.5943 19.5427L64.6318 19.5262L64.6678 19.5067L64.7038 19.4872L64.7383 19.4677L64.7728 19.4467L64.8043 19.4272L64.8418 19.4017L64.8733 19.3792L64.9078 19.3537L64.9393 19.3297C64.9753 19.3017 65.0098 19.2717 65.0428 19.2397C65.055 19.2295 65.0665 19.2184 65.0773 19.2067L65.0908 19.1947L65.1058 19.1782C65.1373 19.1452 65.1688 19.1107 65.1988 19.0747L65.2438 19.0192C65.2618 18.9952 65.2798 18.9712 65.2963 18.9457L65.3353 18.8857C65.3495 18.8639 65.3625 18.8414 65.3743 18.8182C65.4013 18.7728 65.4253 18.7257 65.4463 18.6772C65.4538 18.6592 65.4628 18.6412 65.4688 18.6232C65.4748 18.6052 65.4898 18.5722 65.4988 18.5452C65.5078 18.5182 65.5063 18.5257 65.5093 18.5152V18.5062C65.5093 18.4882 65.5213 18.4702 65.5258 18.4522L65.5438 18.3877C65.5431 18.3792 65.5431 18.3707 65.5438 18.3622C65.5438 18.3397 65.5543 18.3172 65.5573 18.2947L65.5708 18.2227V18.2152C65.5708 18.1897 65.5783 18.1627 65.5813 18.1372V18.1282C65.5813 18.1027 65.5813 18.0772 65.5813 18.0517C65.5813 18.0232 65.5813 17.9947 65.5813 17.9662C65.5814 17.6899 65.5158 17.4174 65.3898 17.1715C65.2638 16.9255 65.0811 16.7131 64.8568 16.5517L64.8133 16.5232L64.7698 16.4932L64.7113 16.4602C64.7003 16.4528 64.6888 16.4463 64.6768 16.4407L64.6453 16.4242L64.6318 16.4167L64.6078 16.4062L64.5118 16.3597C63.7374 15.997 62.9309 15.7073 62.1028 15.4942C59.8173 14.9082 57.4209 14.9082 55.1353 15.4942C54.6322 15.6238 54.1369 15.7821 53.6518 15.9682C53.3398 16.0867 53.0308 16.2172 52.7278 16.3597L52.6303 16.4062C52.5913 16.4242 52.5523 16.4452 52.5148 16.4662L52.4713 16.4917L52.4548 16.5022L52.4098 16.5322C52.1762 16.692 51.9851 16.9065 51.8531 17.1569C51.7211 17.4073 51.6522 17.6861 51.6523 17.9692V18.1192C51.6771 18.4122 51.7763 18.6941 51.9403 18.9382C52.0193 19.0571 52.1125 19.1659 52.2178 19.2622L52.4278 19.4227L60.1318 25.3942C59.6311 25.4669 59.1258 25.5035 58.6198 25.5037C57.4326 25.5043 56.254 25.3014 55.1353 24.9037C54.8201 24.7928 54.5108 24.6662 54.2083 24.5242L54.1438 24.4942C53.9072 24.3816 53.6484 24.3232 53.3863 24.3232H53.2843H53.2063L53.1283 24.3337L53.0503 24.3472C52.7191 24.4143 52.4145 24.5762 52.1737 24.8133C51.9328 25.0504 51.7661 25.3524 51.6937 25.6825C51.6214 26.0126 51.6466 26.3567 51.7663 26.6727C51.886 26.9888 52.095 27.2632 52.3678 27.4627L52.4098 27.4927L52.4548 27.5227L52.4713 27.5332L52.5148 27.5587C52.5523 27.5812 52.5913 27.6007 52.6303 27.6202L52.7278 27.6652C53.4993 28.0274 54.3028 28.3171 55.1278 28.5307C57.4134 29.1167 59.8098 29.1167 62.0953 28.5307C62.5983 28.4013 63.0936 28.2436 63.5788 28.0582C63.8878 27.9397 64.1938 27.8092 64.4938 27.6682C64.5298 27.6532 64.5643 27.6352 64.6003 27.6187C64.6732 27.5846 64.7434 27.5449 64.8103 27.5002L64.8448 27.4762C65.0658 27.3192 65.2471 27.1128 65.3744 26.8734C65.5017 26.6341 65.5713 26.3683 65.5779 26.0973C65.5845 25.8263 65.5277 25.5575 65.4122 25.3123C65.2966 25.0671 65.1255 24.8522 64.9123 24.6847L64.8043 24.6007L57.0988 18.6292C57.6001 18.557 58.1059 18.5209 58.6123 18.5212C59.8025 18.5171 60.9846 18.717 62.1073 19.1122Z" fill="white"/>
<path d="M87.4271 11.8701C84.8614 14.6198 83.4346 18.2404 83.4346 22.0011C83.4346 25.7618 84.8614 29.3825 87.4271 32.1321C88.4906 33.2766 90.4105 32.4981 90.4105 30.9321V30.8811C90.4072 30.4505 90.2417 30.037 89.9471 29.7231C89.7221 29.4786 89.5076 29.2266 89.3051 28.9641C87.764 26.9684 86.928 24.5181 86.928 21.9966C86.928 19.4752 87.764 17.0248 89.3051 15.0291C89.5076 14.7666 89.7221 14.5146 89.9471 14.2701C90.242 13.9563 90.4075 13.5428 90.4105 13.1121V13.0611C90.4105 11.5011 88.4906 10.7272 87.4271 11.8701Z" fill="white"/>
<path d="M145.286 15.0361C144.677 13.8879 143.92 12.8239 143.036 11.8711C141.973 10.7281 140.053 11.5051 140.053 13.0711V13.1221C140.056 13.5531 140.221 13.9671 140.516 14.2816C140.741 14.5246 140.955 14.7776 141.158 15.0406C142.701 17.0353 143.538 19.4857 143.538 22.0073C143.538 24.529 142.701 26.9793 141.158 28.9741C140.958 29.2371 140.745 29.4901 140.518 29.7331C140.223 30.047 140.058 30.4605 140.054 30.8911V30.9421C140.054 32.5036 141.974 33.2821 143.038 32.1421C145.141 29.878 146.488 27.0153 146.892 23.9511C147.295 20.887 146.734 17.7733 145.288 15.0421L145.286 15.0361Z" fill="white"/>
<path d="M136.13 15.0332C135.901 15.033 135.674 15.078 135.463 15.1655C135.251 15.253 135.059 15.3814 134.897 15.5433C134.735 15.7052 134.607 15.8974 134.519 16.1089C134.432 16.3205 134.387 16.5472 134.387 16.7762V22.0022C134.397 22.4658 134.314 22.9266 134.143 23.3577C133.972 23.7888 133.717 24.1814 133.393 24.5127C133.068 24.8439 132.681 25.1071 132.253 25.2868C131.826 25.4664 131.367 25.559 130.903 25.559C130.44 25.559 129.98 25.4664 129.553 25.2868C129.126 25.1071 128.738 24.8439 128.414 24.5127C128.089 24.1814 127.834 23.7888 127.664 23.3577C127.493 22.9266 127.41 22.4658 127.419 22.0022V16.7762C127.422 16.5287 127.371 16.2836 127.269 16.0577C127.105 15.6953 126.821 15.4001 126.466 15.2213C126.11 15.0425 125.704 14.9907 125.315 15.0747C124.926 15.1586 124.577 15.3732 124.327 15.6827C124.077 15.9923 123.94 16.3782 123.939 16.7762V22.0022C123.939 23.2253 124.261 24.4269 124.873 25.4862C125.485 26.5455 126.364 27.4252 127.423 28.0369C128.482 28.6486 129.684 28.9707 130.907 28.971C132.13 28.9712 133.332 28.6495 134.391 28.0382L134.541 27.9467C134.658 28.2024 134.835 28.426 135.057 28.5985C135.279 28.771 135.539 28.8872 135.816 28.9372C136.093 28.9871 136.377 28.9694 136.646 28.8855C136.914 28.8015 137.158 28.6539 137.357 28.4552C137.555 28.2565 137.703 28.0126 137.787 27.7444C137.871 27.4762 137.889 27.1916 137.84 26.9149C137.79 26.6383 137.674 26.3778 137.501 26.1557C137.329 25.9336 137.106 25.7566 136.85 25.6397C137.521 24.5454 137.875 23.286 137.871 22.0022V16.7762C137.871 16.3143 137.687 15.8714 137.361 15.5447C137.035 15.2179 136.592 15.034 136.13 15.0332Z" fill="white"/>
<defs>
<linearGradient id="paint0_linear_208:700" x1="2.53954" y1="26.9272" x2="26.3265" y2="3.14177" gradientUnits="userSpaceOnUse">
<stop stop-color="#00B0F1"/>
<stop offset="1" stop-color="#FF00FF"/>
</linearGradient>
<linearGradient id="paint1_linear_208:700" x1="16.4731" y1="3.14261" x2="40.2601" y2="26.928" gradientUnits="userSpaceOnUse">
<stop stop-color="#EE008F"/>
<stop offset="1" stop-color="#FEF100"/>
</linearGradient>
<linearGradient id="paint2_linear_208:700" x1="21.4001" y1="42.9003" x2="21.4001" y2="28.9668" gradientUnits="userSpaceOnUse">
<stop stop-color="#00BD45"/>
<stop offset="0.1" stop-color="#06BE43"/>
<stop offset="0.22" stop-color="#16C23F"/>
<stop offset="0.36" stop-color="#31C738"/>
<stop offset="0.51" stop-color="#57CF2D"/>
<stop offset="0.68" stop-color="#88D920"/>
<stop offset="0.85" stop-color="#C2E510"/>
<stop offset="1" stop-color="#FEF100"/>
</linearGradient>
</defs>
</svg>
