<svg width="152" height="44" viewBox="0 0 152 44" fill="none" xmlns="http://www.w3.org/2000/svg">
<path d="M148.622 12.3006C148.622 12.2661 148.637 12.2481 148.67 12.2481H149.35C149.422 12.2475 149.493 12.2618 149.559 12.2901C149.622 12.3173 149.679 12.3559 149.727 12.4041C149.776 12.4521 149.814 12.5092 149.841 12.5722C149.869 12.6377 149.883 12.7082 149.883 12.7793C149.883 12.8301 149.876 12.8806 149.862 12.9294C149.847 12.9744 149.828 13.0176 149.804 13.0585C149.778 13.0976 149.748 13.1334 149.713 13.165C149.68 13.1976 149.641 13.225 149.599 13.246L149.886 13.8118C149.887 13.8197 149.89 13.8273 149.894 13.8343C149.895 13.8418 149.895 13.8494 149.894 13.8568C149.894 13.8793 149.88 13.8899 149.855 13.8899H149.598C149.586 13.8902 149.574 13.8863 149.564 13.8789C149.555 13.8716 149.548 13.8611 149.545 13.8493L149.278 13.3196H148.941V13.8418C148.941 13.8733 148.924 13.8883 148.891 13.8883H148.669C148.656 13.8893 148.643 13.8855 148.633 13.8778C148.628 13.8731 148.625 13.8675 148.623 13.8612C148.621 13.855 148.62 13.8483 148.621 13.8418L148.622 12.3006ZM149.551 12.7808C149.551 12.7489 149.545 12.7174 149.533 12.6878C149.521 12.6588 149.504 12.632 149.484 12.6082C149.462 12.5852 149.437 12.5659 149.409 12.5512C149.379 12.5366 149.346 12.5279 149.313 12.5257H148.942V13.0374H149.275H149.317C149.35 13.0359 149.382 13.0277 149.412 13.0134C149.44 13.0003 149.466 12.9814 149.487 12.9579C149.507 12.9342 149.523 12.9074 149.535 12.8784C149.546 12.8471 149.552 12.8141 149.551 12.7808V12.7808Z" fill="black"/>
<path d="M149.26 11.6379C149.543 11.6379 149.819 11.7217 150.055 11.8789C150.29 12.036 150.473 12.2594 150.581 12.5207C150.69 12.7821 150.718 13.0696 150.663 13.3471C150.607 13.6245 150.471 13.8793 150.271 14.0793C150.071 14.2794 149.816 14.4156 149.539 14.4708C149.262 14.5259 148.974 14.4976 148.713 14.3894C148.451 14.2811 148.228 14.0978 148.071 13.8626C147.914 13.6274 147.83 13.3509 147.83 13.0681C147.83 12.6889 147.981 12.3253 148.249 12.0572C148.517 11.7891 148.881 11.6383 149.26 11.6379V11.6379ZM149.26 11.3242C148.797 11.3242 148.354 11.5079 148.027 11.835C147.7 12.162 147.516 12.6056 147.516 13.0681V13.0681C147.516 13.297 147.561 13.5237 147.649 13.7352C147.737 13.9466 147.865 14.1388 148.027 14.3006C148.189 14.4624 148.381 14.5907 148.593 14.6782C148.804 14.7657 149.031 14.8106 149.26 14.8104C149.489 14.8104 149.715 14.7653 149.927 14.6778C150.138 14.5902 150.33 14.4619 150.492 14.3001C150.654 14.1383 150.782 13.9462 150.87 13.7348C150.957 13.5234 151.002 13.2969 151.002 13.0681V13.0681C151.002 12.8391 150.958 12.6124 150.87 12.4008C150.783 12.1893 150.654 11.997 150.492 11.8351C150.331 11.6731 150.139 11.5446 149.927 11.457C149.716 11.3693 149.489 11.3242 149.26 11.3242Z" fill="black"/>
<path d="M28.867 8.06777C28.867 9.91527 28.1331 11.6871 26.8267 12.9935C25.5204 14.2999 23.7485 15.0338 21.901 15.0338C20.0531 15.0338 18.2809 15.7678 16.9743 17.0745C15.6676 18.3812 14.9335 20.1534 14.9335 22.0013C14.9335 23.3794 14.5249 24.7265 13.7592 25.8724C12.9935 27.0182 11.9053 27.9112 10.632 28.4385C9.35881 28.9659 7.9578 29.1038 6.60619 28.8348C5.25459 28.5658 4.0131 27.9021 3.03874 26.9275C2.06438 25.9529 1.40091 24.7113 1.13223 23.3596C0.863561 22.008 1.00175 20.607 1.52934 19.3339C2.05692 18.0608 2.9502 16.9727 4.09619 16.2073C5.24219 15.4419 6.58943 15.0335 7.96754 15.0338C9.81504 15.0338 11.5869 14.2999 12.8932 12.9935C14.1996 11.6871 14.9335 9.91527 14.9335 8.06777C14.92 7.14428 15.0902 6.22732 15.4342 5.3702C15.7782 4.51308 16.2892 3.73291 16.9375 3.07506C17.5858 2.41721 18.3584 1.89481 19.2103 1.53824C20.0623 1.18167 20.9767 0.998047 21.9003 0.998047C22.8239 0.998047 23.7382 1.18167 24.5902 1.53824C25.4422 1.89481 26.2148 2.41721 26.8631 3.07506C27.5113 3.73291 28.0223 4.51308 28.3664 5.3702C28.7104 6.22732 28.8806 7.14428 28.867 8.06777V8.06777Z" fill="url(#paint0_linear_164:4888)"/>
<path d="M42.8011 22.0021C42.8147 22.9256 42.6445 23.8426 42.3005 24.6997C41.9564 25.5568 41.4454 26.337 40.7971 26.9948C40.1489 27.6527 39.3763 28.1751 38.5243 28.5316C37.6723 28.8882 36.758 29.0718 35.8344 29.0718C34.9108 29.0718 33.9964 28.8882 33.1444 28.5316C32.2924 28.1751 31.5199 27.6527 30.8716 26.9948C30.2233 26.337 29.7123 25.5568 29.3683 24.6997C29.0243 23.8426 28.8541 22.9256 28.8676 22.0021C28.8676 20.1545 28.1338 18.3825 26.8274 17.0759C25.5211 15.7693 23.7493 15.035 21.9016 15.0346C20.5235 15.0349 19.1761 14.6265 18.0301 13.861C16.8841 13.0955 15.9908 12.0074 15.4633 10.7342C14.9357 9.46095 14.7976 8.05989 15.0664 6.70819C15.3352 5.35649 15.9988 4.11486 16.9734 3.14035C17.9479 2.16583 19.1895 1.50221 20.5412 1.23342C21.8929 0.964623 23.294 1.10273 24.5672 1.63027C25.8404 2.15781 26.9285 3.05108 27.694 4.19711C28.4595 5.34314 28.8679 6.69044 28.8676 8.06861C28.8676 9.91611 29.6015 11.6879 30.9079 12.9943C32.2143 14.3007 33.9861 15.0346 35.8336 15.0346C37.6815 15.0346 39.4537 15.7687 40.7604 17.0753C42.0671 18.382 42.8011 20.1542 42.8011 22.0021Z" fill="url(#paint1_linear_164:4888)"/>
<path d="M21.9013 42.9022C25.7494 42.9022 28.869 39.7826 28.869 35.9345C28.869 32.0863 25.7494 28.9668 21.9013 28.9668C18.0531 28.9668 14.9336 32.0863 14.9336 35.9345C14.9336 39.7826 18.0531 42.9022 21.9013 42.9022Z" fill="url(#paint2_linear_164:4888)"/>
<path d="M115.729 15.0352C114.351 15.0349 113.003 15.4433 111.857 16.2088C110.711 16.9743 109.818 18.0625 109.29 19.3357C108.763 20.609 108.625 22.0101 108.894 23.3618C109.162 24.7135 109.826 25.9552 110.801 26.9297C111.775 27.9043 113.017 28.5679 114.368 28.8367C115.72 29.1055 117.121 28.9674 118.395 28.4399C119.668 27.9123 120.756 27.019 121.521 25.8729C122.287 24.7269 122.695 23.3795 122.695 22.0013C122.695 20.1539 121.961 18.3823 120.654 17.0759C119.348 15.7696 117.576 15.0356 115.729 15.0352V15.0352ZM115.729 25.4844C115.04 25.4844 114.367 25.2802 113.794 24.8974C113.221 24.5147 112.775 23.9707 112.511 23.3343C112.247 22.6978 112.178 21.9975 112.313 21.3218C112.447 20.6462 112.779 20.0255 113.266 19.5384C113.753 19.0513 114.374 18.7196 115.049 18.5852C115.725 18.4508 116.425 18.5198 117.062 18.7834C117.698 19.047 118.242 19.4934 118.625 20.0662C119.008 20.639 119.212 21.3125 119.212 22.0013C119.212 22.4588 119.122 22.9118 118.947 23.3345C118.772 23.7572 118.516 24.1412 118.192 24.4647C117.869 24.7882 117.485 25.0447 117.062 25.2197C116.639 25.3947 116.186 25.4846 115.729 25.4844Z" fill="black"/>
<path d="M81.2499 25.9961C81.5767 26.3225 81.7605 26.7654 81.7608 27.2273C81.761 27.6892 81.5778 28.1323 81.2514 28.4592C80.925 28.786 80.4821 28.9698 80.0202 28.97C79.5583 28.9703 79.1151 28.7871 78.7883 28.4607V28.4607L74.7997 24.4661L70.8066 28.4517C70.5632 28.6957 70.2529 28.862 69.9149 28.9296C69.577 28.9971 69.2266 28.9629 68.9081 28.8312C68.5896 28.6995 68.3173 28.4762 68.1258 28.1897C67.9342 27.9032 67.832 27.5663 67.832 27.2216V13.0658C67.832 12.6039 68.0155 12.1609 68.3421 11.8343C68.6687 11.5077 69.1117 11.3242 69.5736 11.3242C70.0355 11.3242 70.4784 11.5077 70.805 11.8343C71.1316 12.1609 71.3151 12.6039 71.3151 13.0658V23.0215L78.7913 15.5513C79.1158 15.2225 79.5575 15.0361 80.0194 15.033C80.4814 15.0299 80.9256 15.2104 81.2544 15.5348C81.5832 15.8593 81.7697 16.301 81.7728 16.7629C81.7759 17.2249 81.5953 17.6691 81.2709 17.9979C81.2653 18.0043 81.2593 18.0103 81.2529 18.0159L77.2643 22.0015L81.2499 25.9961Z" fill="black"/>
<path d="M107.019 16.7746C107.016 16.4317 106.913 16.0972 106.721 15.8128C106.53 15.5285 106.258 15.3071 105.941 15.1764C105.624 15.0457 105.276 15.0115 104.939 15.0781C104.603 15.1446 104.294 15.309 104.05 15.5506C103.902 15.6997 103.782 15.8739 103.695 16.0651C103.594 16.2907 103.543 16.5352 103.545 16.7821V21.9106C103.545 21.9406 103.545 21.9706 103.545 22.0006C103.545 22.0306 103.545 22.0606 103.545 22.0906C103.539 22.3539 103.503 22.6156 103.437 22.8706C103.244 23.6196 102.808 24.2833 102.197 24.7573C101.586 25.2312 100.835 25.4885 100.062 25.4885C99.2884 25.4885 98.5371 25.2312 97.9261 24.7573C97.3151 24.2833 96.8791 23.6196 96.6867 22.8706C96.6211 22.6196 96.5843 22.362 96.5772 22.1026C96.5772 22.0696 96.5772 22.0351 96.5772 22.0006C96.5772 21.9661 96.5772 21.9316 96.5772 21.8986V16.8496C96.5772 16.3878 96.3938 15.9448 96.0672 15.6182C95.7406 15.2916 95.2976 15.1081 94.8357 15.1081C94.3739 15.1081 93.9309 15.2916 93.6043 15.6182C93.2777 15.9448 93.0942 16.3878 93.0942 16.8496V22.1506C93.1176 23.3224 93.4376 24.4691 94.0242 25.4836C94.6375 26.5413 95.5166 27.4203 96.5742 28.0336L96.6837 28.0951C97.7169 28.6664 98.8782 28.966 100.059 28.966C101.239 28.966 102.401 28.6664 103.434 28.0951L103.542 28.0336V28.8751C103.542 28.9051 103.542 28.9336 103.542 28.9651C103.541 29.8888 103.174 30.7744 102.521 31.4275C101.868 32.0806 100.982 32.4477 100.059 32.4481C99.83 32.4452 99.603 32.4873 99.3906 32.5721C99.1782 32.6569 98.9845 32.7827 98.8207 32.9423C98.6569 33.1019 98.5262 33.2922 98.4359 33.5024C98.3457 33.7126 98.2977 33.9384 98.2947 34.1671C98.2918 34.3958 98.3339 34.6229 98.4187 34.8353C98.5035 35.0477 98.6293 35.2413 98.7889 35.4052C98.9485 35.569 99.1388 35.6997 99.349 35.79C99.5592 35.8802 99.785 35.9282 100.014 35.9311H100.104C101.943 35.9192 103.704 35.1801 105 33.875C106.297 32.5699 107.025 30.8049 107.025 28.9651C107.025 28.9246 107.025 28.8841 107.025 28.8451L107.019 16.7746Z" fill="black"/>
<path d="M62.6081 19.1123C62.9276 19.2248 63.2396 19.3538 63.5471 19.4978L63.5996 19.5218C63.8203 19.6269 64.0604 19.6851 64.3047 19.6928H64.4502H64.5357L64.6182 19.6823L64.6902 19.6688H64.7022L64.7667 19.6538H64.7847L64.8552 19.6343C64.8796 19.6282 64.9036 19.6207 64.9272 19.6118L64.9812 19.5923L65.0202 19.5758L65.0577 19.5608L65.0952 19.5428L65.1327 19.5263L65.1687 19.5068L65.2047 19.4873L65.2392 19.4678L65.2737 19.4468L65.3052 19.4273L65.3427 19.4018L65.3742 19.3793L65.4087 19.3538L65.4402 19.3298C65.4762 19.3018 65.5107 19.2718 65.5437 19.2398C65.5559 19.2296 65.5674 19.2186 65.5782 19.2068L65.5917 19.1948L65.6067 19.1783C65.6382 19.1453 65.6697 19.1108 65.6997 19.0748L65.7447 19.0193C65.7627 18.9953 65.7807 18.9713 65.7972 18.9458L65.8362 18.8858C65.8504 18.864 65.8634 18.8415 65.8752 18.8183C65.9022 18.7729 65.9262 18.7258 65.9472 18.6773C65.9547 18.6593 65.9637 18.6413 65.9697 18.6233C65.9757 18.6053 65.9907 18.5723 65.9997 18.5453C66.0087 18.5183 66.0072 18.5258 66.0102 18.5153V18.5063C66.0102 18.4883 66.0222 18.4703 66.0267 18.4523L66.0447 18.3878C66.044 18.3793 66.044 18.3708 66.0447 18.3623C66.0447 18.3398 66.0552 18.3173 66.0582 18.2948L66.0717 18.2228V18.2153C66.0717 18.1898 66.0792 18.1628 66.0822 18.1373V18.1283C66.0822 18.1028 66.0822 18.0773 66.0822 18.0518C66.0822 18.0233 66.0822 17.9948 66.0822 17.9663C66.0823 17.6899 66.0167 17.4175 65.8907 17.1715C65.7647 16.9256 65.582 16.7131 65.3577 16.5517L65.3142 16.5232L65.2707 16.4932L65.2122 16.4602C65.2012 16.4529 65.1897 16.4463 65.1777 16.4407V16.4407L65.1462 16.4242L65.1327 16.4167L65.1087 16.4062L65.0127 16.3597C64.2383 15.9971 63.4318 15.7073 62.6036 15.4942C60.318 14.9082 57.9215 14.9082 55.6359 15.4942C55.1328 15.6238 54.6375 15.7821 54.1524 15.9682C53.8404 16.0867 53.5314 16.2172 53.2284 16.3597L53.1309 16.4062C53.0919 16.4242 53.0529 16.4452 53.0154 16.4662L52.9719 16.4917L52.9554 16.5022L52.9104 16.5322C52.6767 16.6921 52.4856 16.9065 52.3536 17.1569C52.2216 17.4074 52.1527 17.6862 52.1528 17.9693V18.1193C52.1776 18.4123 52.2768 18.6942 52.4408 18.9383C52.5198 19.0572 52.613 19.166 52.7184 19.2623L52.9284 19.4228L60.6326 25.3945C60.1318 25.4672 59.6265 25.5038 59.1205 25.504C57.9332 25.5046 56.7546 25.3017 55.6359 24.904C55.3207 24.7931 55.0113 24.6665 54.7089 24.5245L54.6444 24.4945C54.4077 24.3819 54.149 24.3235 53.8869 24.3234H53.7849H53.7069L53.6289 24.3339L53.5509 24.3475C53.2196 24.4145 52.915 24.5765 52.6742 24.8136C52.4333 25.0507 52.2666 25.3527 52.1942 25.6828C52.1219 26.0129 52.1471 26.357 52.2668 26.6731C52.3865 26.9891 52.5955 27.2636 52.8684 27.463L52.9104 27.493L52.9554 27.523L52.9719 27.5335L53.0154 27.559C53.0529 27.5815 53.0919 27.601 53.1309 27.6205L53.2284 27.6655C53.9998 28.0278 54.8033 28.3175 55.6284 28.5311C57.914 29.1171 60.3105 29.1171 62.5961 28.5311C63.0992 28.4017 63.5945 28.2439 64.0796 28.0585C64.3887 27.94 64.6947 27.8095 64.9947 27.6685C65.0307 27.6535 65.0652 27.6355 65.1012 27.619C65.1741 27.5849 65.2443 27.5453 65.3112 27.5005L65.3457 27.4765C65.5667 27.3195 65.748 27.1132 65.8753 26.8738C66.0026 26.6344 66.0722 26.3687 66.0788 26.0977C66.0854 25.8266 66.0286 25.5578 65.9131 25.3126C65.7975 25.0674 65.6263 24.8525 65.4132 24.685L65.3052 24.601L57.5995 18.6293C58.1008 18.5571 58.6066 18.521 59.113 18.5213C60.3033 18.5173 61.4854 18.7171 62.6081 19.1123Z" fill="black"/>
<path d="M87.9281 11.8701C85.3624 14.6198 83.9355 18.2404 83.9355 22.0012C83.9355 25.7619 85.3624 29.3825 87.9281 32.1322C88.9916 33.2767 90.9115 32.4982 90.9115 30.9322V30.8812C90.9082 30.4506 90.7427 30.0371 90.4481 29.7232C90.2231 29.4787 90.0085 29.2267 89.806 28.9642C88.265 26.9684 87.429 24.5181 87.429 21.9967C87.429 19.4752 88.265 17.0249 89.806 15.0292C90.0085 14.7667 90.2231 14.5147 90.4481 14.2702C90.743 13.9564 90.9085 13.5428 90.9115 13.1121V13.0612C90.9115 11.5012 88.9916 10.7271 87.9281 11.8701Z" fill="black"/>
<path d="M145.787 15.0361C145.178 13.8879 144.421 12.8239 143.537 11.8711C142.474 10.7281 140.554 11.5051 140.554 13.0711V13.1221C140.557 13.5531 140.722 13.9671 141.017 14.2816C141.242 14.5246 141.456 14.7776 141.659 15.0406C143.202 17.0354 144.039 19.4857 144.039 22.0074C144.039 24.529 143.202 26.9794 141.659 28.9741C141.459 29.2371 141.246 29.4901 141.019 29.7331C140.724 30.0471 140.559 30.4606 140.555 30.8911V30.9421C140.555 32.5036 142.475 33.2821 143.539 32.1421C145.642 29.8781 146.989 27.0154 147.393 23.9512C147.796 20.887 147.235 17.7733 145.789 15.0421L145.787 15.0361Z" fill="black"/>
<path d="M136.63 15.0332C136.401 15.033 136.175 15.078 135.963 15.1655C135.751 15.253 135.559 15.3814 135.397 15.5433C135.235 15.7052 135.107 15.8974 135.02 16.109C134.932 16.3205 134.887 16.5473 134.887 16.7762V22.0024C134.897 22.466 134.814 22.9268 134.643 23.3579C134.472 23.789 134.217 24.1817 133.893 24.513C133.568 24.8442 133.181 25.1074 132.754 25.2871C132.326 25.4667 131.867 25.5593 131.403 25.5593C130.94 25.5593 130.481 25.4667 130.053 25.2871C129.626 25.1074 129.238 24.8442 128.914 24.513C128.59 24.1817 128.334 23.789 128.164 23.3579C127.993 22.9268 127.91 22.466 127.92 22.0024V16.7762C127.922 16.5287 127.871 16.2836 127.77 16.0577C127.605 15.6953 127.321 15.4001 126.966 15.2213C126.61 15.0425 126.204 14.9907 125.815 15.0747C125.426 15.1586 125.077 15.3732 124.827 15.6828C124.577 15.9923 124.44 16.3782 124.439 16.7762V22.0024C124.439 23.2256 124.761 24.4272 125.373 25.4865C125.985 26.5459 126.864 27.4256 127.923 28.0373C128.983 28.649 130.184 28.9712 131.407 28.9714C132.631 28.9716 133.832 28.6499 134.892 28.0385L135.042 27.947C135.158 28.2028 135.335 28.4264 135.557 28.5989C135.779 28.7714 136.04 28.8876 136.316 28.9376C136.593 28.9875 136.878 28.9698 137.146 28.8859C137.414 28.802 137.658 28.6543 137.857 28.4556C138.056 28.2569 138.204 28.013 138.288 27.7448C138.372 27.4766 138.39 27.1919 138.34 26.9153C138.29 26.6386 138.174 26.3781 138.002 26.156C137.829 25.934 137.606 25.7569 137.35 25.64C138.022 24.5457 138.375 23.2862 138.372 22.0024V16.7762C138.371 16.3143 138.188 15.8715 137.861 15.5447C137.535 15.2179 137.092 15.034 136.63 15.0332V15.0332Z" fill="black"/>
<defs>
<linearGradient id="paint0_linear_164:4888" x1="3.04004" y1="26.9273" x2="26.827" y2="3.14177" gradientUnits="userSpaceOnUse">
<stop stop-color="#00B0F1"/>
<stop offset="1" stop-color="#FF00FF"/>
</linearGradient>
<linearGradient id="paint1_linear_164:4888" x1="16.9741" y1="3.14261" x2="40.7611" y2="26.9281" gradientUnits="userSpaceOnUse">
<stop stop-color="#EE008F"/>
<stop offset="1" stop-color="#FEF100"/>
</linearGradient>
<linearGradient id="paint2_linear_164:4888" x1="21.9013" y1="42.9007" x2="21.9013" y2="28.9668" gradientUnits="userSpaceOnUse">
<stop stop-color="#00BD45"/>
<stop offset="0.1" stop-color="#06BE43"/>
<stop offset="0.22" stop-color="#16C23F"/>
<stop offset="0.36" stop-color="#31C738"/>
<stop offset="0.51" stop-color="#57CF2D"/>
<stop offset="0.68" stop-color="#88D920"/>
<stop offset="0.85" stop-color="#C2E510"/>
<stop offset="1" stop-color="#FEF100"/>
</linearGradient>
</defs>
</svg>
