<svg width="151" height="44" viewBox="0 0 151 44" fill="none" xmlns="http://www.w3.org/2000/svg">
<path d="M148.122 12.3006C148.122 12.2661 148.137 12.2481 148.17 12.2481H148.85C148.922 12.2475 148.993 12.2618 149.058 12.2901C149.121 12.3173 149.178 12.3559 149.227 12.4041C149.275 12.4521 149.314 12.5092 149.341 12.5722C149.368 12.6377 149.383 12.7082 149.383 12.7793C149.383 12.8301 149.376 12.8806 149.362 12.9294C149.347 12.9744 149.327 13.0176 149.303 13.0585C149.278 13.0976 149.247 13.1334 149.213 13.165C149.179 13.1976 149.141 13.225 149.099 13.246L149.386 13.8118C149.387 13.8197 149.389 13.8273 149.393 13.8343C149.394 13.8418 149.394 13.8494 149.393 13.8568C149.393 13.8793 149.38 13.8899 149.354 13.8899H149.097C149.085 13.8902 149.074 13.8863 149.064 13.8789C149.054 13.8716 149.048 13.8611 149.045 13.8493L148.778 13.3196H148.44V13.8418C148.44 13.8733 148.424 13.8883 148.391 13.8883H148.169C148.156 13.8893 148.143 13.8855 148.132 13.8778C148.128 13.8731 148.124 13.8675 148.122 13.8612C148.12 13.855 148.12 13.8483 148.12 13.8418L148.122 12.3006ZM149.051 12.7808C149.051 12.7489 149.045 12.7174 149.033 12.6878C149.021 12.6588 149.004 12.632 148.983 12.6082C148.962 12.5852 148.936 12.5659 148.908 12.5512C148.878 12.5366 148.846 12.5279 148.812 12.5257H148.442V13.0374H148.775H148.817C148.85 13.0359 148.882 13.0277 148.911 13.0134C148.94 13.0003 148.965 12.9814 148.986 12.9579C149.007 12.9342 149.023 12.9074 149.034 12.8784C149.046 12.8471 149.051 12.8141 149.051 12.7808Z" fill="black"/>
<path d="M148.759 11.6379C149.042 11.6379 149.319 11.7217 149.554 11.8789C149.789 12.036 149.973 12.2594 150.081 12.5207C150.189 12.7821 150.217 13.0696 150.162 13.3471C150.107 13.6245 149.971 13.8793 149.771 14.0793C149.571 14.2794 149.316 14.4156 149.038 14.4708C148.761 14.5259 148.473 14.4976 148.212 14.3894C147.951 14.2811 147.727 14.0978 147.57 13.8626C147.413 13.6274 147.329 13.3509 147.329 13.0681C147.33 12.6889 147.48 12.3253 147.749 12.0572C148.017 11.7891 148.38 11.6383 148.759 11.6379ZM148.759 11.3242C148.297 11.3242 147.853 11.5079 147.526 11.835C147.199 12.162 147.016 12.6056 147.016 13.0681C147.016 13.297 147.061 13.5237 147.148 13.7352C147.236 13.9466 147.365 14.1388 147.526 14.3006C147.688 14.4624 147.881 14.5907 148.092 14.6782C148.304 14.7657 148.531 14.8106 148.759 14.8104C148.988 14.8104 149.215 14.7653 149.426 14.6778C149.638 14.5902 149.83 14.4619 149.991 14.3001C150.153 14.1383 150.282 13.9462 150.369 13.7348C150.457 13.5234 150.502 13.2969 150.502 13.0681C150.502 12.8391 150.457 12.6124 150.37 12.4008C150.282 12.1893 150.154 11.997 149.992 11.8351C149.83 11.6731 149.638 11.5446 149.427 11.457C149.215 11.3693 148.988 11.3242 148.759 11.3242Z" fill="black"/>
<path d="M28.3666 8.06777C28.3666 9.91527 27.6326 11.6871 26.3263 12.9935C25.0199 14.2999 23.248 15.0338 21.4006 15.0338C19.5527 15.0338 17.7804 15.7678 16.4738 17.0745C15.1671 18.3812 14.4331 20.1534 14.4331 22.0013C14.4331 23.3794 14.0244 24.7265 13.2587 25.8724C12.493 27.0182 11.4048 27.9112 10.1315 28.4385C8.85832 28.9659 7.45731 29.1038 6.10571 28.8348C4.7541 28.5658 3.51262 27.9021 2.53825 26.9275C1.56389 25.9529 0.900419 24.7113 0.631746 23.3596C0.363073 22.008 0.501266 20.607 1.02885 19.3339C1.55643 18.0608 2.44971 16.9727 3.59571 16.2073C4.7417 15.4419 6.08895 15.0335 7.46705 15.0338C9.31455 15.0338 11.0864 14.2999 12.3928 12.9935C13.6991 11.6871 14.4331 9.91527 14.4331 8.06777C14.4195 7.14428 14.5897 6.22732 14.9337 5.3702C15.2777 4.51308 15.7888 3.73291 16.437 3.07506C17.0853 2.41721 17.8579 1.89481 18.7099 1.53824C19.5618 1.18167 20.4762 0.998047 21.3998 0.998047C22.3234 0.998047 23.2378 1.18167 24.0897 1.53824C24.9417 1.89481 25.7143 2.41721 26.3626 3.07506C27.0108 3.73291 27.5219 4.51308 27.8659 5.3702C28.2099 6.22732 28.3801 7.14428 28.3666 8.06777Z" fill="url(#paint0_linear_208:679)"/>
<path d="M42.3001 22.0021C42.3137 22.9256 42.1435 23.8426 41.7995 24.6997C41.4554 25.5568 40.9444 26.337 40.2962 26.9948C39.6479 27.6527 38.8753 28.1751 38.0233 28.5316C37.1714 28.8882 36.257 29.0718 35.3334 29.0718C34.4098 29.0718 33.4954 28.8882 32.6435 28.5316C31.7915 28.1751 31.0189 27.6527 30.3706 26.9948C29.7224 26.337 29.2113 25.5568 28.8673 24.6997C28.5233 23.8426 28.3531 22.9256 28.3666 22.0021C28.3666 20.1545 27.6328 18.3825 26.3264 17.0759C25.0201 15.7693 23.2483 15.035 21.4006 15.0346C20.0225 15.0349 18.6752 14.6265 17.5291 13.861C16.3831 13.0955 15.4898 12.0074 14.9623 10.7342C14.4348 9.46095 14.2967 8.05989 14.5654 6.70819C14.8342 5.35649 15.4979 4.11486 16.4724 3.14035C17.4469 2.16583 18.6885 1.50221 20.0402 1.23342C21.3919 0.964623 22.793 1.10273 24.0662 1.63027C25.3394 2.15781 26.4276 3.05108 27.193 4.19711C27.9585 5.34314 28.3669 6.69044 28.3666 8.06861C28.3666 9.91611 29.1006 11.6879 30.4069 12.9943C31.7133 14.3007 33.4851 15.0346 35.3326 15.0346C37.1805 15.0346 38.9528 15.7687 40.2594 17.0753C41.5661 18.382 42.3001 20.1542 42.3001 22.0021Z" fill="url(#paint1_linear_208:679)"/>
<path d="M21.4013 42.9022C25.2494 42.9022 28.369 39.7826 28.369 35.9345C28.369 32.0863 25.2494 28.9668 21.4013 28.9668C17.5531 28.9668 14.4336 32.0863 14.4336 35.9345C14.4336 39.7826 17.5531 42.9022 21.4013 42.9022Z" fill="url(#paint2_linear_208:679)"/>
<path d="M115.229 15.0352C113.851 15.0349 112.503 15.4433 111.357 16.2088C110.211 16.9743 109.318 18.0625 108.79 19.3357C108.263 20.609 108.125 22.0101 108.394 23.3618C108.662 24.7135 109.326 25.9552 110.301 26.9297C111.275 27.9043 112.517 28.5679 113.868 28.8367C115.22 29.1055 116.621 28.9674 117.895 28.4399C119.168 27.9123 120.256 27.019 121.021 25.8729C121.787 24.7269 122.195 23.3795 122.195 22.0013C122.195 20.1539 121.461 18.3823 120.154 17.0759C118.848 15.7696 117.076 15.0356 115.229 15.0352ZM115.229 25.4844C114.54 25.4844 113.867 25.2802 113.294 24.8974C112.721 24.5147 112.275 23.9707 112.011 23.3343C111.747 22.6978 111.678 21.9975 111.813 21.3218C111.947 20.6462 112.279 20.0255 112.766 19.5384C113.253 19.0513 113.874 18.7196 114.549 18.5852C115.225 18.4508 115.925 18.5198 116.562 18.7834C117.198 19.047 117.742 19.4934 118.125 20.0662C118.508 20.639 118.712 21.3125 118.712 22.0013C118.712 22.4588 118.622 22.9118 118.447 23.3345C118.272 23.7572 118.016 24.1412 117.692 24.4647C117.369 24.7882 116.985 25.0447 116.562 25.2197C116.139 25.3947 115.686 25.4846 115.229 25.4844Z" fill="black"/>
<path d="M80.7499 25.9961C81.0767 26.3225 81.2605 26.7654 81.2608 27.2273C81.261 27.6892 81.0778 28.1323 80.7514 28.4592C80.425 28.786 79.9821 28.9698 79.5202 28.97C79.0583 28.9703 78.6151 28.7871 78.2883 28.4607L74.2997 24.4661L70.3066 28.4517C70.0632 28.6957 69.7529 28.862 69.4149 28.9296C69.077 28.9971 68.7266 28.9629 68.4081 28.8312C68.0896 28.6995 67.8173 28.4762 67.6258 28.1897C67.4342 27.9032 67.332 27.5663 67.332 27.2216V13.0658C67.332 12.6039 67.5155 12.1609 67.8421 11.8343C68.1687 11.5077 68.6117 11.3242 69.0736 11.3242C69.5355 11.3242 69.9784 11.5077 70.305 11.8343C70.6316 12.1609 70.8151 12.6039 70.8151 13.0658V23.0215L78.2913 15.5513C78.6158 15.2225 79.0575 15.0361 79.5194 15.033C79.9814 15.0299 80.4256 15.2104 80.7544 15.5348C81.0832 15.8593 81.2697 16.301 81.2728 16.7629C81.2759 17.2249 81.0953 17.6691 80.7709 17.9979C80.7653 18.0043 80.7593 18.0103 80.7529 18.0159L76.7643 22.0015L80.7499 25.9961Z" fill="black"/>
<path d="M106.518 16.7746C106.516 16.4317 106.412 16.0972 106.221 15.8128C106.029 15.5285 105.758 15.3071 105.441 15.1764C105.124 15.0457 104.775 15.0115 104.439 15.0781C104.102 15.1446 103.793 15.309 103.55 15.5506C103.402 15.6997 103.281 15.8739 103.194 16.0651C103.094 16.2907 103.043 16.5352 103.044 16.7821V21.9106C103.044 21.9406 103.044 21.9706 103.044 22.0006C103.044 22.0306 103.044 22.0606 103.044 22.0906C103.038 22.3539 103.002 22.6156 102.936 22.8706C102.744 23.6196 102.308 24.2833 101.697 24.7573C101.086 25.2312 100.335 25.4885 99.5612 25.4885C98.788 25.4885 98.0366 25.2312 97.4256 24.7573C96.8146 24.2833 96.3786 23.6196 96.1862 22.8706C96.1206 22.6196 96.0838 22.362 96.0767 22.1026C96.0767 22.0696 96.0767 22.0351 96.0767 22.0006C96.0767 21.9661 96.0767 21.9316 96.0767 21.8986V16.8496C96.0767 16.3878 95.8933 15.9448 95.5667 15.6182C95.2401 15.2916 94.7971 15.1081 94.3352 15.1081C93.8734 15.1081 93.4304 15.2916 93.1038 15.6182C92.7772 15.9448 92.5938 16.3878 92.5938 16.8496V22.1506C92.6171 23.3224 92.9371 24.4691 93.5237 25.4836C94.137 26.5413 95.0161 27.4203 96.0737 28.0336L96.1832 28.0951C97.2164 28.6664 98.3777 28.966 99.5582 28.966C100.739 28.966 101.9 28.6664 102.933 28.0951L103.041 28.0336V28.8751C103.041 28.9051 103.041 28.9336 103.041 28.9651C103.041 29.8888 102.674 30.7744 102.021 31.4275C101.368 32.0806 100.482 32.4477 99.5582 32.4481C99.3296 32.4452 99.1025 32.4873 98.8901 32.5721C98.6777 32.6569 98.484 32.7827 98.3202 32.9423C98.1564 33.1019 98.0257 33.2922 97.9354 33.5024C97.8452 33.7126 97.7972 33.9384 97.7942 34.1671C97.7913 34.3958 97.8334 34.6229 97.9182 34.8353C98.003 35.0477 98.1288 35.2413 98.2884 35.4052C98.448 35.569 98.6384 35.6997 98.8485 35.79C99.0587 35.8802 99.2846 35.9282 99.5133 35.9311H99.6032C101.443 35.9192 103.203 35.1801 104.5 33.875C105.797 32.5699 106.524 30.8049 106.524 28.9651C106.524 28.9246 106.524 28.8841 106.524 28.8451L106.518 16.7746Z" fill="black"/>
<path d="M62.1076 19.1123C62.4271 19.2248 62.7391 19.3538 63.0466 19.4978L63.0991 19.5218C63.3198 19.6269 63.5599 19.6851 63.8042 19.6928H63.9497H64.0352L64.1177 19.6823L64.1897 19.6688H64.2017L64.2662 19.6538H64.2842L64.3547 19.6343C64.3791 19.6282 64.4031 19.6207 64.4267 19.6118L64.4807 19.5923L64.5197 19.5758L64.5572 19.5608L64.5947 19.5428L64.6322 19.5263L64.6682 19.5068L64.7042 19.4873L64.7387 19.4678L64.7732 19.4468L64.8047 19.4273L64.8422 19.4018L64.8737 19.3793L64.9082 19.3538L64.9397 19.3298C64.9757 19.3018 65.0102 19.2718 65.0432 19.2398C65.0554 19.2296 65.0669 19.2186 65.0777 19.2068L65.0912 19.1948L65.1062 19.1783C65.1377 19.1453 65.1692 19.1108 65.1992 19.0748L65.2442 19.0193C65.2622 18.9953 65.2802 18.9713 65.2967 18.9458L65.3357 18.8858C65.3499 18.864 65.3629 18.8415 65.3747 18.8183C65.4017 18.7729 65.4257 18.7258 65.4467 18.6773C65.4542 18.6593 65.4632 18.6413 65.4692 18.6233C65.4752 18.6053 65.4902 18.5723 65.4992 18.5453C65.5082 18.5183 65.5067 18.5258 65.5097 18.5153V18.5063C65.5097 18.4883 65.5217 18.4703 65.5262 18.4523L65.5442 18.3878C65.5435 18.3793 65.5435 18.3708 65.5442 18.3623C65.5442 18.3398 65.5547 18.3173 65.5577 18.2948L65.5712 18.2228V18.2153C65.5712 18.1898 65.5787 18.1628 65.5817 18.1373V18.1283C65.5817 18.1028 65.5817 18.0773 65.5817 18.0518C65.5817 18.0233 65.5817 17.9948 65.5817 17.9663C65.5818 17.6899 65.5162 17.4175 65.3902 17.1715C65.2642 16.9256 65.0815 16.7131 64.8572 16.5517L64.8137 16.5232L64.7702 16.4932L64.7117 16.4602C64.7007 16.4529 64.6892 16.4463 64.6772 16.4407L64.6457 16.4242L64.6322 16.4167L64.6082 16.4062L64.5122 16.3597C63.7378 15.9971 62.9313 15.7073 62.1031 15.4942C59.8175 14.9082 57.421 14.9082 55.1354 15.4942C54.6323 15.6238 54.137 15.7821 53.6519 15.9682C53.3399 16.0867 53.0309 16.2172 52.7279 16.3597L52.6304 16.4062C52.5914 16.4242 52.5524 16.4452 52.5149 16.4662L52.4714 16.4917L52.4549 16.5022L52.4099 16.5322C52.1762 16.6921 51.9851 16.9065 51.8531 17.1569C51.7211 17.4074 51.6522 17.6862 51.6523 17.9693V18.1193C51.6771 18.4123 51.7763 18.6942 51.9404 18.9383C52.0193 19.0572 52.1125 19.166 52.2179 19.2623L52.4279 19.4228L60.1321 25.3945C59.6313 25.4672 59.126 25.5038 58.62 25.504C57.4327 25.5046 56.2541 25.3017 55.1354 24.904C54.8202 24.7931 54.5108 24.6665 54.2084 24.5245L54.1439 24.4945C53.9072 24.3819 53.6485 24.3235 53.3864 24.3234H53.2844H53.2064L53.1284 24.3339L53.0504 24.3475C52.7191 24.4145 52.4145 24.5765 52.1737 24.8136C51.9328 25.0507 51.7661 25.3527 51.6937 25.6828C51.6214 26.0129 51.6466 26.357 51.7663 26.6731C51.886 26.9891 52.095 27.2636 52.3679 27.463L52.4099 27.493L52.4549 27.523L52.4714 27.5335L52.5149 27.559C52.5524 27.5815 52.5914 27.601 52.6304 27.6205L52.7279 27.6655C53.4994 28.0278 54.3028 28.3175 55.1279 28.5311C57.4135 29.1171 59.81 29.1171 62.0956 28.5311C62.5987 28.4017 63.094 28.2439 63.5792 28.0585C63.8882 27.94 64.1942 27.8095 64.4942 27.6685C64.5302 27.6535 64.5647 27.6355 64.6007 27.619C64.6736 27.5849 64.7438 27.5453 64.8107 27.5005L64.8452 27.4765C65.0662 27.3195 65.2475 27.1132 65.3748 26.8738C65.5021 26.6344 65.5718 26.3687 65.5783 26.0977C65.5849 25.8266 65.5281 25.5578 65.4126 25.3126C65.297 25.0674 65.1259 24.8525 64.9127 24.685L64.8047 24.601L57.099 18.6293C57.6003 18.5571 58.1061 18.521 58.6125 18.5213C59.8028 18.5173 60.9849 18.7171 62.1076 19.1123Z" fill="black"/>
<path d="M87.4281 11.8701C84.8624 14.6198 83.4355 18.2404 83.4355 22.0012C83.4355 25.7619 84.8624 29.3825 87.4281 32.1322C88.4916 33.2767 90.4115 32.4982 90.4115 30.9321V30.8812C90.4082 30.4506 90.2427 30.0371 89.9481 29.7232C89.7231 29.4787 89.5085 29.2267 89.306 28.9642C87.765 26.9684 86.929 24.5181 86.929 21.9967C86.929 19.4752 87.765 17.0249 89.306 15.0292C89.5085 14.7667 89.7231 14.5147 89.9481 14.2702C90.243 13.9564 90.4085 13.5428 90.4115 13.1121V13.0612C90.4115 11.5012 88.4916 10.7271 87.4281 11.8701Z" fill="black"/>
<path d="M145.287 15.0361C144.678 13.8879 143.921 12.8239 143.037 11.8711C141.974 10.7281 140.054 11.5051 140.054 13.0711V13.1221C140.057 13.5531 140.222 13.9671 140.517 14.2816C140.742 14.5246 140.956 14.7776 141.159 15.0406C142.702 17.0354 143.539 19.4857 143.539 22.0074C143.539 24.529 142.702 26.9794 141.159 28.9741C140.959 29.2371 140.746 29.4901 140.519 29.7331C140.224 30.0471 140.059 30.4606 140.055 30.8911V30.9421C140.055 32.5036 141.975 33.2821 143.039 32.1421C145.142 29.8781 146.489 27.0154 146.893 23.9512C147.296 20.887 146.735 17.7733 145.289 15.0421L145.287 15.0361Z" fill="black"/>
<path d="M136.13 15.0332C135.901 15.033 135.675 15.078 135.463 15.1655C135.251 15.253 135.059 15.3814 134.897 15.5433C134.735 15.7052 134.607 15.8974 134.52 16.109C134.432 16.3205 134.387 16.5473 134.387 16.7762V22.0024C134.397 22.466 134.314 22.9268 134.143 23.3579C133.972 23.789 133.717 24.1817 133.393 24.513C133.068 24.8442 132.681 25.1074 132.254 25.2871C131.826 25.4667 131.367 25.5593 130.903 25.5593C130.44 25.5593 129.981 25.4667 129.553 25.2871C129.126 25.1074 128.738 24.8442 128.414 24.513C128.09 24.1817 127.834 23.789 127.664 23.3579C127.493 22.9268 127.41 22.466 127.42 22.0024V16.7762C127.422 16.5287 127.371 16.2836 127.27 16.0577C127.105 15.6953 126.821 15.4001 126.466 15.2213C126.11 15.0425 125.704 14.9907 125.315 15.0747C124.926 15.1586 124.577 15.3732 124.327 15.6828C124.077 15.9923 123.94 16.3782 123.939 16.7762V22.0024C123.939 23.2256 124.261 24.4272 124.873 25.4865C125.485 26.5459 126.364 27.4256 127.423 28.0373C128.483 28.649 129.684 28.9712 130.907 28.9714C132.131 28.9716 133.332 28.6499 134.392 28.0385L134.542 27.947C134.658 28.2028 134.835 28.4264 135.057 28.5989C135.279 28.7714 135.54 28.8876 135.816 28.9376C136.093 28.9875 136.378 28.9698 136.646 28.8859C136.914 28.802 137.158 28.6543 137.357 28.4556C137.556 28.2569 137.704 28.013 137.788 27.7448C137.872 27.4766 137.89 27.1919 137.84 26.9153C137.79 26.6386 137.674 26.3781 137.502 26.156C137.329 25.934 137.106 25.7569 136.85 25.64C137.522 24.5457 137.875 23.2862 137.872 22.0024V16.7762C137.871 16.3143 137.688 15.8715 137.361 15.5447C137.035 15.2179 136.592 15.034 136.13 15.0332Z" fill="black"/>
<defs>
<linearGradient id="paint0_linear_208:679" x1="2.53955" y1="26.9273" x2="26.3265" y2="3.14177" gradientUnits="userSpaceOnUse">
<stop stop-color="#00B0F1"/>
<stop offset="1" stop-color="#FF00FF"/>
</linearGradient>
<linearGradient id="paint1_linear_208:679" x1="16.4731" y1="3.14261" x2="40.2601" y2="26.9281" gradientUnits="userSpaceOnUse">
<stop stop-color="#EE008F"/>
<stop offset="1" stop-color="#FEF100"/>
</linearGradient>
<linearGradient id="paint2_linear_208:679" x1="21.4013" y1="42.9007" x2="21.4013" y2="28.9668" gradientUnits="userSpaceOnUse">
<stop stop-color="#00BD45"/>
<stop offset="0.1" stop-color="#06BE43"/>
<stop offset="0.22" stop-color="#16C23F"/>
<stop offset="0.36" stop-color="#31C738"/>
<stop offset="0.51" stop-color="#57CF2D"/>
<stop offset="0.68" stop-color="#88D920"/>
<stop offset="0.85" stop-color="#C2E510"/>
<stop offset="1" stop-color="#FEF100"/>
</linearGradient>
</defs>
</svg>
