<svg id="HORIZONTAL_WHITE" data-name="HORIZONTAL WHITE" xmlns="http://www.w3.org/2000/svg" xmlns:xlink="http://www.w3.org/1999/xlink" viewBox="0 0 1000 278.67"><defs><style>.cls-1{fill:#fff;}.cls-2{fill:url(#linear-gradient);}.cls-3{fill:url(#linear-gradient-2);}.cls-4{fill:url(#linear-gradient-3);}</style><linearGradient id="linear-gradient" x1="13.6" y1="532.84" x2="172.18" y2="374.27" gradientUnits="userSpaceOnUse"><stop offset="0" stop-color="#00b0f1"/><stop offset="1" stop-color="#f0f"/></linearGradient><linearGradient id="linear-gradient-2" x1="106.49" y1="374.27" x2="265.07" y2="532.84" gradientUnits="userSpaceOnUse"><stop offset="0" stop-color="#ee008f"/><stop offset="1" stop-color="#fef100"/></linearGradient><linearGradient id="linear-gradient-3" x1="139.34" y1="278.67" x2="139.34" y2="185.78" gradientUnits="userSpaceOnUse"><stop offset="0" stop-color="#00bd45"/><stop offset="0.1" stop-color="#06be43"/><stop offset="0.22" stop-color="#16c23f"/><stop offset="0.36" stop-color="#31c738"/><stop offset="0.51" stop-color="#57cf2d"/><stop offset="0.68" stop-color="#88d920"/><stop offset="0.85" stop-color="#c2e510"/><stop offset="1" stop-color="#fef100"/></linearGradient></defs><path class="cls-1" d="M984.15,435.33c0-.23.1-.35.32-.35H989a3.45,3.45,0,0,1,1.39.28,3.64,3.64,0,0,1,1.12.76,3.47,3.47,0,0,1,.76,1.12,3.54,3.54,0,0,1,.28,1.38,3.5,3.5,0,0,1-.14,1,4.45,4.45,0,0,1-.39.86,3.7,3.7,0,0,1-.6.71,3.09,3.09,0,0,1-.76.54l1.91,3.77a.44.44,0,0,0,.05.15.42.42,0,0,1,0,.15c0,.15-.09.22-.26.22h-1.71a.35.35,0,0,1-.35-.27l-1.78-3.53h-2.25v3.48c0,.21-.11.31-.33.31h-1.48a.36.36,0,0,1-.24-.07.29.29,0,0,1-.08-.24Zm6.19,3.2a1.67,1.67,0,0,0-.12-.62,2,2,0,0,0-.33-.53,1.89,1.89,0,0,0-.5-.38,1.73,1.73,0,0,0-.64-.17h-2.47v3.41h2.22l.28,0a1.63,1.63,0,0,0,.63-.16,1.52,1.52,0,0,0,.5-.37,1.87,1.87,0,0,0,.32-.53A1.8,1.8,0,0,0,990.34,438.53Z" transform="translate(0 -360.66)"/><path class="cls-1" d="M988.39,430.91a9.53,9.53,0,1,1-9.53,9.53,9.54,9.54,0,0,1,9.53-9.53m0-2.09h0a11.62,11.62,0,0,0-11.62,11.62h0a11.61,11.61,0,0,0,11.62,11.61h0A11.61,11.61,0,0,0,1000,440.44h0a11.61,11.61,0,0,0-11.61-11.62Z" transform="translate(0 -360.66)"/><path class="cls-2" d="M185.78,407.11a46.44,46.44,0,0,1-46.44,46.44A46.45,46.45,0,0,0,92.89,500a46.45,46.45,0,1,1-46.44-46.45,46.44,46.44,0,0,0,46.44-46.44,46.45,46.45,0,1,1,92.89,0Z" transform="translate(0 -360.66)"/><path class="cls-3" d="M278.67,500a46.45,46.45,0,1,1-92.89,0,46.45,46.45,0,0,0-46.44-46.45,46.45,46.45,0,1,1,46.44-46.44,46.44,46.44,0,0,0,46.44,46.44A46.45,46.45,0,0,1,278.67,500Z" transform="translate(0 -360.66)"/><circle class="cls-4" cx="139.34" cy="232.23" r="46.45"/><path class="cls-1" d="M764.86,453.56A46.45,46.45,0,1,0,811.3,500,46.45,46.45,0,0,0,764.86,453.56Zm0,69.66A23.22,23.22,0,1,1,788.08,500,23.21,23.21,0,0,1,764.86,523.22Z" transform="translate(0 -360.66)"/><path class="cls-1" d="M535,526.63a11.61,11.61,0,0,1-16.41,16.43l0,0L492,516.43,465.38,543a11.61,11.61,0,0,1-19.83-8.2V440.43a11.61,11.61,0,1,1,23.22,0V506.8L518.61,457a0,0,0,0,1,0,0h0a11.61,11.61,0,0,1,16.53,16.31,1.35,1.35,0,0,1-.12.12L508.43,500Z" transform="translate(0 -360.66)"/><path class="cls-1" d="M706.79,465.16A11.61,11.61,0,0,0,687,457a11.82,11.82,0,0,0-2.37,3.43,11.58,11.58,0,0,0-1,4.78V499.4c0,.2,0,.4,0,.6s0,.4,0,.6a22.88,22.88,0,0,1-.72,5.2,23.23,23.23,0,0,1-45,0,22.67,22.67,0,0,1-.73-5.12c0-.22,0-.45,0-.68s0-.46,0-.68V465.66a11.61,11.61,0,1,0-23.22,0V501a46.23,46.23,0,0,0,6.2,22.22,46.77,46.77,0,0,0,17,17l.73.41a46.5,46.5,0,0,0,45,0l.72-.41v5.61c0,.2,0,.39,0,.6a23.23,23.23,0,0,1-23.22,23.22,11.61,11.61,0,0,0-.3,23.22h.6a46.44,46.44,0,0,0,46.14-46.44c0-.27,0-.54,0-.8Z" transform="translate(0 -360.66)"/><path class="cls-1" d="M410.72,480.74c2.13.75,4.21,1.61,6.26,2.57l.35.16a11.8,11.8,0,0,0,4.7,1.14H423l.57,0,.55-.07.48-.09h.08l.43-.1.12,0,.47-.13a4.42,4.42,0,0,0,.48-.15l.36-.13.26-.11.25-.1.25-.12.25-.11.24-.13.24-.13.23-.13.23-.14.21-.13.25-.17.21-.15.23-.17.21-.16q.36-.28.69-.6a2.39,2.39,0,0,0,.23-.22l.09-.08.1-.11c.21-.22.42-.45.62-.69l.3-.37c.12-.16.24-.32.35-.49l.26-.4a4.83,4.83,0,0,0,.26-.45,8.31,8.31,0,0,0,.48-.94c.05-.12.11-.24.15-.36s.14-.34.2-.52.05-.13.07-.2l0-.06c0-.12.08-.24.11-.36l.12-.43a1,1,0,0,1,0-.17c0-.15.07-.3.09-.45l.09-.48v-.05c0-.17.05-.35.07-.52v-.06c0-.17,0-.34,0-.51h0c0-.19,0-.38,0-.57a11.61,11.61,0,0,0-4.83-9.43l-.29-.19-.29-.2-.39-.22a1.71,1.71,0,0,0-.23-.13l0,0-.21-.11-.09-.05-.16-.07-.64-.31a91.82,91.82,0,0,0-16.06-5.77,93.51,93.51,0,0,0-46.45,0,90.94,90.94,0,0,0-9.89,3.16c-2.08.79-4.14,1.66-6.16,2.61l-.65.31c-.26.12-.52.26-.77.4l-.29.17-.11.07-.3.2a11.6,11.6,0,0,0-5.05,9.58v1a11.53,11.53,0,0,0,1.92,5.46,11.71,11.71,0,0,0,1.85,2.16l1.4,1.07,51.36,39.81a70.36,70.36,0,0,1-10.08.73,69.24,69.24,0,0,1-23.23-4,66.21,66.21,0,0,1-6.18-2.53l-.43-.2a11.76,11.76,0,0,0-5.05-1.14l-.68,0-.52,0-.52.07-.52.09a11.62,11.62,0,0,0-4.55,20.77l.28.2.3.2.11.07.29.17c.25.15.51.28.77.41l.65.3a91.72,91.72,0,0,0,16,5.77,93.51,93.51,0,0,0,46.45,0,91.68,91.68,0,0,0,9.89-3.15c2.06-.79,4.1-1.66,6.1-2.6.24-.1.47-.22.71-.33a10.55,10.55,0,0,0,1.4-.79l.23-.16a11.62,11.62,0,0,0,.45-18.61l-.72-.56-51.37-39.81a70.49,70.49,0,0,1,10.09-.72A69.47,69.47,0,0,1,410.72,480.74Z" transform="translate(0 -360.66)"/><path class="cls-1" d="M579.52,432.46a99,99,0,0,0,0,135.08c7.09,7.63,19.89,2.44,19.89-8v-.34a11.41,11.41,0,0,0-3.09-7.72c-1.5-1.63-2.93-3.31-4.28-5.06a76,76,0,0,1,0-92.9c1.35-1.75,2.78-3.43,4.28-5.06a11.39,11.39,0,0,0,3.09-7.72v-.34C599.41,430,586.61,424.84,579.52,432.46Z" transform="translate(0 -360.66)"/><path class="cls-1" d="M965.25,453.56a99.77,99.77,0,0,0-15-21.1c-7.09-7.62-19.89-2.44-19.89,8v.34a11.43,11.43,0,0,0,3.09,7.73q2.25,2.43,4.28,5.06a75.92,75.92,0,0,1,0,92.89q-2,2.63-4.27,5.06a11.41,11.41,0,0,0-3.09,7.72v.34c0,10.41,12.8,15.6,19.89,8a99.24,99.24,0,0,0,15-114Z" transform="translate(0 -360.66)"/><path class="cls-1" d="M904.2,453.54a11.61,11.61,0,0,0-11.62,11.62V500a23.23,23.23,0,1,1-46.45,0V465.16a11.44,11.44,0,0,0-1-4.79,11.62,11.62,0,0,0-22.2,4.79V500a46.46,46.46,0,0,0,69.68,40.24l1-.61A11.61,11.61,0,1,0,909,524.25,46.13,46.13,0,0,0,915.81,500V465.16a11.63,11.63,0,0,0-11.61-11.62Z" transform="translate(0 -360.66)"/></svg>